<svg xmlns="http://www.w3.org/2000/svg" xmlns:xlink="http://www.w3.org/1999/xlink" width="165" zoomAndPan="magnify" viewBox="0 0 123.75 135.000003" height="180" preserveAspectRatio="xMidYMid meet" version="1.0"><defs><g/><clipPath id="f8e0256ec2"><path d="M 0.332031 0 L 123.039062 0 L 123.039062 134.007812 L 0.332031 134.007812 Z M 0.332031 0 " clip-rule="nonzero"/></clipPath><clipPath id="247cc42f34"><path d="M 2.5625 0 L 120.808594 0 C 122.039062 0 123.039062 1 123.039062 2.234375 L 123.039062 131.773438 C 123.039062 133.007812 122.039062 134.007812 120.808594 134.007812 L 2.5625 134.007812 C 1.332031 134.007812 0.332031 133.007812 0.332031 131.773438 L 0.332031 2.234375 C 0.332031 1 1.332031 0 2.5625 0 Z M 2.5625 0 " clip-rule="nonzero"/></clipPath><clipPath id="dd5cd0effc"><path d="M 4.609375 4.671875 L 118.761719 4.671875 L 118.761719 129.527344 L 4.609375 129.527344 Z M 4.609375 4.671875 " clip-rule="nonzero"/></clipPath><clipPath id="1d6a11bf7e"><path d="M 6.097656 4.671875 L 117.273438 4.671875 C 118.097656 4.671875 118.761719 5.335938 118.761719 6.160156 L 118.761719 127.847656 C 118.761719 128.671875 118.097656 129.335938 117.273438 129.335938 L 6.097656 129.335938 C 5.273438 129.335938 4.609375 128.671875 4.609375 127.847656 L 4.609375 6.160156 C 4.609375 5.335938 5.273438 4.671875 6.097656 4.671875 Z M 6.097656 4.671875 " clip-rule="nonzero"/></clipPath><clipPath id="5ab591dabd"><path d="M 4.609375 4.671875 L 118.515625 4.671875 L 118.515625 129 L 4.609375 129 Z M 4.609375 4.671875 " clip-rule="nonzero"/></clipPath><clipPath id="2fe8bdcde8"><path d="M 6.097656 4.671875 L 117.265625 4.671875 C 118.089844 4.671875 118.753906 5.335938 118.753906 6.160156 L 118.753906 127.835938 C 118.753906 128.660156 118.089844 129.324219 117.265625 129.324219 L 6.097656 129.324219 C 5.277344 129.324219 4.609375 128.660156 4.609375 127.835938 L 4.609375 6.160156 C 4.609375 5.335938 5.277344 4.671875 6.097656 4.671875 Z M 6.097656 4.671875 " clip-rule="nonzero"/></clipPath><clipPath id="7ed83a3840"><path d="M 9.828125 9.285156 L 113.550781 9.285156 L 113.550781 101.484375 L 9.828125 101.484375 Z M 9.828125 9.285156 " clip-rule="nonzero"/></clipPath><clipPath id="bbc98ee51c"><path d="M 11.316406 9.285156 L 112.054688 9.285156 C 112.878906 9.285156 113.542969 9.953125 113.542969 10.773438 L 113.542969 99.996094 C 113.542969 100.816406 112.878906 101.484375 112.054688 101.484375 L 11.316406 101.484375 C 10.492188 101.484375 9.828125 100.816406 9.828125 99.996094 L 9.828125 10.773438 C 9.828125 9.953125 10.492188 9.285156 11.316406 9.285156 Z M 11.316406 9.285156 " clip-rule="nonzero"/></clipPath><clipPath id="d8db50ddce"><path d="M 9.832031 9.285156 L 113.3125 9.285156 L 113.3125 101.601562 L 9.832031 101.601562 Z M 9.832031 9.285156 " clip-rule="nonzero"/></clipPath><clipPath id="6d5b851100"><path d="M 11.320312 9.285156 L 112.050781 9.285156 C 112.871094 9.285156 113.539062 9.953125 113.539062 10.773438 L 113.539062 99.984375 C 113.539062 100.808594 112.871094 101.472656 112.050781 101.472656 L 11.320312 101.472656 C 10.5 101.472656 9.832031 100.808594 9.832031 99.984375 L 9.832031 10.773438 C 9.832031 9.953125 10.5 9.285156 11.320312 9.285156 Z M 11.320312 9.285156 " clip-rule="nonzero"/></clipPath><clipPath id="9409b8192f"><path d="M 2 86 L 26 86 L 26 117 L 2 117 Z M 2 86 " clip-rule="nonzero"/></clipPath><clipPath id="531fc62c43"><path d="M 0.332031 89.664062 L 20.425781 84.109375 L 28.554688 113.53125 L 8.464844 119.082031 Z M 0.332031 89.664062 " clip-rule="nonzero"/></clipPath><clipPath id="81d0ee6346"><path d="M 0.332031 89.664062 L 20.425781 84.109375 L 28.554688 113.53125 L 8.464844 119.082031 Z M 0.332031 89.664062 " clip-rule="nonzero"/></clipPath><clipPath id="da85ade804"><path d="M 0.332031 89.664062 L 20.425781 84.109375 L 28.554688 113.53125 L 8.464844 119.082031 Z M 0.332031 89.664062 " clip-rule="nonzero"/></clipPath><clipPath id="4a037d006c"><path d="M 0.332031 84 L 29 84 L 29 120 L 0.332031 120 Z M 0.332031 84 " clip-rule="nonzero"/></clipPath><clipPath id="e81be61aec"><path d="M 0.332031 89.664062 L 20.425781 84.109375 L 28.554688 113.53125 L 8.464844 119.082031 Z M 0.332031 89.664062 " clip-rule="nonzero"/></clipPath><clipPath id="f9f1359292"><path d="M 0.332031 89.664062 L 20.425781 84.109375 L 28.554688 113.53125 L 8.464844 119.082031 Z M 0.332031 89.664062 " clip-rule="nonzero"/></clipPath><clipPath id="f476e27016"><path d="M 0.332031 89.664062 L 20.425781 84.109375 L 28.554688 113.53125 L 8.464844 119.082031 Z M 0.332031 89.664062 " clip-rule="nonzero"/></clipPath><clipPath id="9f68431ae4"><path d="M 19 105 L 22 105 L 22 108 L 19 108 Z M 19 105 " clip-rule="nonzero"/></clipPath><clipPath id="cfabd77790"><path d="M 0.332031 89.664062 L 20.425781 84.109375 L 28.554688 113.53125 L 8.464844 119.082031 Z M 0.332031 89.664062 " clip-rule="nonzero"/></clipPath><clipPath id="f7b2413fb9"><path d="M 0.332031 89.664062 L 20.425781 84.109375 L 28.554688 113.53125 L 8.464844 119.082031 Z M 0.332031 89.664062 " clip-rule="nonzero"/></clipPath><clipPath id="0d06e8a7ff"><path d="M 0.332031 89.664062 L 20.425781 84.109375 L 28.554688 113.53125 L 8.464844 119.082031 Z M 0.332031 89.664062 " clip-rule="nonzero"/></clipPath><clipPath id="49c6b3c89a"><path d="M 10 108 L 13 108 L 13 110 L 10 110 Z M 10 108 " clip-rule="nonzero"/></clipPath><clipPath id="2e16ab22d4"><path d="M 0.332031 89.664062 L 20.425781 84.109375 L 28.554688 113.53125 L 8.464844 119.082031 Z M 0.332031 89.664062 " clip-rule="nonzero"/></clipPath><clipPath id="41195c6db5"><path d="M 0.332031 89.664062 L 20.425781 84.109375 L 28.554688 113.53125 L 8.464844 119.082031 Z M 0.332031 89.664062 " clip-rule="nonzero"/></clipPath><clipPath id="17515fce4b"><path d="M 0.332031 89.664062 L 20.425781 84.109375 L 28.554688 113.53125 L 8.464844 119.082031 Z M 0.332031 89.664062 " clip-rule="nonzero"/></clipPath><clipPath id="bac2806726"><path d="M 15 107 L 18 107 L 18 110 L 15 110 Z M 15 107 " clip-rule="nonzero"/></clipPath><clipPath id="4871de2df4"><path d="M 0.332031 89.664062 L 20.425781 84.109375 L 28.554688 113.53125 L 8.464844 119.082031 Z M 0.332031 89.664062 " clip-rule="nonzero"/></clipPath><clipPath id="89bf09aee5"><path d="M 0.332031 89.664062 L 20.425781 84.109375 L 28.554688 113.53125 L 8.464844 119.082031 Z M 0.332031 89.664062 " clip-rule="nonzero"/></clipPath><clipPath id="5ed1c76f29"><path d="M 0.332031 89.664062 L 20.425781 84.109375 L 28.554688 113.53125 L 8.464844 119.082031 Z M 0.332031 89.664062 " clip-rule="nonzero"/></clipPath><clipPath id="766f95aed4"><path d="M 16 108 L 17 108 L 17 110 L 16 110 Z M 16 108 " clip-rule="nonzero"/></clipPath><clipPath id="009189c58e"><path d="M 0.332031 89.664062 L 20.425781 84.109375 L 28.554688 113.53125 L 8.464844 119.082031 Z M 0.332031 89.664062 " clip-rule="nonzero"/></clipPath><clipPath id="14a77c86f8"><path d="M 0.332031 89.664062 L 20.425781 84.109375 L 28.554688 113.53125 L 8.464844 119.082031 Z M 0.332031 89.664062 " clip-rule="nonzero"/></clipPath><clipPath id="814666bc25"><path d="M 0.332031 89.664062 L 20.425781 84.109375 L 28.554688 113.53125 L 8.464844 119.082031 Z M 0.332031 89.664062 " clip-rule="nonzero"/></clipPath><clipPath id="ac48c9e45b"><path d="M 0.332031 91 L 29 91 L 29 120 L 0.332031 120 Z M 0.332031 91 " clip-rule="nonzero"/></clipPath><clipPath id="4a261b4c47"><path d="M 0.332031 89.664062 L 20.425781 84.109375 L 28.554688 113.53125 L 8.464844 119.082031 Z M 0.332031 89.664062 " clip-rule="nonzero"/></clipPath><clipPath id="42bdd765bc"><path d="M 0.332031 89.664062 L 20.425781 84.109375 L 28.554688 113.53125 L 8.464844 119.082031 Z M 0.332031 89.664062 " clip-rule="nonzero"/></clipPath><clipPath id="65806d5753"><path d="M 0.332031 89.664062 L 20.425781 84.109375 L 28.554688 113.53125 L 8.464844 119.082031 Z M 0.332031 89.664062 " clip-rule="nonzero"/></clipPath><clipPath id="79c6dd2a00"><path d="M 16 109 L 18 109 L 18 110 L 16 110 Z M 16 109 " clip-rule="nonzero"/></clipPath><clipPath id="abc8f3472d"><path d="M 0.332031 89.664062 L 20.425781 84.109375 L 28.554688 113.53125 L 8.464844 119.082031 Z M 0.332031 89.664062 " clip-rule="nonzero"/></clipPath><clipPath id="3151acfb63"><path d="M 0.332031 89.664062 L 20.425781 84.109375 L 28.554688 113.53125 L 8.464844 119.082031 Z M 0.332031 89.664062 " clip-rule="nonzero"/></clipPath><clipPath id="11a04f8578"><path d="M 0.332031 89.664062 L 20.425781 84.109375 L 28.554688 113.53125 L 8.464844 119.082031 Z M 0.332031 89.664062 " clip-rule="nonzero"/></clipPath><clipPath id="a5e75d639a"><path d="M 0.332031 92 L 29 92 L 29 120 L 0.332031 120 Z M 0.332031 92 " clip-rule="nonzero"/></clipPath><clipPath id="75b5959e47"><path d="M 0.332031 89.664062 L 20.425781 84.109375 L 28.554688 113.53125 L 8.464844 119.082031 Z M 0.332031 89.664062 " clip-rule="nonzero"/></clipPath><clipPath id="de6cf4c5b3"><path d="M 0.332031 89.664062 L 20.425781 84.109375 L 28.554688 113.53125 L 8.464844 119.082031 Z M 0.332031 89.664062 " clip-rule="nonzero"/></clipPath><clipPath id="5195c3c181"><path d="M 0.332031 89.664062 L 20.425781 84.109375 L 28.554688 113.53125 L 8.464844 119.082031 Z M 0.332031 89.664062 " clip-rule="nonzero"/></clipPath><clipPath id="dc699d0e47"><path d="M 96 4 L 120 4 L 120 20 L 96 20 Z M 96 4 " clip-rule="nonzero"/></clipPath><clipPath id="e863ac68a6"><path d="M 100.996094 0 L 122.929688 12.632812 L 117.359375 22.308594 L 95.421875 9.679688 Z M 100.996094 0 " clip-rule="nonzero"/></clipPath><clipPath id="7b007b6ab4"><path d="M 100.996094 0 L 122.929688 12.632812 L 117.359375 22.308594 L 95.421875 9.679688 Z M 100.996094 0 " clip-rule="nonzero"/></clipPath><clipPath id="52e092093d"><path d="M 100.996094 0 L 122.929688 12.632812 L 117.359375 22.308594 L 95.421875 9.679688 Z M 100.996094 0 " clip-rule="nonzero"/></clipPath><clipPath id="4a5a3837ce"><path d="M 95 0 L 123 0 L 123 23 L 95 23 Z M 95 0 " clip-rule="nonzero"/></clipPath><clipPath id="4e86ee3982"><path d="M 100.996094 0 L 122.929688 12.632812 L 117.359375 22.308594 L 95.421875 9.679688 Z M 100.996094 0 " clip-rule="nonzero"/></clipPath><clipPath id="c2c99b17fc"><path d="M 100.996094 0 L 122.929688 12.632812 L 117.359375 22.308594 L 95.421875 9.679688 Z M 100.996094 0 " clip-rule="nonzero"/></clipPath><clipPath id="9cdb351b02"><path d="M 100.996094 0 L 122.929688 12.632812 L 117.359375 22.308594 L 95.421875 9.679688 Z M 100.996094 0 " clip-rule="nonzero"/></clipPath></defs><g clip-path="url(#f8e0256ec2)"><g clip-path="url(#247cc42f34)"><path fill="#ffffff" d="M 0.332031 0 L 123.039062 0 L 123.039062 134.214844 L 0.332031 134.214844 Z M 0.332031 0 " fill-opacity="1" fill-rule="nonzero"/></g></g><g clip-path="url(#dd5cd0effc)"><g clip-path="url(#1d6a11bf7e)"><path fill="#ffffff" d="M 4.609375 4.671875 L 118.761719 4.671875 L 118.761719 129.527344 L 4.609375 129.527344 Z M 4.609375 4.671875 " fill-opacity="1" fill-rule="nonzero"/></g></g><g clip-path="url(#5ab591dabd)"><g clip-path="url(#2fe8bdcde8)"><path stroke-linecap="butt" transform="matrix(0.744485, 0, 0, 0.744485, 4.610324, 4.670598)" fill="none" stroke-linejoin="miter" d="M 1.9978 0.00171479 L 151.319716 0.00171479 C 152.426815 0.00171479 153.31879 0.89369 153.31879 2.000789 L 153.31879 165.436903 C 153.31879 166.544002 152.426815 167.435977 151.319716 167.435977 L 1.9978 167.435977 C 0.895948 167.435977 -0.00127423 166.544002 -0.00127423 165.436903 L -0.00127423 2.000789 C -0.00127423 0.89369 0.895948 0.00171479 1.9978 0.00171479 Z M 1.9978 0.00171479 " stroke="#000000" stroke-width="2" stroke-opacity="1" stroke-miterlimit="4"/></g></g><g clip-path="url(#7ed83a3840)"><g clip-path="url(#bbc98ee51c)"><path fill="#c6e5d1" d="M 9.828125 9.285156 L 113.550781 9.285156 L 113.550781 101.484375 L 9.828125 101.484375 Z M 9.828125 9.285156 " fill-opacity="1" fill-rule="nonzero"/></g></g><g clip-path="url(#d8db50ddce)"><g clip-path="url(#6d5b851100)"><path stroke-linecap="butt" transform="matrix(0.744485, 0, 0, 0.744485, 9.832163, 9.286383)" fill="none" stroke-linejoin="miter" d="M 1.998896 -0.00164783 L 137.301051 -0.00164783 C 138.402903 -0.00164783 139.300125 0.895574 139.300125 1.997426 L 139.300125 121.826433 C 139.300125 122.933532 138.402903 123.825507 137.301051 123.825507 L 1.998896 123.825507 C 0.897045 123.825507 -0.000177518 122.933532 -0.000177518 121.826433 L -0.000177518 1.997426 C -0.000177518 0.895574 0.897045 -0.00164783 1.998896 -0.00164783 Z M 1.998896 -0.00164783 " stroke="#000000" stroke-width="2" stroke-opacity="1" stroke-miterlimit="4"/></g></g><g clip-path="url(#9409b8192f)"><g clip-path="url(#531fc62c43)"><g clip-path="url(#81d0ee6346)"><g clip-path="url(#da85ade804)"><path fill="#fffbe9" d="M 4.328125 89.484375 C 4.554688 89.339844 4.796875 89.261719 5.019531 89.167969 C 5.265625 89.0625 5.492188 88.925781 5.726562 88.882812 C 5.988281 88.835938 6.246094 88.871094 6.492188 88.886719 C 6.75 88.902344 7.007812 88.910156 7.246094 88.988281 C 7.492188 89.066406 7.742188 89.144531 7.964844 89.273438 C 8.183594 89.398438 8.332031 89.636719 8.527344 89.800781 C 8.722656 89.964844 8.914062 90.125 9.082031 90.316406 C 9.253906 90.507812 9.480469 90.65625 9.625 90.863281 C 9.773438 91.078125 9.820312 91.351562 9.933594 91.570312 C 10.0625 91.808594 10.234375 92.011719 10.3125 92.234375 C 10.390625 92.441406 10.484375 92.691406 10.589844 92.976562 C 10.679688 93.203125 10.699219 93.480469 10.800781 93.742188 C 10.894531 93.980469 11.054688 94.203125 11.152344 94.457031 C 11.246094 94.695312 11.300781 94.960938 11.398438 95.210938 C 11.496094 95.453125 11.617188 95.691406 11.714844 95.9375 C 11.816406 96.183594 11.945312 96.417969 12.042969 96.660156 C 12.140625 96.910156 12.265625 97.148438 12.359375 97.382812 C 12.464844 97.644531 12.460938 97.929688 12.554688 98.160156 C 12.664062 98.433594 12.8125 98.664062 12.898438 98.875 C 13.082031 99.328125 12.808594 99.511719 13.195312 99.574219 C 13.578125 99.636719 13.117188 99.332031 12.996094 98.859375 C 12.941406 98.648438 12.816406 98.410156 12.75 98.125 C 12.695312 97.894531 12.710938 97.621094 12.65625 97.351562 C 12.605469 97.113281 12.488281 96.871094 12.4375 96.605469 C 12.390625 96.363281 12.375 96.101562 12.332031 95.839844 C 12.289062 95.589844 12.253906 95.335938 12.21875 95.074219 C 12.179688 94.820312 12.128906 94.566406 12.097656 94.308594 C 12.070312 94.054688 12.035156 93.796875 12.015625 93.539062 C 11.996094 93.28125 12.066406 93.019531 12.058594 92.761719 C 12.046875 92.503906 11.9375 92.246094 11.9375 91.988281 C 11.9375 91.730469 11.964844 91.46875 11.980469 91.214844 C 11.992188 90.953125 11.984375 90.691406 12.011719 90.441406 C 12.042969 90.179688 12.183594 89.9375 12.234375 89.691406 C 12.285156 89.433594 12.273438 89.164062 12.351562 88.925781 C 12.429688 88.675781 12.523438 88.4375 12.632812 88.203125 C 12.746094 87.964844 12.894531 87.75 13.042969 87.546875 C 13.195312 87.335938 13.34375 87.117188 13.535156 86.949219 C 13.726562 86.78125 13.972656 86.6875 14.207031 86.566406 C 14.429688 86.457031 14.652344 86.332031 14.914062 86.265625 C 15.152344 86.210938 15.410156 86.238281 15.683594 86.226562 C 15.960938 86.210938 16.214844 86.207031 16.457031 86.242188 C 16.730469 86.28125 16.988281 86.308594 17.214844 86.40625 C 17.464844 86.507812 17.652344 86.6875 17.847656 86.851562 C 18.050781 87.011719 18.230469 87.195312 18.382812 87.402344 C 18.527344 87.613281 18.6875 87.820312 18.792969 88.066406 C 18.894531 88.300781 18.917969 88.566406 18.984375 88.828125 C 19.050781 89.074219 19.203125 89.308594 19.242188 89.574219 C 19.28125 89.828125 19.253906 90.097656 19.273438 90.363281 C 19.289062 90.621094 19.328125 90.882812 19.328125 91.148438 C 19.328125 91.40625 19.257812 91.667969 19.246094 91.929688 C 19.234375 92.191406 19.246094 92.453125 19.222656 92.714844 C 19.199219 92.976562 19.136719 93.234375 19.105469 93.492188 C 19.074219 93.753906 19.105469 94.023438 19.066406 94.277344 C 19.027344 94.542969 18.914062 94.789062 18.867188 95.039062 C 18.820312 95.304688 18.804688 95.570312 18.753906 95.816406 C 18.699219 96.085938 18.695312 96.351562 18.636719 96.59375 C 18.574219 96.867188 18.472656 97.113281 18.414062 97.347656 C 18.339844 97.636719 18.273438 97.894531 18.214844 98.109375 C 18.082031 98.582031 17.78125 98.523438 18.03125 98.828125 C 18.273438 99.128906 18.28125 98.882812 18.757812 98.921875 C 18.976562 98.941406 19.242188 98.894531 19.527344 98.949219 C 19.761719 98.996094 20.023438 99.027344 20.289062 99.109375 C 20.519531 99.179688 20.730469 99.363281 20.976562 99.46875 C 21.203125 99.5625 21.46875 99.605469 21.703125 99.738281 C 21.917969 99.859375 22.09375 100.058594 22.3125 100.214844 C 22.523438 100.359375 22.730469 100.511719 22.921875 100.679688 C 23.109375 100.84375 23.355469 100.964844 23.535156 101.160156 C 23.703125 101.34375 23.832031 101.574219 23.992188 101.789062 C 24.140625 101.988281 24.238281 102.230469 24.378906 102.457031 C 24.507812 102.671875 24.710938 102.851562 24.832031 103.089844 C 24.945312 103.3125 24.96875 103.582031 25.070312 103.828125 C 25.167969 104.058594 25.265625 104.296875 25.351562 104.546875 C 25.4375 104.800781 25.542969 105.035156 25.609375 105.277344 C 25.679688 105.53125 25.796875 105.773438 25.847656 106.015625 C 25.898438 106.277344 25.933594 106.539062 25.964844 106.785156 C 25.996094 107.050781 25.917969 107.3125 25.925781 107.566406 C 25.933594 107.828125 25.964844 108.085938 25.949219 108.335938 C 25.929688 108.597656 25.964844 108.867188 25.921875 109.113281 C 25.875 109.371094 25.785156 109.621094 25.710938 109.863281 C 25.636719 110.113281 25.578125 110.371094 25.476562 110.605469 C 25.375 110.84375 25.203125 111.050781 25.078125 111.269531 C 24.945312 111.496094 24.761719 111.675781 24.605469 111.882812 C 24.453125 112.089844 24.316406 112.304688 24.140625 112.492188 C 23.96875 112.683594 23.839844 112.921875 23.648438 113.09375 C 23.457031 113.265625 23.207031 113.367188 23 113.523438 C 22.796875 113.679688 22.609375 113.863281 22.394531 114 C 22.175781 114.140625 21.929688 114.226562 21.703125 114.351562 C 21.476562 114.472656 21.273438 114.640625 21.042969 114.75 C 20.808594 114.859375 20.578125 114.980469 20.339844 115.078125 C 20.101562 115.175781 19.863281 115.277344 19.621094 115.363281 C 19.378906 115.445312 19.117188 115.488281 18.859375 115.566406 C 18.613281 115.640625 18.351562 115.671875 18.09375 115.738281 C 17.839844 115.800781 17.601562 115.921875 17.339844 115.976562 C 17.085938 116.027344 16.828125 116.085938 16.566406 116.128906 C 16.308594 116.167969 16.039062 116.113281 15.777344 116.140625 C 15.515625 116.164062 15.261719 116.253906 15 116.265625 C 14.738281 116.277344 14.472656 116.253906 14.210938 116.246094 C 13.949219 116.242188 13.6875 116.203125 13.429688 116.179688 C 13.167969 116.15625 12.894531 116.207031 12.636719 116.160156 C 12.378906 116.117188 12.117188 116.058594 11.863281 115.992188 C 11.609375 115.921875 11.359375 115.839844 11.113281 115.746094 C 10.863281 115.648438 10.625 115.542969 10.386719 115.421875 C 10.15625 115.300781 9.953125 115.125 9.730469 114.976562 C 9.519531 114.832031 9.289062 114.691406 9.089844 114.515625 C 8.890625 114.34375 8.699219 114.160156 8.523438 113.964844 C 8.351562 113.773438 8.242188 113.523438 8.085938 113.304688 C 7.9375 113.09375 7.71875 112.921875 7.585938 112.6875 C 7.460938 112.464844 7.359375 112.214844 7.25 111.96875 C 7.144531 111.734375 7.042969 111.488281 6.953125 111.234375 C 6.863281 110.976562 6.78125 110.722656 6.710938 110.476562 C 6.636719 110.214844 6.609375 109.949219 6.554688 109.699219 C 6.5 109.429688 6.46875 109.167969 6.4375 108.914062 C 6.402344 108.644531 6.332031 108.382812 6.324219 108.128906 C 6.308594 107.855469 6.40625 107.59375 6.417969 107.335938 C 6.429688 107.066406 6.375 106.796875 6.410156 106.542969 C 6.449219 106.273438 6.476562 106.007812 6.535156 105.757812 C 6.597656 105.492188 6.699219 105.242188 6.78125 105.003906 C 6.871094 104.742188 6.992188 104.507812 7.097656 104.277344 C 7.210938 104.023438 7.308594 103.773438 7.429688 103.558594 C 7.570312 103.3125 7.734375 103.101562 7.875 102.902344 C 8.046875 102.65625 8.238281 102.472656 8.382812 102.304688 C 8.707031 101.929688 8.867188 102.109375 8.871094 101.714844 C 8.878906 101.332031 8.664062 101.558594 8.300781 101.25 C 8.132812 101.109375 7.941406 100.933594 7.726562 100.742188 C 7.550781 100.585938 7.40625 100.363281 7.207031 100.175781 C 7.027344 100.011719 6.78125 99.898438 6.589844 99.714844 C 6.414062 99.539062 6.273438 99.320312 6.089844 99.128906 C 5.914062 98.949219 5.730469 98.773438 5.554688 98.582031 C 5.386719 98.394531 5.246094 98.179688 5.078125 97.980469 C 4.914062 97.789062 4.703125 97.628906 4.546875 97.429688 C 4.390625 97.226562 4.273438 96.992188 4.125 96.785156 C 3.976562 96.578125 3.769531 96.40625 3.632812 96.195312 C 3.496094 95.976562 3.402344 95.730469 3.28125 95.511719 C 3.15625 95.285156 3.074219 95.039062 2.972656 94.808594 C 2.863281 94.578125 2.769531 94.34375 2.683594 94.101562 C 2.609375 93.859375 2.550781 93.613281 2.511719 93.359375 C 2.46875 93.105469 2.363281 92.855469 2.367188 92.601562 C 2.367188 92.34375 2.449219 92.09375 2.503906 91.84375 C 2.5625 91.597656 2.605469 91.339844 2.71875 91.105469 C 2.832031 90.886719 3.054688 90.726562 3.222656 90.523438 C 3.375 90.335938 3.480469 90.082031 3.683594 89.90625 C 3.867188 89.753906 4.097656 89.628906 4.328125 89.484375 Z M 4.328125 89.484375 " fill-opacity="1" fill-rule="nonzero"/></g></g></g></g><g clip-path="url(#4a037d006c)"><g clip-path="url(#e81be61aec)"><g clip-path="url(#f9f1359292)"><g clip-path="url(#f476e27016)"><path stroke-linecap="butt" transform="matrix(0.0356359, -0.00984869, 0.00987859, 0.0357441, 0.336114, 89.669399)" fill="none" stroke-linejoin="miter" d="M 105.406073 23.866528 C 112.353982 21.73741 119.230779 21.446523 125.710969 20.609221 C 132.886616 19.635691 139.778235 17.709631 146.198055 18.276384 C 153.35888 18.938026 159.826829 21.703715 166.12999 23.877581 C 172.738663 26.135626 179.403625 28.190613 185.052796 31.932823 C 190.905642 35.731152 196.860325 39.557541 201.736266 44.507389 C 206.538515 49.327648 208.691499 56.587176 212.601278 62.254367 C 216.511058 67.921559 220.347144 73.459162 223.34705 79.64064 C 226.448794 85.850177 231.285849 91.335729 233.562153 97.754965 C 235.884006 104.405319 235.135921 111.849059 236.513095 118.348405 C 238.156893 125.467635 241.174202 131.981759 241.606696 138.330098 C 242.151769 144.272322 242.794599 151.443603 243.489638 159.612822 C 244.199499 166.14687 242.71041 173.495722 243.47248 181.027708 C 244.199744 187.894402 246.770818 194.831992 247.48734 202.13286 C 248.214604 208.999554 247.726484 216.296355 248.471151 223.495695 C 249.272107 230.491977 250.712231 237.555088 251.485043 244.652899 C 252.359692 251.778769 254.031635 258.79647 254.832591 265.792752 C 255.577258 272.992092 257.119219 280.083262 257.874628 286.848427 C 258.738535 294.408472 256.582134 301.792025 257.365687 308.455661 C 258.246997 316.348353 260.45627 323.404822 261.176873 329.504694 C 262.698432 342.600848 254.247031 345.408541 263.878592 349.810898 C 273.408317 354.185195 263.586822 342.954913 263.835381 329.800067 C 263.929475 323.924671 262.387514 316.833501 262.710846 308.944877 C 262.945665 302.561836 265.323143 295.567049 265.839408 288.168719 C 266.232353 281.610681 264.922211 274.474101 265.512168 267.205359 C 266.035095 260.573851 267.513442 253.659175 268.278929 246.548081 C 268.959982 239.741575 269.872854 232.889658 270.842015 225.834684 C 271.65305 218.954708 272.158574 211.990553 273.201428 205.065167 C 274.317974 198.26937 275.258991 191.315925 276.607356 184.474717 C 277.955721 177.63351 281.674486 171.336143 283.328362 164.579115 C 284.880402 157.794026 283.886513 150.30745 285.744064 143.60654 C 287.601615 136.905631 290.200171 130.299609 292.436926 123.812466 C 294.628133 117.094206 296.310154 110.235649 298.824276 103.934214 C 301.524669 97.356252 306.935778 92.071601 310.032777 86.040052 C 313.214211 79.703916 314.850685 72.614241 318.604255 66.982167 C 322.44226 61.045506 326.603179 55.52567 331.143301 50.2196 C 335.813406 44.840062 341.231176 40.322233 346.564513 36.10899 C 352.055976 31.72075 357.501891 27.101392 363.702133 24.110565 C 369.902376 21.119737 376.993589 20.450793 383.976304 18.986968 C 390.569073 17.743552 397.27442 16.094019 404.575969 16.248016 C 411.182061 16.538242 417.706299 19.100873 424.919333 20.760454 C 432.262349 22.346565 438.909908 24.068905 444.970508 26.722357 C 451.817661 29.701813 458.341899 32.264445 463.544836 36.430121 C 469.33065 40.865683 472.924176 46.882871 476.833955 52.550063 C 480.975553 58.171845 484.33726 64.234443 486.817239 70.709799 C 489.065399 77.230564 491.749052 83.762038 492.725538 90.915968 C 493.684621 97.737252 492.381803 104.809576 492.227339 112.089027 C 492.185454 118.962362 494.468419 126.148419 493.57295 133.332982 C 492.761916 140.212958 490.10707 147.022038 488.702416 154.066303 C 487.252213 160.879451 486.384889 167.962485 484.471048 174.866452 C 482.613497 181.567362 478.894733 187.864729 476.703526 194.582989 C 474.512319 201.301248 472.932135 208.187866 470.435416 214.821947 C 467.938698 221.456028 464.451752 227.707985 461.779504 234.184419 C 459.079111 240.762381 457.951823 247.992354 455.104046 254.311139 C 452.171834 260.934511 447.44544 266.517108 444.422132 272.678245 C 441.286246 279.245498 438.965057 286.037227 435.868058 292.068776 C 432.500353 298.681439 430.484675 305.557347 427.212146 311.431248 C 423.612622 318.089321 419.191739 323.756096 415.975499 329.426939 C 411.957885 336.406949 408.369102 342.630846 405.293586 347.794045 C 398.425613 359.125022 391.006324 355.441504 395.328613 365.156571 C 399.475373 374.713989 401.452164 368.373786 413.594849 372.812338 C 419.157005 374.891316 426.419667 375.581017 433.459752 379.050768 C 439.232244 381.952687 445.830175 384.644907 452.164062 388.685063 C 457.665848 392.168096 461.842252 398.45517 467.498085 402.964202 C 472.729166 407.028349 479.3445 410.053215 484.497808 415.188771 C 489.226365 419.879442 492.373656 426.320097 496.950747 431.952588 C 501.408599 437.224373 505.708323 442.671156 509.488121 448.411818 C 513.194226 454.02289 518.737479 458.938038 522.014752 465.305223 C 525.070948 471.283642 526.771036 478.199814 529.398399 484.934346 C 531.83283 491.178584 532.633787 498.174866 534.66753 505.073687 C 536.480197 511.583743 540.481072 517.71317 541.921195 524.77628 C 543.270224 531.377156 541.939262 538.551009 542.81391 545.67688 C 543.699301 552.368575 544.528402 559.263328 544.967558 566.37849 C 545.378568 573.59518 546.439489 580.444523 546.425748 587.216329 C 546.42941 594.320781 547.739552 601.457361 547.318463 608.116929 C 546.75665 615.284141 545.787488 622.339116 544.829069 628.959915 C 543.729925 636.088358 539.807487 642.329606 538.181755 648.985106 C 536.499733 655.843664 535.45688 662.76905 533.248269 669.154663 C 530.853388 675.816804 529.827937 683.074836 526.934612 689.162504 C 523.855015 695.526699 519.711499 701.379182 516.031621 707.140845 C 512.295454 713.105565 508.910346 719.385582 504.573898 724.74777 C 500.209304 730.211487 494.2368 734.357901 489.401908 739.145617 C 484.307052 744.080271 478.22605 747.431804 472.660894 751.690456 C 467.197576 755.977168 462.085317 760.579175 456.151699 764.189885 C 450.291774 767.930184 445.214321 773.197484 438.985934 776.28984 C 432.757546 779.382196 425.508207 780.226139 418.98505 782.800141 C 412.56373 785.402202 406.352746 788.827205 399.766638 790.837443 C 393.050549 792.921151 386.015625 793.387037 379.20844 795.00851 C 372.4294 796.528455 365.923646 799.435103 359.127202 800.622401 C 352.228922 801.781639 345.348045 803.273524 338.432361 804.100116 C 331.516678 804.926708 324.57285 805.854829 317.639763 806.348774 C 310.734821 806.741191 303.602141 805.978021 296.317996 806.15667 C 289.367506 806.317969 282.31926 805.250212 275.119549 805.124275 C 268.049819 804.924869 260.965267 806.360634 253.748153 805.902051 C 246.762857 805.398057 239.619435 805.069062 232.486755 804.305892 C 225.484057 803.469252 218.85132 800.11174 211.831218 798.942454 C 204.839262 797.671639 197.572519 798.182935 190.664996 796.607533 C 183.757474 795.032131 177.001417 792.514909 170.234618 790.431863 C 163.439674 788.450345 156.898032 785.555067 150.345649 783.093965 C 143.691429 780.604803 136.196948 779.960512 129.813433 776.890235 C 123.401774 773.921488 117.000856 770.518566 110.859902 766.968704 C 104.747092 763.317314 98.820554 759.389396 93.080288 755.184951 C 87.266328 750.850918 81.81417 746.398006 76.47459 741.538977 C 71.338685 736.736068 67.309666 730.70817 62.574448 725.250678 C 58.116597 719.978893 53.121415 714.668339 49.194233 708.668501 C 45.238906 702.770191 41.571687 696.623415 38.396252 690.284289 C 35.294508 684.074752 34.24433 676.791233 31.746948 669.983232 C 29.396951 663.434407 24.932439 657.3958 23.158659 650.35004 C 21.504119 643.664986 20.657615 636.437587 19.579291 629.255597 C 18.518371 622.406254 17.643723 615.280383 17.130875 608.035633 C 16.646171 600.689354 16.336998 593.500724 16.277046 586.599329 C 16.227836 579.26376 17.428817 572.163375 17.804358 565.27269 C 18.320623 557.87436 19.391622 550.847446 20.406331 544.023589 C 21.431782 536.765557 21.484409 529.458047 23.110141 522.802547 C 24.672922 515.583283 29.104547 509.482333 31.267609 502.865602 C 33.515106 495.944284 34.031371 488.545954 36.777311 482.19911 C 39.737668 475.474209 42.364368 468.766658 45.693187 462.689699 C 49.236422 456.234684 53.685449 450.46638 57.540856 444.862365 C 61.768806 438.705296 66.61444 433.483405 71.024581 428.250806 C 75.807265 422.465151 80.154455 416.668788 84.859365 411.954542 C 90.298619 406.568362 96.095594 402.2643 101.197111 398.096468 C 107.451062 392.934764 113.763884 389.537822 118.74208 386.21028 C 129.896456 378.792444 132.777122 384.613215 135.721575 374.386852 C 138.683431 364.493136 131.449995 368.83854 124.202573 358.208218 C 120.836785 353.346617 117.113277 347.402898 112.891326 340.884706 C 109.434443 335.560869 107.270717 328.735518 103.427969 322.431093 C 99.925538 316.876139 94.325995 312.16405 90.658777 306.017273 C 87.342617 300.185792 85.252584 293.490028 81.845329 287.196313 C 78.557315 281.263303 75.037481 275.375703 71.833901 269.138106 C 68.80585 263.058158 66.687672 256.463923 63.744055 250.079388 C 60.845986 243.92597 56.500714 238.248069 53.862608 231.947712 C 51.252648 225.545826 49.886216 218.612304 47.508075 212.165009 C 45.129933 205.717713 40.970932 199.763285 38.926446 193.298639 C 36.93825 186.630935 36.267276 179.561184 34.686428 173.005718 C 33.060033 166.219135 32.69457 159.233562 31.707342 152.513807 C 30.51644 145.737933 29.761032 138.972768 29.265587 132.060665 C 29.075653 125.23274 29.321213 118.415524 30.132248 111.535548 C 30.841446 104.627513 29.893104 97.372053 31.824348 90.800732 C 33.681899 84.099823 37.62174 78.191221 40.848722 72.086203 C 44.149396 66.110773 47.127155 59.718518 51.769115 54.440509 C 56.298496 49.568615 63.257147 47.005322 69.099669 42.932377 C 74.422263 39.15331 79.001272 33.311537 85.563316 30.20183 C 91.447305 27.561 98.356327 25.967586 105.406073 23.866528 Z M 105.406073 23.866528 " stroke="#b05e5e" stroke-width="32.523998" stroke-opacity="1" stroke-miterlimit="10"/></g></g></g></g><g clip-path="url(#9f68431ae4)"><g clip-path="url(#cfabd77790)"><g clip-path="url(#f7b2413fb9)"><g clip-path="url(#0d06e8a7ff)"><path fill="#b05e5e" d="M 20.390625 105.109375 C 20.601562 105.082031 20.792969 105.152344 20.96875 105.320312 C 21.144531 105.488281 21.25 105.707031 21.285156 105.972656 C 21.324219 106.238281 21.28125 106.476562 21.160156 106.6875 C 21.039062 106.898438 20.875 107.015625 20.664062 107.046875 C 20.453125 107.074219 20.261719 107.003906 20.089844 106.835938 C 19.914062 106.667969 19.808594 106.453125 19.769531 106.183594 C 19.730469 105.917969 19.773438 105.679688 19.894531 105.46875 C 20.015625 105.261719 20.183594 105.140625 20.390625 105.109375 Z M 20.390625 105.109375 " fill-opacity="1" fill-rule="nonzero"/></g></g></g></g><g clip-path="url(#49c6b3c89a)"><g clip-path="url(#2e16ab22d4)"><g clip-path="url(#41195c6db5)"><g clip-path="url(#17515fce4b)"><path fill="#b05e5e" d="M 12.386719 108.617188 C 12.515625 108.855469 12.558594 109.09375 12.519531 109.332031 C 12.480469 109.570312 12.367188 109.742188 12.179688 109.839844 C 11.992188 109.941406 11.789062 109.945312 11.566406 109.847656 C 11.34375 109.753906 11.167969 109.585938 11.042969 109.347656 C 10.914062 109.109375 10.871094 108.871094 10.910156 108.632812 C 10.949219 108.394531 11.0625 108.222656 11.25 108.125 C 11.4375 108.023438 11.640625 108.019531 11.863281 108.117188 C 12.085938 108.214844 12.257812 108.378906 12.386719 108.617188 Z M 12.386719 108.617188 " fill-opacity="1" fill-rule="nonzero"/></g></g></g></g><g clip-path="url(#bac2806726)"><g clip-path="url(#4871de2df4)"><g clip-path="url(#89bf09aee5)"><g clip-path="url(#5ed1c76f29)"><path fill="#b05e5e" d="M 17.328125 107.992188 C 17.371094 107.753906 17.304688 107.464844 17.085938 107.359375 C 16.878906 107.261719 16.621094 107.378906 16.488281 107.566406 C 16.359375 107.753906 16.289062 107.933594 16.28125 108.160156 C 16.175781 108.019531 16.035156 107.921875 15.867188 107.867188 C 15.683594 107.796875 15.460938 107.8125 15.3125 107.9375 C 15.132812 108.089844 15.101562 108.375 15.210938 108.582031 C 15.320312 108.792969 15.546875 108.921875 15.777344 108.964844 C 16.128906 109.023438 16.453125 109.066406 16.875 108.765625 C 17.125 108.589844 17.277344 108.292969 17.328125 107.992188 Z M 17.328125 107.992188 " fill-opacity="1" fill-rule="nonzero"/></g></g></g></g><g clip-path="url(#766f95aed4)"><g clip-path="url(#009189c58e)"><g clip-path="url(#14a77c86f8)"><g clip-path="url(#814666bc25)"><path fill="#fffbe9" d="M 16.539062 108.792969 L 16.742188 109.40625 " fill-opacity="1" fill-rule="nonzero"/></g></g></g></g><g clip-path="url(#ac48c9e45b)"><g clip-path="url(#4a261b4c47)"><g clip-path="url(#42bdd765bc)"><g clip-path="url(#65806d5753)"><path stroke-linecap="round" transform="matrix(0.0356359, -0.00984869, 0.00987859, 0.0357441, 0.336114, 89.669399)" fill="none" stroke-linejoin="miter" d="M 284.629665 613.438139 L 285.506476 630.837277 " stroke="#b05e5e" stroke-width="32.523998" stroke-opacity="1" stroke-miterlimit="10"/></g></g></g></g><g clip-path="url(#79c6dd2a00)"><g clip-path="url(#abc8f3472d)"><g clip-path="url(#3151acfb63)"><g clip-path="url(#11a04f8578)"><path fill="#fffbe9" d="M 17.382812 109.597656 L 16.742188 109.40625 L 16.339844 109.941406 " fill-opacity="1" fill-rule="nonzero"/></g></g></g></g><g clip-path="url(#a5e75d639a)"><g clip-path="url(#75b5959e47)"><g clip-path="url(#de6cf4c5b3)"><g clip-path="url(#5195c3c181)"><path stroke-linecap="round" transform="matrix(0.0356359, -0.00984869, 0.00987859, 0.0357441, 0.336114, 89.669399)" fill="none" stroke-linejoin="miter" d="M 300.828676 640.413957 L 285.506476 630.837277 L 271.161425 641.856609 " stroke="#b05e5e" stroke-width="32.523998" stroke-opacity="1" stroke-miterlimit="10"/></g></g></g></g><g clip-path="url(#dc699d0e47)"><g clip-path="url(#e863ac68a6)"><g clip-path="url(#7b007b6ab4)"><g clip-path="url(#52e092093d)"><path fill="#f9c9de" d="M 119.175781 17.945312 C 119.261719 17.730469 119.402344 17.535156 119.460938 17.3125 C 119.515625 17.085938 119.558594 16.859375 119.589844 16.632812 C 119.621094 16.40625 119.585938 16.171875 119.59375 15.941406 C 119.601562 15.710938 119.617188 15.484375 119.605469 15.253906 C 119.589844 15.023438 119.527344 14.800781 119.496094 14.574219 C 119.460938 14.347656 119.441406 14.117188 119.390625 13.898438 C 119.335938 13.671875 119.292969 13.445312 119.21875 13.226562 C 119.144531 13.007812 119.035156 12.800781 118.941406 12.585938 C 118.847656 12.375 118.738281 12.171875 118.625 11.972656 C 118.511719 11.769531 118.421875 11.550781 118.292969 11.359375 C 118.160156 11.167969 118.050781 10.960938 117.902344 10.78125 C 117.753906 10.605469 117.582031 10.441406 117.417969 10.277344 C 117.253906 10.117188 117.078125 9.960938 116.898438 9.816406 C 116.71875 9.671875 116.492188 9.585938 116.296875 9.460938 C 116.105469 9.332031 115.910156 9.214844 115.707031 9.105469 C 115.5 9 115.320312 8.832031 115.105469 8.746094 C 114.890625 8.664062 114.660156 8.613281 114.433594 8.550781 C 114.210938 8.496094 113.980469 8.457031 113.75 8.429688 C 113.542969 8.402344 113.34375 8.339844 113.136719 8.320312 C 112.929688 8.300781 112.722656 8.363281 112.511719 8.367188 C 112.3125 8.371094 112.113281 8.382812 111.914062 8.402344 C 111.714844 8.425781 111.515625 8.460938 111.316406 8.492188 C 111.09375 8.53125 110.875 8.582031 110.65625 8.644531 C 110.4375 8.707031 110.195312 8.6875 109.980469 8.769531 C 109.769531 8.847656 109.582031 8.960938 109.375 9.054688 C 109.3125 8.847656 109.203125 8.671875 109.117188 8.472656 C 109.035156 8.273438 109.003906 8.046875 108.902344 7.855469 C 108.800781 7.664062 108.6875 7.472656 108.566406 7.292969 C 108.449219 7.109375 108.300781 6.945312 108.164062 6.773438 C 108.03125 6.605469 107.847656 6.476562 107.699219 6.320312 C 107.550781 6.160156 107.394531 6.007812 107.230469 5.863281 C 107.066406 5.722656 106.9375 5.527344 106.753906 5.402344 C 106.574219 5.277344 106.363281 5.195312 106.171875 5.089844 C 105.976562 4.984375 105.761719 4.925781 105.5625 4.839844 C 105.359375 4.753906 105.15625 4.679688 104.945312 4.613281 C 104.734375 4.554688 104.523438 4.484375 104.308594 4.449219 C 104.113281 4.421875 103.917969 4.414062 103.71875 4.394531 C 103.523438 4.375 103.328125 4.34375 103.132812 4.34375 C 102.941406 4.34375 102.753906 4.40625 102.5625 4.425781 C 102.375 4.445312 102.1875 4.476562 101.996094 4.503906 C 101.78125 4.535156 101.566406 4.574219 101.355469 4.628906 C 101.144531 4.6875 100.929688 4.734375 100.726562 4.808594 C 100.519531 4.886719 100.316406 4.964844 100.113281 5.054688 C 99.925781 5.132812 99.738281 5.222656 99.554688 5.324219 C 99.378906 5.425781 99.214844 5.558594 99.046875 5.675781 C 98.878906 5.796875 98.707031 5.910156 98.550781 6.042969 C 98.394531 6.179688 98.242188 6.324219 98.101562 6.472656 C 97.957031 6.621094 97.835938 6.789062 97.707031 6.949219 C 97.574219 7.109375 97.453125 7.273438 97.335938 7.445312 C 97.226562 7.621094 97.097656 7.789062 97.007812 7.972656 C 96.902344 8.179688 96.882812 8.414062 96.851562 8.632812 C 96.820312 8.855469 96.796875 9.078125 96.859375 9.304688 C 96.914062 9.511719 97 9.742188 97.140625 9.929688 C 97.28125 10.117188 97.480469 10.257812 97.675781 10.355469 C 97.875 10.460938 98.089844 10.5625 98.3125 10.597656 C 98.539062 10.632812 98.761719 10.570312 98.984375 10.5 C 99.195312 10.433594 99.421875 10.371094 99.605469 10.234375 C 99.792969 10.101562 99.972656 9.941406 100.074219 9.734375 C 100.171875 9.539062 100.257812 9.339844 100.378906 9.164062 C 100.558594 8.953125 100.777344 8.785156 100.992188 8.605469 C 101.25 8.429688 101.484375 8.210938 101.769531 8.078125 C 102.066406 7.972656 102.386719 7.96875 102.699219 7.914062 C 102.984375 7.886719 103.269531 7.792969 103.558594 7.8125 C 103.804688 7.863281 104.046875 7.929688 104.28125 8.015625 C 104.496094 8.121094 104.664062 8.300781 104.859375 8.433594 C 105.074219 8.617188 105.320312 8.765625 105.5 8.984375 C 105.675781 9.242188 105.792969 9.535156 105.925781 9.820312 C 106.03125 10.113281 106.152344 10.40625 106.207031 10.71875 C 106.230469 11 106.230469 11.285156 106.207031 11.570312 C 106.148438 11.890625 106.015625 12.191406 105.890625 12.496094 C 105.90625 12.460938 105.964844 12.449219 105.976562 12.414062 C 105.910156 12.597656 105.808594 12.765625 105.792969 12.953125 C 105.777344 13.128906 105.804688 13.320312 105.859375 13.515625 C 105.914062 13.722656 106.039062 13.9375 106.179688 14.125 C 106.320312 14.304688 106.496094 14.449219 106.703125 14.554688 C 106.902344 14.65625 107.113281 14.75 107.339844 14.785156 C 107.570312 14.820312 107.792969 14.804688 108.015625 14.734375 C 108.226562 14.664062 108.417969 14.539062 108.601562 14.402344 C 108.785156 14.269531 108.960938 14.128906 109.066406 13.921875 C 109.164062 13.71875 109.277344 13.519531 109.402344 13.328125 C 109.613281 13.078125 109.859375 12.859375 110.113281 12.648438 C 110.257812 12.546875 110.398438 12.4375 110.554688 12.347656 C 110.707031 12.261719 110.859375 12.167969 111.023438 12.09375 C 111.191406 12.035156 111.367188 11.980469 111.539062 11.933594 C 111.710938 11.886719 111.902344 11.917969 112.078125 11.886719 C 112.402344 11.851562 112.726562 11.847656 113.050781 11.875 C 113.332031 11.921875 113.621094 11.949219 113.890625 12.042969 C 114.140625 12.164062 114.375 12.308594 114.601562 12.46875 C 114.730469 12.578125 114.84375 12.695312 114.960938 12.8125 C 115.074219 12.929688 115.160156 13.066406 115.265625 13.195312 C 115.371094 13.339844 115.472656 13.480469 115.5625 13.636719 C 115.648438 13.792969 115.730469 13.949219 115.808594 14.109375 C 115.867188 14.277344 115.960938 14.433594 116.007812 14.605469 C 116.054688 14.777344 116.105469 14.953125 116.136719 15.128906 C 116.164062 15.453125 116.164062 15.773438 116.136719 16.097656 C 116.105469 16.265625 116.085938 16.441406 116.039062 16.605469 C 115.992188 16.769531 115.878906 16.914062 115.816406 17.074219 C 115.742188 17.261719 115.777344 17.511719 115.816406 17.746094 C 115.847656 17.96875 115.917969 18.179688 116.027344 18.378906 C 116.132812 18.566406 116.3125 18.71875 116.5 18.867188 C 116.6875 19.015625 116.867188 19.199219 117.082031 19.246094 C 117.296875 19.292969 117.539062 19.28125 117.761719 19.257812 C 117.988281 19.234375 118.203125 19.160156 118.398438 19.039062 C 118.515625 18.949219 118.605469 18.824219 118.726562 18.730469 C 118.949219 18.511719 119.101562 18.25 119.175781 17.945312 Z M 119.175781 17.945312 " fill-opacity="1" fill-rule="nonzero"/></g></g></g></g><g clip-path="url(#4a5a3837ce)"><g clip-path="url(#4e86ee3982)"><g clip-path="url(#c2c99b17fc)"><g clip-path="url(#9cdb351b02)"><path stroke-linecap="butt" transform="matrix(0.0273781, 0.0157661, -0.0157685, 0.0273823, 100.991878, 0.0140639)" fill="none" stroke-linejoin="miter" d="M 782.008004 204.58513 C 780.971621 197.335768 781.743788 189.758362 779.83398 182.726587 C 777.755325 175.649376 775.355231 168.757241 772.633701 162.050183 C 769.91217 155.343125 765.245755 149.470577 761.819647 143.026544 C 758.39354 136.58251 755.243425 130.122222 751.281588 123.98665 C 747.212605 117.912771 741.981274 112.793459 737.545409 107.073478 C 733.002398 101.41519 728.826269 95.403003 723.978078 90.205743 C 718.899337 84.855917 714.142035 79.321014 708.650968 74.493908 C 703.159902 69.666803 696.889627 65.716317 690.924533 61.304803 C 685.021141 57.000419 678.812568 53.157063 672.558551 49.482529 C 666.242833 45.700866 660.323183 41.12053 653.763986 37.907025 C 647.097643 34.755212 640.827368 30.804726 633.917547 28.221072 C 627.069427 25.744547 619.763537 23.959565 612.671939 22.051199 C 605.642043 20.249962 598.35241 18.740931 591.140737 17.614982 C 583.929064 16.489033 576.357165 17.710337 569.025417 17.366806 C 561.739112 16.854452 554.530767 16.72518 547.231534 16.933552 C 539.886856 17.310745 532.304973 15.542019 525.054512 16.578245 C 517.865753 17.721602 510.742024 19.968764 503.540335 21.832846 C 496.569196 23.849494 489.630572 26.418046 482.877053 29.307987 C 476.766409 31.827773 470.314742 33.260008 464.327501 35.994054 C 458.340261 38.7281 453.648756 43.711869 447.92458 47.150385 C 442.521841 50.403824 437.242506 53.871522 432.086574 57.55348 C 426.992344 61.342567 422.083219 65.453043 417.112392 69.45639 C 411.622094 74.044149 406.424046 78.891606 401.411103 84.060451 C 396.398161 89.229297 389.446607 92.518574 384.849319 98.161375 C 380.297475 103.635354 376.943821 109.703346 372.74593 115.544151 C 367.761406 110.853358 361.984745 107.75991 356.48075 103.653529 C 351.0839 99.485457 346.648035 93.765476 340.838859 90.120125 C 335.029683 86.474773 328.89907 83.014499 322.73927 79.998998 C 316.624914 76.814675 309.961899 74.659539 303.496919 72.105067 C 297.200786 69.596032 290.128773 68.960294 283.589162 67.019417 C 276.987849 64.971411 270.295648 63.261048 263.512558 61.88833 C 256.79117 60.622741 250.170271 57.302107 243.159961 56.773498 C 236.256796 56.183197 229.175183 57.264861 222.259088 57.395286 C 215.235849 57.587402 208.417299 59.373536 201.595422 60.162994 C 194.666399 61.014143 187.922481 62.186682 181.087674 63.696865 C 174.376271 65.421306 167.479763 66.824359 161.031424 69.253271 C 155.242217 71.587981 149.76152 74.458339 143.988571 77.069 C 138.322768 79.617969 132.47186 81.845549 127.114566 84.930166 C 121.864418 87.95309 117.708642 92.628397 112.767002 96.18697 C 107.932508 99.68385 103.283119 103.50212 98.464882 107.274952 C 93.065472 111.525068 87.789465 115.989443 82.867411 120.820645 C 78.007059 125.758976 72.854455 130.43761 68.455201 135.681075 C 64.010503 141.093362 59.672951 146.443956 55.520503 152.11594 C 51.611535 157.219765 47.887671 162.644979 44.456058 168.32989 C 41.238737 173.891416 38.836467 180.124902 36.080245 185.991562 C 33.385724 191.965352 30.460654 197.786574 28.272676 203.896676 C 26.1464 210.113907 24.250673 216.483705 22.738085 222.775555 C 21.118351 229.129098 20.450002 235.648135 19.443957 242.076298 C 18.330766 248.566153 17.600714 254.97806 17.101212 261.542535 C 16.877703 268.090754 15.995061 274.733176 16.430685 281.187193 C 16.807936 288.530757 19.974308 295.266997 22.572435 301.759796 C 25.232265 308.359724 28.106386 314.836268 33.399418 320.062709 C 38.16965 324.876888 44.167259 329.840305 50.986192 332.761603 C 57.805125 335.682902 65.490826 336.39326 72.390663 335.986884 C 79.521048 335.733074 87.018316 335.125366 93.680947 332.57307 C 100.450723 329.959081 105.570812 324.728543 110.567497 319.283746 C 115.304446 314.131156 120.531681 308.838926 123.407978 302.189848 C 126.453123 295.586208 128.852065 288.356045 128.367668 281.074173 C 127.961231 274.175383 127.171654 267.354539 127.716601 260.621243 C 129.31342 251.998395 132.660417 243.937049 135.715163 235.616007 C 140.010216 226.723478 142.983674 217.022678 148.707467 208.876729 C 155.184608 201.295611 163.908869 196.12971 171.616717 189.694507 C 179.006455 184.441059 185.347264 177.366407 193.584568 173.336822 C 201.136881 170.842889 208.828854 168.839168 216.615045 167.49448 C 224.174014 166.993901 231.619565 169.269094 239.074717 169.826885 C 247.86772 171.468899 256.962575 171.653208 265.34658 174.81462 C 274.240457 179.109021 282.08246 185.292974 290.229643 191.015898 C 297.750209 197.384928 305.699358 203.507189 312.135536 211.213867 C 317.220933 218.557047 321.725156 226.377511 325.586504 234.568129 C 329.038854 244.278145 330.146924 254.624666 331.530988 264.954933 C 331.404256 263.743997 332.826339 262.497223 332.592462 261.347979 C 333.670961 267.431842 333.538341 273.642418 336.071438 279.03141 C 338.419431 284.099013 342.192835 288.916519 346.777961 293.409308 C 351.548193 298.223487 358.370455 302.141462 365.189388 305.06276 C 371.884917 307.7698 378.989445 308.957441 386.334122 308.580247 C 393.402806 308.219308 400.669525 307.459033 407.439301 304.845044 C 414.316224 302.169363 420.176733 298.224381 425.173418 292.779584 C 429.848665 287.519864 433.12436 281.068791 436.000657 274.419713 C 438.938656 267.877766 441.538961 261.244943 441.16171 253.901379 C 440.631869 246.788329 440.592314 239.53564 440.997599 232.312132 C 442.834569 222.124449 446.129465 212.238571 449.762057 202.443569 C 452.122211 197.375581 454.251815 192.155027 457.118512 187.223352 C 459.939764 182.460498 462.637613 177.483386 465.965408 172.856844 C 469.647156 168.597129 473.604897 164.321158 477.578896 160.32114 C 481.552895 156.321121 487.296657 154.155233 491.624608 150.522041 C 499.962402 144.43741 508.793809 139.209816 518.118829 134.839259 C 526.573753 131.682966 534.93446 127.86764 543.808367 126.18198 C 552.578456 125.554689 561.290172 125.816946 570.034403 126.631105 C 575.297864 127.594888 580.256146 129.019699 585.321573 130.382818 C 590.279854 131.807629 594.796623 134.199935 599.725718 136.06952 C 604.901619 138.367624 609.908673 140.62029 614.841096 143.486552 C 619.666373 146.414506 624.384504 149.404152 629.057191 152.562621 C 633.317552 156.24381 638.357121 159.04838 642.357746 163.021776 C 646.358371 166.995172 650.527843 171.014005 654.161586 175.341301 C 660.032848 183.801214 665.092386 192.585845 669.463605 201.909451 C 671.259611 207.009565 673.500458 212.13886 674.806178 217.378613 C 676.111898 222.618366 675.28763 228.371241 676.103065 233.750634 C 677.028974 240.065011 681.942195 246.366077 686.715756 252.176932 C 691.089919 257.789783 696.350436 262.464321 702.497307 266.200547 C 708.351927 269.677077 715.687004 271.017285 723.174671 272.126979 C 730.662337 273.236673 738.491028 275.433919 745.124472 273.326396 C 751.757916 271.218872 758.215855 267.072558 763.952961 262.913317 C 769.797212 258.692383 774.517904 253.263841 777.962446 246.858206 C 779.757684 242.543454 780.247585 237.696381 782.088267 233.212807 C 784.740288 223.697084 784.784964 214.113397 782.008004 204.58513 Z M 782.008004 204.58513 " stroke="#b05e5e" stroke-width="32.523998" stroke-opacity="1" stroke-miterlimit="10"/></g></g></g></g><g fill="#ff9def" fill-opacity="1"><g transform="translate(28.007674, 119.644783)"><g><path d="M 4.671875 -12.09375 C 4.734375 -12.09375 4.789062 -12.09375 4.84375 -12.09375 C 4.894531 -12.09375 4.945312 -12.09375 5 -12.09375 C 5.15625 -12.101562 5.304688 -12.054688 5.453125 -11.953125 C 5.535156 -11.910156 5.613281 -11.859375 5.6875 -11.796875 C 5.757812 -11.734375 5.828125 -11.664062 5.890625 -11.59375 C 5.910156 -11.570312 5.925781 -11.546875 5.9375 -11.515625 C 5.945312 -11.492188 5.957031 -11.472656 5.96875 -11.453125 C 6.03125 -11.328125 6.078125 -11.195312 6.109375 -11.0625 C 6.148438 -10.925781 6.175781 -10.789062 6.1875 -10.65625 C 6.195312 -10.550781 6.21875 -10.445312 6.25 -10.34375 C 6.289062 -10.238281 6.320312 -10.128906 6.34375 -10.015625 C 6.382812 -9.878906 6.421875 -9.738281 6.453125 -9.59375 C 6.484375 -9.457031 6.507812 -9.320312 6.53125 -9.1875 C 6.539062 -9.164062 6.546875 -9.144531 6.546875 -9.125 C 6.535156 -9.007812 6.546875 -8.890625 6.578125 -8.765625 C 6.617188 -8.648438 6.65625 -8.546875 6.6875 -8.453125 C 6.75 -8.273438 6.800781 -8.097656 6.84375 -7.921875 C 6.894531 -7.753906 6.941406 -7.585938 6.984375 -7.421875 C 6.992188 -7.367188 7.003906 -7.316406 7.015625 -7.265625 C 7.035156 -7.222656 7.054688 -7.175781 7.078125 -7.125 C 7.109375 -6.988281 7.140625 -6.847656 7.171875 -6.703125 C 7.203125 -6.566406 7.238281 -6.429688 7.28125 -6.296875 C 7.34375 -6.046875 7.410156 -5.796875 7.484375 -5.546875 C 7.566406 -5.296875 7.640625 -5.046875 7.703125 -4.796875 C 7.796875 -4.460938 7.878906 -4.125 7.953125 -3.78125 C 8.035156 -3.4375 8.117188 -3.097656 8.203125 -2.765625 C 8.265625 -2.578125 8.320312 -2.382812 8.375 -2.1875 C 8.4375 -2 8.488281 -1.804688 8.53125 -1.609375 C 8.5625 -1.492188 8.59375 -1.378906 8.625 -1.265625 C 8.664062 -1.148438 8.695312 -1.03125 8.71875 -0.90625 C 8.726562 -0.832031 8.722656 -0.75 8.703125 -0.65625 C 8.679688 -0.570312 8.660156 -0.484375 8.640625 -0.390625 C 8.585938 -0.253906 8.503906 -0.15625 8.390625 -0.09375 C 8.285156 -0.03125 8.171875 0.015625 8.046875 0.046875 C 7.546875 0.203125 7.0625 0.207031 6.59375 0.0625 C 6.582031 0.0507812 6.566406 0.046875 6.546875 0.046875 C 6.535156 0.046875 6.53125 0.046875 6.53125 0.046875 C 6.46875 -0.00390625 6.398438 -0.0625 6.328125 -0.125 C 6.265625 -0.1875 6.203125 -0.253906 6.140625 -0.328125 C 6.066406 -0.398438 6.015625 -0.476562 5.984375 -0.5625 C 5.953125 -0.65625 5.925781 -0.75 5.90625 -0.84375 C 5.863281 -1.039062 5.757812 -1.171875 5.59375 -1.234375 C 5.570312 -1.234375 5.546875 -1.234375 5.515625 -1.234375 C 5.484375 -1.242188 5.457031 -1.25 5.4375 -1.25 C 5.195312 -1.257812 4.957031 -1.265625 4.71875 -1.265625 C 4.476562 -1.265625 4.234375 -1.273438 3.984375 -1.296875 C 3.941406 -1.296875 3.894531 -1.296875 3.84375 -1.296875 C 3.800781 -1.304688 3.753906 -1.3125 3.703125 -1.3125 C 3.546875 -1.332031 3.425781 -1.28125 3.34375 -1.15625 C 3.300781 -1.09375 3.265625 -1.023438 3.234375 -0.953125 C 3.203125 -0.890625 3.171875 -0.832031 3.140625 -0.78125 C 3.066406 -0.5 2.914062 -0.289062 2.6875 -0.15625 C 2.644531 -0.132812 2.609375 -0.109375 2.578125 -0.078125 C 2.546875 -0.0546875 2.515625 -0.0351562 2.484375 -0.015625 C 2.328125 0.0664062 2.160156 0.109375 1.984375 0.109375 C 1.796875 0.117188 1.613281 0.109375 1.4375 0.078125 C 1.269531 0.046875 1.097656 0.015625 0.921875 -0.015625 C 0.859375 -0.0351562 0.789062 -0.0625 0.71875 -0.09375 C 0.65625 -0.125 0.585938 -0.15625 0.515625 -0.1875 C 0.460938 -0.207031 0.421875 -0.25 0.390625 -0.3125 C 0.367188 -0.375 0.359375 -0.429688 0.359375 -0.484375 C 0.347656 -0.597656 0.34375 -0.707031 0.34375 -0.8125 C 0.351562 -0.925781 0.382812 -1.039062 0.4375 -1.15625 C 0.476562 -1.289062 0.519531 -1.429688 0.5625 -1.578125 C 0.613281 -1.722656 0.65625 -1.867188 0.6875 -2.015625 C 0.726562 -2.160156 0.765625 -2.304688 0.796875 -2.453125 C 0.828125 -2.597656 0.859375 -2.742188 0.890625 -2.890625 C 0.953125 -3.109375 1.003906 -3.320312 1.046875 -3.53125 C 1.097656 -3.75 1.144531 -3.96875 1.1875 -4.1875 C 1.257812 -4.445312 1.332031 -4.707031 1.40625 -4.96875 C 1.476562 -5.238281 1.546875 -5.5 1.609375 -5.75 C 1.648438 -5.90625 1.691406 -6.0625 1.734375 -6.21875 C 1.773438 -6.382812 1.8125 -6.539062 1.84375 -6.6875 C 1.882812 -6.851562 1.925781 -7.015625 1.96875 -7.171875 C 2.007812 -7.335938 2.050781 -7.492188 2.09375 -7.640625 C 2.132812 -7.753906 2.164062 -7.863281 2.1875 -7.96875 C 2.21875 -8.070312 2.25 -8.179688 2.28125 -8.296875 C 2.351562 -8.523438 2.425781 -8.753906 2.5 -8.984375 C 2.570312 -9.210938 2.640625 -9.441406 2.703125 -9.671875 C 2.734375 -9.796875 2.757812 -9.925781 2.78125 -10.0625 C 2.8125 -10.195312 2.84375 -10.335938 2.875 -10.484375 C 2.925781 -10.640625 2.972656 -10.800781 3.015625 -10.96875 C 3.066406 -11.144531 3.128906 -11.3125 3.203125 -11.46875 C 3.335938 -11.769531 3.578125 -11.957031 3.921875 -12.03125 C 3.929688 -12.03125 3.941406 -12.03125 3.953125 -12.03125 C 3.960938 -12.03125 3.972656 -12.03125 3.984375 -12.03125 C 4.097656 -12.082031 4.210938 -12.101562 4.328125 -12.09375 C 4.441406 -12.09375 4.554688 -12.09375 4.671875 -12.09375 Z M 4.78125 -4.375 C 4.789062 -4.375 4.796875 -4.375 4.796875 -4.375 C 4.804688 -4.375 4.816406 -4.375 4.828125 -4.375 C 5.117188 -4.375 5.234375 -4.507812 5.171875 -4.78125 C 5.160156 -4.84375 5.148438 -4.894531 5.140625 -4.9375 C 5.128906 -4.976562 5.113281 -5.023438 5.09375 -5.078125 C 5.0625 -5.179688 5.023438 -5.285156 4.984375 -5.390625 C 4.953125 -5.492188 4.925781 -5.59375 4.90625 -5.6875 C 4.882812 -5.820312 4.859375 -5.953125 4.828125 -6.078125 C 4.804688 -6.203125 4.785156 -6.328125 4.765625 -6.453125 C 4.753906 -6.472656 4.75 -6.488281 4.75 -6.5 C 4.75 -6.519531 4.742188 -6.535156 4.734375 -6.546875 C 4.691406 -6.617188 4.644531 -6.617188 4.59375 -6.546875 C 4.582031 -6.535156 4.570312 -6.515625 4.5625 -6.484375 C 4.5625 -6.453125 4.554688 -6.425781 4.546875 -6.40625 C 4.503906 -6.21875 4.453125 -6.023438 4.390625 -5.828125 C 4.328125 -5.640625 4.285156 -5.445312 4.265625 -5.25 C 4.265625 -5.21875 4.257812 -5.1875 4.25 -5.15625 C 4.238281 -5.125 4.226562 -5.09375 4.21875 -5.0625 C 4.207031 -5.007812 4.1875 -4.953125 4.15625 -4.890625 C 4.132812 -4.828125 4.113281 -4.769531 4.09375 -4.71875 C 4.050781 -4.539062 4.101562 -4.445312 4.25 -4.4375 C 4.34375 -4.425781 4.429688 -4.414062 4.515625 -4.40625 C 4.609375 -4.394531 4.695312 -4.382812 4.78125 -4.375 Z M 4.78125 -4.375 "/></g></g></g><g fill="#ff9def" fill-opacity="1"><g transform="translate(37.575822, 119.644783)"><g><path d="M 7.859375 -9.03125 C 7.847656 -8.78125 7.835938 -8.546875 7.828125 -8.328125 C 7.816406 -8.117188 7.785156 -7.914062 7.734375 -7.71875 C 7.710938 -7.582031 7.675781 -7.445312 7.625 -7.3125 C 7.582031 -7.1875 7.53125 -7.0625 7.46875 -6.9375 C 7.4375 -6.875 7.398438 -6.816406 7.359375 -6.765625 C 7.328125 -6.722656 7.289062 -6.675781 7.25 -6.625 C 7.132812 -6.476562 7.078125 -6.304688 7.078125 -6.109375 C 7.097656 -6.003906 7.128906 -5.9375 7.171875 -5.90625 C 7.234375 -5.84375 7.289062 -5.773438 7.34375 -5.703125 C 7.40625 -5.640625 7.457031 -5.578125 7.5 -5.515625 C 7.601562 -5.378906 7.679688 -5.238281 7.734375 -5.09375 C 7.796875 -4.945312 7.84375 -4.789062 7.875 -4.625 C 7.914062 -4.488281 7.941406 -4.351562 7.953125 -4.21875 C 7.960938 -4.082031 7.96875 -3.941406 7.96875 -3.796875 C 7.96875 -3.660156 7.96875 -3.519531 7.96875 -3.375 C 7.976562 -3.238281 7.976562 -3.097656 7.96875 -2.953125 C 7.957031 -2.773438 7.941406 -2.585938 7.921875 -2.390625 C 7.910156 -2.191406 7.878906 -2 7.828125 -1.8125 C 7.816406 -1.757812 7.804688 -1.710938 7.796875 -1.671875 C 7.785156 -1.628906 7.765625 -1.582031 7.734375 -1.53125 C 7.722656 -1.5 7.710938 -1.460938 7.703125 -1.421875 C 7.691406 -1.390625 7.679688 -1.351562 7.671875 -1.3125 C 7.648438 -1.1875 7.609375 -1.0625 7.546875 -0.9375 C 7.492188 -0.8125 7.4375 -0.6875 7.375 -0.5625 C 7.21875 -0.28125 6.988281 -0.101562 6.6875 -0.03125 C 6.53125 0.0078125 6.367188 0.0390625 6.203125 0.0625 C 6.035156 0.0820312 5.863281 0.0976562 5.6875 0.109375 C 5.59375 0.109375 5.488281 0.109375 5.375 0.109375 C 5.269531 0.117188 5.164062 0.125 5.0625 0.125 C 4.976562 0.132812 4.890625 0.132812 4.796875 0.125 C 4.710938 0.125 4.628906 0.125 4.546875 0.125 C 4.460938 0.125 4.378906 0.125 4.296875 0.125 C 4.222656 0.125 4.140625 0.117188 4.046875 0.109375 C 3.890625 0.078125 3.734375 0.0664062 3.578125 0.078125 C 3.429688 0.0859375 3.273438 0.09375 3.109375 0.09375 C 2.972656 0.101562 2.832031 0.109375 2.6875 0.109375 C 2.550781 0.109375 2.40625 0.109375 2.25 0.109375 C 2.207031 0.109375 2.160156 0.0976562 2.109375 0.078125 C 2.066406 0.0664062 2.019531 0.0546875 1.96875 0.046875 C 1.925781 0.046875 1.890625 0.0390625 1.859375 0.03125 C 1.828125 0.0195312 1.796875 0.015625 1.765625 0.015625 C 1.691406 0.00390625 1.609375 -0.015625 1.515625 -0.046875 C 1.429688 -0.078125 1.359375 -0.109375 1.296875 -0.140625 C 1.242188 -0.160156 1.195312 -0.207031 1.15625 -0.28125 C 1.070312 -0.394531 1.007812 -0.515625 0.96875 -0.640625 C 0.9375 -0.765625 0.910156 -0.894531 0.890625 -1.03125 C 0.878906 -1.101562 0.875 -1.175781 0.875 -1.25 C 0.875 -1.320312 0.867188 -1.398438 0.859375 -1.484375 C 0.835938 -2.210938 0.828125 -2.941406 0.828125 -3.671875 C 0.828125 -4.410156 0.820312 -5.148438 0.8125 -5.890625 C 0.8125 -6.066406 0.804688 -6.238281 0.796875 -6.40625 C 0.796875 -6.582031 0.796875 -6.765625 0.796875 -6.953125 C 0.785156 -7.378906 0.769531 -7.800781 0.75 -8.21875 C 0.738281 -8.644531 0.726562 -9.070312 0.71875 -9.5 C 0.707031 -9.625 0.703125 -9.753906 0.703125 -9.890625 C 0.703125 -10.023438 0.710938 -10.15625 0.734375 -10.28125 C 0.765625 -10.457031 0.78125 -10.628906 0.78125 -10.796875 C 0.789062 -10.972656 0.804688 -11.144531 0.828125 -11.3125 C 0.835938 -11.375 0.847656 -11.425781 0.859375 -11.46875 C 0.867188 -11.519531 0.882812 -11.566406 0.90625 -11.609375 C 0.945312 -11.671875 0.976562 -11.726562 1 -11.78125 C 1.03125 -11.84375 1.054688 -11.894531 1.078125 -11.9375 C 1.148438 -12.0625 1.25 -12.15625 1.375 -12.21875 C 1.570312 -12.289062 1.785156 -12.328125 2.015625 -12.328125 C 2.128906 -12.328125 2.242188 -12.328125 2.359375 -12.328125 C 2.472656 -12.328125 2.585938 -12.328125 2.703125 -12.328125 C 2.898438 -12.328125 3.09375 -12.328125 3.28125 -12.328125 C 3.46875 -12.328125 3.65625 -12.320312 3.84375 -12.3125 C 3.957031 -12.3125 4.070312 -12.304688 4.1875 -12.296875 C 4.300781 -12.285156 4.414062 -12.269531 4.53125 -12.25 C 4.6875 -12.238281 4.847656 -12.21875 5.015625 -12.1875 C 5.179688 -12.15625 5.34375 -12.128906 5.5 -12.109375 C 5.59375 -12.097656 5.679688 -12.078125 5.765625 -12.046875 C 5.859375 -12.015625 5.941406 -11.976562 6.015625 -11.9375 C 6.234375 -11.832031 6.453125 -11.722656 6.671875 -11.609375 C 6.765625 -11.566406 6.84375 -11.507812 6.90625 -11.4375 C 6.96875 -11.375 7.03125 -11.304688 7.09375 -11.234375 C 7.21875 -11.109375 7.316406 -10.96875 7.390625 -10.8125 C 7.472656 -10.65625 7.554688 -10.5 7.640625 -10.34375 C 7.691406 -10.21875 7.734375 -10.082031 7.765625 -9.9375 C 7.796875 -9.800781 7.816406 -9.660156 7.828125 -9.515625 C 7.835938 -9.421875 7.84375 -9.332031 7.84375 -9.25 C 7.851562 -9.164062 7.859375 -9.09375 7.859375 -9.03125 Z M 3.703125 -3.71875 C 3.679688 -3.382812 3.703125 -3.097656 3.765625 -2.859375 C 3.785156 -2.742188 3.820312 -2.660156 3.875 -2.609375 C 3.9375 -2.535156 4.007812 -2.476562 4.09375 -2.4375 C 4.1875 -2.394531 4.289062 -2.390625 4.40625 -2.421875 C 4.425781 -2.429688 4.453125 -2.4375 4.484375 -2.4375 C 4.523438 -2.4375 4.554688 -2.4375 4.578125 -2.4375 C 4.691406 -2.445312 4.800781 -2.46875 4.90625 -2.5 C 5.007812 -2.53125 5.117188 -2.5625 5.234375 -2.59375 C 5.398438 -2.65625 5.515625 -2.773438 5.578125 -2.953125 C 5.609375 -3.046875 5.625 -3.132812 5.625 -3.21875 C 5.632812 -3.300781 5.640625 -3.378906 5.640625 -3.453125 C 5.640625 -3.617188 5.628906 -3.785156 5.609375 -3.953125 C 5.597656 -4.117188 5.5625 -4.273438 5.5 -4.421875 C 5.46875 -4.492188 5.429688 -4.554688 5.390625 -4.609375 C 5.347656 -4.671875 5.289062 -4.722656 5.21875 -4.765625 C 5.101562 -4.816406 4.976562 -4.863281 4.84375 -4.90625 C 4.71875 -4.945312 4.585938 -4.96875 4.453125 -4.96875 C 4.304688 -4.957031 4.160156 -4.957031 4.015625 -4.96875 C 3.816406 -4.96875 3.703125 -4.867188 3.671875 -4.671875 C 3.648438 -4.617188 3.640625 -4.5625 3.640625 -4.5 C 3.640625 -4.4375 3.640625 -4.375 3.640625 -4.3125 C 3.671875 -4.0625 3.691406 -3.863281 3.703125 -3.71875 Z M 4.59375 -7.453125 C 4.644531 -7.453125 4.691406 -7.453125 4.734375 -7.453125 C 4.785156 -7.453125 4.835938 -7.453125 4.890625 -7.453125 C 4.953125 -7.460938 5.007812 -7.472656 5.0625 -7.484375 C 5.125 -7.503906 5.175781 -7.550781 5.21875 -7.625 C 5.257812 -7.695312 5.296875 -7.773438 5.328125 -7.859375 C 5.359375 -7.941406 5.363281 -8.03125 5.34375 -8.125 C 5.34375 -8.175781 5.34375 -8.234375 5.34375 -8.296875 C 5.34375 -8.359375 5.335938 -8.425781 5.328125 -8.5 C 5.316406 -8.59375 5.300781 -8.6875 5.28125 -8.78125 C 5.269531 -8.875 5.234375 -8.960938 5.171875 -9.046875 C 5.117188 -9.160156 5.046875 -9.242188 4.953125 -9.296875 C 4.796875 -9.378906 4.625 -9.4375 4.4375 -9.46875 C 4.25 -9.5 4.0625 -9.515625 3.875 -9.515625 C 3.71875 -9.523438 3.628906 -9.453125 3.609375 -9.296875 C 3.546875 -8.867188 3.53125 -8.4375 3.5625 -8 C 3.5625 -7.957031 3.566406 -7.910156 3.578125 -7.859375 C 3.597656 -7.804688 3.613281 -7.75 3.625 -7.6875 C 3.6875 -7.550781 3.785156 -7.484375 3.921875 -7.484375 C 4.035156 -7.484375 4.144531 -7.476562 4.25 -7.46875 C 4.363281 -7.46875 4.476562 -7.460938 4.59375 -7.453125 Z M 4.59375 -7.453125 "/></g></g></g><g fill="#ff9def" fill-opacity="1"><g transform="translate(46.335152, 119.644783)"><g><path d="M 8.921875 -6.6875 C 8.910156 -6.226562 8.882812 -5.785156 8.84375 -5.359375 C 8.8125 -4.929688 8.75 -4.503906 8.65625 -4.078125 C 8.613281 -3.867188 8.566406 -3.664062 8.515625 -3.46875 C 8.472656 -3.28125 8.410156 -3.085938 8.328125 -2.890625 C 8.296875 -2.804688 8.257812 -2.722656 8.21875 -2.640625 C 8.1875 -2.554688 8.15625 -2.46875 8.125 -2.375 C 8.050781 -2.226562 7.96875 -2.085938 7.875 -1.953125 C 7.78125 -1.828125 7.691406 -1.703125 7.609375 -1.578125 C 7.535156 -1.460938 7.460938 -1.351562 7.390625 -1.25 C 7.316406 -1.144531 7.234375 -1.046875 7.140625 -0.953125 C 6.992188 -0.785156 6.835938 -0.628906 6.671875 -0.484375 C 6.515625 -0.347656 6.335938 -0.234375 6.140625 -0.140625 C 5.859375 0.015625 5.566406 0.113281 5.265625 0.15625 C 5.191406 0.164062 5.117188 0.171875 5.046875 0.171875 C 4.984375 0.179688 4.914062 0.191406 4.84375 0.203125 C 4.832031 0.203125 4.816406 0.203125 4.796875 0.203125 C 4.773438 0.203125 4.753906 0.203125 4.734375 0.203125 C 4.609375 0.179688 4.476562 0.160156 4.34375 0.140625 C 4.207031 0.128906 4.078125 0.117188 3.953125 0.109375 C 3.847656 0.078125 3.738281 0.046875 3.625 0.015625 C 3.519531 -0.00390625 3.414062 -0.0390625 3.3125 -0.09375 C 3.226562 -0.125 3.140625 -0.160156 3.046875 -0.203125 C 2.953125 -0.253906 2.859375 -0.304688 2.765625 -0.359375 C 2.691406 -0.410156 2.617188 -0.46875 2.546875 -0.53125 C 2.472656 -0.59375 2.398438 -0.648438 2.328125 -0.703125 C 2.285156 -0.734375 2.253906 -0.757812 2.234375 -0.78125 C 2.078125 -0.894531 1.9375 -1.023438 1.8125 -1.171875 C 1.695312 -1.316406 1.582031 -1.472656 1.46875 -1.640625 C 1.25 -1.953125 1.085938 -2.285156 0.984375 -2.640625 C 0.878906 -2.992188 0.796875 -3.359375 0.734375 -3.734375 C 0.703125 -3.972656 0.6875 -4.21875 0.6875 -4.46875 C 0.6875 -4.71875 0.691406 -4.972656 0.703125 -5.234375 C 0.710938 -5.359375 0.710938 -5.488281 0.703125 -5.625 C 0.703125 -5.757812 0.707031 -5.890625 0.71875 -6.015625 C 0.71875 -6.234375 0.726562 -6.445312 0.75 -6.65625 C 0.78125 -6.875 0.8125 -7.085938 0.84375 -7.296875 C 0.863281 -7.398438 0.875 -7.503906 0.875 -7.609375 C 0.882812 -7.722656 0.894531 -7.832031 0.90625 -7.9375 C 0.945312 -8.164062 0.984375 -8.390625 1.015625 -8.609375 C 1.046875 -8.835938 1.097656 -9.054688 1.171875 -9.265625 C 1.285156 -9.578125 1.410156 -9.878906 1.546875 -10.171875 C 1.691406 -10.472656 1.894531 -10.738281 2.15625 -10.96875 C 2.3125 -11.132812 2.476562 -11.296875 2.65625 -11.453125 C 2.832031 -11.609375 3.03125 -11.742188 3.25 -11.859375 C 3.414062 -11.941406 3.582031 -12.015625 3.75 -12.078125 C 3.925781 -12.148438 4.101562 -12.203125 4.28125 -12.234375 C 4.457031 -12.253906 4.628906 -12.269531 4.796875 -12.28125 C 4.972656 -12.300781 5.144531 -12.300781 5.3125 -12.28125 C 5.4375 -12.269531 5.566406 -12.253906 5.703125 -12.234375 C 5.835938 -12.222656 5.96875 -12.191406 6.09375 -12.140625 C 6.257812 -12.085938 6.425781 -12.015625 6.59375 -11.921875 C 6.757812 -11.828125 6.925781 -11.734375 7.09375 -11.640625 C 7.21875 -11.578125 7.320312 -11.492188 7.40625 -11.390625 C 7.5 -11.296875 7.585938 -11.191406 7.671875 -11.078125 C 7.921875 -10.742188 8.113281 -10.363281 8.25 -9.9375 C 8.332031 -9.707031 8.40625 -9.476562 8.46875 -9.25 C 8.539062 -9.019531 8.613281 -8.789062 8.6875 -8.5625 C 8.78125 -8.257812 8.847656 -7.960938 8.890625 -7.671875 C 8.929688 -7.390625 8.941406 -7.0625 8.921875 -6.6875 Z M 6.265625 -6.265625 C 6.253906 -6.378906 6.25 -6.492188 6.25 -6.609375 C 6.25 -6.722656 6.242188 -6.835938 6.234375 -6.953125 C 6.210938 -7.210938 6.179688 -7.476562 6.140625 -7.75 C 6.097656 -8.03125 6.023438 -8.296875 5.921875 -8.546875 C 5.859375 -8.679688 5.789062 -8.816406 5.71875 -8.953125 C 5.65625 -9.097656 5.570312 -9.226562 5.46875 -9.34375 C 5.382812 -9.445312 5.296875 -9.503906 5.203125 -9.515625 C 5.128906 -9.535156 5.0625 -9.550781 5 -9.5625 C 4.9375 -9.570312 4.867188 -9.582031 4.796875 -9.59375 C 4.679688 -9.601562 4.566406 -9.597656 4.453125 -9.578125 C 4.347656 -9.566406 4.25 -9.515625 4.15625 -9.421875 C 3.875 -9.148438 3.632812 -8.84375 3.4375 -8.5 C 3.257812 -8.15625 3.128906 -7.796875 3.046875 -7.421875 C 2.960938 -7.054688 2.910156 -6.6875 2.890625 -6.3125 C 2.878906 -5.957031 2.878906 -5.601562 2.890625 -5.25 C 2.910156 -4.894531 2.957031 -4.539062 3.03125 -4.1875 C 3.050781 -4.039062 3.078125 -3.894531 3.109375 -3.75 C 3.148438 -3.613281 3.203125 -3.484375 3.265625 -3.359375 C 3.390625 -3.097656 3.5625 -2.894531 3.78125 -2.75 C 4 -2.625 4.21875 -2.523438 4.4375 -2.453125 C 4.570312 -2.410156 4.707031 -2.398438 4.84375 -2.421875 C 4.976562 -2.441406 5.101562 -2.488281 5.21875 -2.5625 C 5.34375 -2.632812 5.445312 -2.722656 5.53125 -2.828125 C 5.613281 -2.941406 5.6875 -3.0625 5.75 -3.1875 C 5.9375 -3.59375 6.066406 -4.015625 6.140625 -4.453125 C 6.179688 -4.753906 6.210938 -5.054688 6.234375 -5.359375 C 6.265625 -5.660156 6.273438 -5.960938 6.265625 -6.265625 Z M 6.265625 -6.265625 "/></g></g></g><g fill="#ff9def" fill-opacity="1"><g transform="translate(56.109809, 119.644783)"><g><path d="M 8.03125 -7.796875 C 8.03125 -7.398438 8.03125 -7.007812 8.03125 -6.625 C 8.03125 -6.25 8.023438 -5.863281 8.015625 -5.46875 C 8.015625 -5 8 -4.523438 7.96875 -4.046875 C 7.945312 -3.691406 7.910156 -3.328125 7.859375 -2.953125 C 7.804688 -2.585938 7.722656 -2.226562 7.609375 -1.875 C 7.535156 -1.644531 7.445312 -1.414062 7.34375 -1.1875 C 7.25 -0.96875 7.117188 -0.757812 6.953125 -0.5625 C 6.921875 -0.53125 6.882812 -0.492188 6.84375 -0.453125 C 6.800781 -0.421875 6.757812 -0.390625 6.71875 -0.359375 C 6.695312 -0.335938 6.675781 -0.316406 6.65625 -0.296875 C 6.632812 -0.285156 6.613281 -0.265625 6.59375 -0.234375 C 6.476562 -0.117188 6.347656 -0.03125 6.203125 0.03125 C 6.066406 0.101562 5.921875 0.164062 5.765625 0.21875 C 5.691406 0.226562 5.617188 0.242188 5.546875 0.265625 C 5.472656 0.296875 5.394531 0.320312 5.3125 0.34375 C 5.175781 0.375 5.039062 0.394531 4.90625 0.40625 C 4.769531 0.425781 4.625 0.441406 4.46875 0.453125 C 4.332031 0.453125 4.195312 0.4375 4.0625 0.40625 C 3.925781 0.382812 3.796875 0.351562 3.671875 0.3125 C 3.566406 0.257812 3.457031 0.21875 3.34375 0.1875 C 3.226562 0.15625 3.117188 0.125 3.015625 0.09375 C 2.847656 0.03125 2.691406 -0.046875 2.546875 -0.140625 C 2.398438 -0.234375 2.265625 -0.332031 2.140625 -0.4375 C 2.035156 -0.519531 1.941406 -0.613281 1.859375 -0.71875 C 1.785156 -0.832031 1.722656 -0.945312 1.671875 -1.0625 C 1.628906 -1.144531 1.59375 -1.222656 1.5625 -1.296875 C 1.53125 -1.378906 1.488281 -1.460938 1.4375 -1.546875 C 1.375 -1.671875 1.316406 -1.804688 1.265625 -1.953125 C 1.222656 -2.097656 1.179688 -2.238281 1.140625 -2.375 C 1.085938 -2.539062 1.039062 -2.707031 1 -2.875 C 0.96875 -3.050781 0.9375 -3.234375 0.90625 -3.421875 C 0.894531 -3.515625 0.882812 -3.613281 0.875 -3.71875 C 0.863281 -3.820312 0.851562 -3.921875 0.84375 -4.015625 C 0.832031 -4.109375 0.820312 -4.207031 0.8125 -4.3125 C 0.8125 -4.414062 0.804688 -4.519531 0.796875 -4.625 C 0.753906 -4.914062 0.722656 -5.207031 0.703125 -5.5 C 0.691406 -5.789062 0.691406 -6.078125 0.703125 -6.359375 C 0.722656 -6.867188 0.738281 -7.375 0.75 -7.875 C 0.769531 -8.375 0.785156 -8.875 0.796875 -9.375 C 0.796875 -9.488281 0.796875 -9.597656 0.796875 -9.703125 C 0.804688 -9.816406 0.8125 -9.929688 0.8125 -10.046875 C 0.8125 -10.097656 0.820312 -10.160156 0.84375 -10.234375 C 0.875 -10.398438 0.90625 -10.554688 0.9375 -10.703125 C 0.976562 -10.859375 1.019531 -11.015625 1.0625 -11.171875 C 1.113281 -11.453125 1.28125 -11.664062 1.5625 -11.8125 C 1.726562 -11.90625 1.910156 -11.9375 2.109375 -11.90625 C 2.316406 -11.882812 2.476562 -11.8125 2.59375 -11.6875 C 2.65625 -11.632812 2.695312 -11.578125 2.71875 -11.515625 C 2.75 -11.453125 2.773438 -11.394531 2.796875 -11.34375 C 2.859375 -11.195312 2.894531 -11.050781 2.90625 -10.90625 C 2.925781 -10.757812 2.9375 -10.601562 2.9375 -10.4375 C 2.957031 -10.132812 2.957031 -9.828125 2.9375 -9.515625 C 2.914062 -9.203125 2.898438 -8.890625 2.890625 -8.578125 C 2.890625 -8.535156 2.890625 -8.488281 2.890625 -8.4375 C 2.890625 -8.394531 2.890625 -8.347656 2.890625 -8.296875 C 2.890625 -8.203125 2.882812 -8.101562 2.875 -8 C 2.875 -7.90625 2.867188 -7.8125 2.859375 -7.71875 C 2.859375 -7.65625 2.851562 -7.585938 2.84375 -7.515625 C 2.84375 -7.453125 2.84375 -7.382812 2.84375 -7.3125 C 2.84375 -7 2.835938 -6.6875 2.828125 -6.375 C 2.828125 -6.070312 2.832031 -5.765625 2.84375 -5.453125 C 2.84375 -4.953125 2.859375 -4.445312 2.890625 -3.9375 C 2.910156 -3.5625 2.984375 -3.207031 3.109375 -2.875 C 3.179688 -2.695312 3.269531 -2.535156 3.375 -2.390625 C 3.488281 -2.242188 3.617188 -2.109375 3.765625 -1.984375 C 3.785156 -1.972656 3.8125 -1.957031 3.84375 -1.9375 C 3.875 -1.925781 3.898438 -1.914062 3.921875 -1.90625 C 4.171875 -1.84375 4.410156 -1.847656 4.640625 -1.921875 C 4.796875 -1.984375 4.910156 -2.078125 4.984375 -2.203125 C 5.148438 -2.421875 5.28125 -2.691406 5.375 -3.015625 C 5.46875 -3.316406 5.539062 -3.625 5.59375 -3.9375 C 5.644531 -4.257812 5.675781 -4.582031 5.6875 -4.90625 C 5.71875 -5.414062 5.738281 -5.925781 5.75 -6.4375 C 5.769531 -6.945312 5.789062 -7.460938 5.8125 -7.984375 C 5.832031 -8.273438 5.859375 -8.570312 5.890625 -8.875 C 5.921875 -9.175781 5.945312 -9.472656 5.96875 -9.765625 C 5.976562 -9.921875 5.988281 -10.066406 6 -10.203125 C 6.007812 -10.347656 6.019531 -10.5 6.03125 -10.65625 C 6.070312 -11.039062 6.21875 -11.40625 6.46875 -11.75 C 6.507812 -11.789062 6.546875 -11.8125 6.578125 -11.8125 C 6.660156 -11.84375 6.742188 -11.867188 6.828125 -11.890625 C 6.921875 -11.921875 7.015625 -11.941406 7.109375 -11.953125 C 7.171875 -11.960938 7.238281 -11.957031 7.3125 -11.9375 C 7.394531 -11.925781 7.472656 -11.910156 7.546875 -11.890625 C 7.617188 -11.878906 7.679688 -11.847656 7.734375 -11.796875 C 7.785156 -11.753906 7.832031 -11.703125 7.875 -11.640625 C 7.9375 -11.523438 7.984375 -11.410156 8.015625 -11.296875 C 8.054688 -11.191406 8.070312 -11.078125 8.0625 -10.953125 C 8.050781 -10.816406 8.046875 -10.679688 8.046875 -10.546875 C 8.046875 -10.421875 8.046875 -10.289062 8.046875 -10.15625 C 8.046875 -9.757812 8.046875 -9.363281 8.046875 -8.96875 C 8.046875 -8.582031 8.046875 -8.191406 8.046875 -7.796875 C 8.046875 -7.796875 8.039062 -7.796875 8.03125 -7.796875 Z M 8.03125 -7.796875 "/></g></g></g><g fill="#ff9def" fill-opacity="1"><g transform="translate(64.9896, 119.644783)"><g><path d="M 2.515625 -4.9375 C 2.515625 -5.269531 2.515625 -5.601562 2.515625 -5.9375 C 2.515625 -6.28125 2.507812 -6.617188 2.5 -6.953125 C 2.488281 -7.179688 2.476562 -7.40625 2.46875 -7.625 C 2.457031 -7.84375 2.445312 -8.0625 2.4375 -8.28125 C 2.4375 -8.40625 2.429688 -8.523438 2.421875 -8.640625 C 2.421875 -8.765625 2.421875 -8.882812 2.421875 -9 C 2.398438 -9.132812 2.351562 -9.257812 2.28125 -9.375 C 2.207031 -9.488281 2.09375 -9.550781 1.9375 -9.5625 C 1.78125 -9.5625 1.617188 -9.5625 1.453125 -9.5625 C 1.285156 -9.570312 1.117188 -9.578125 0.953125 -9.578125 C 0.835938 -9.585938 0.726562 -9.632812 0.625 -9.71875 C 0.519531 -9.800781 0.445312 -9.898438 0.40625 -10.015625 C 0.34375 -10.285156 0.335938 -10.585938 0.390625 -10.921875 C 0.421875 -10.984375 0.441406 -11.046875 0.453125 -11.109375 C 0.460938 -11.171875 0.472656 -11.226562 0.484375 -11.28125 C 0.515625 -11.445312 0.585938 -11.570312 0.703125 -11.65625 C 0.816406 -11.75 0.945312 -11.820312 1.09375 -11.875 C 1.125 -11.882812 1.164062 -11.890625 1.21875 -11.890625 C 1.414062 -11.890625 1.609375 -11.882812 1.796875 -11.875 C 1.992188 -11.875 2.191406 -11.875 2.390625 -11.875 C 2.773438 -11.875 3.160156 -11.875 3.546875 -11.875 C 3.929688 -11.875 4.320312 -11.867188 4.71875 -11.859375 C 4.945312 -11.859375 5.171875 -11.847656 5.390625 -11.828125 C 5.617188 -11.816406 5.84375 -11.804688 6.0625 -11.796875 C 6.125 -11.796875 6.191406 -11.78125 6.265625 -11.75 C 6.410156 -11.6875 6.53125 -11.625 6.625 -11.5625 C 6.65625 -11.539062 6.6875 -11.507812 6.71875 -11.46875 C 6.75 -11.425781 6.773438 -11.382812 6.796875 -11.34375 C 6.898438 -11.144531 6.941406 -10.925781 6.921875 -10.6875 C 6.921875 -10.632812 6.921875 -10.582031 6.921875 -10.53125 C 6.921875 -10.476562 6.921875 -10.425781 6.921875 -10.375 C 6.929688 -10.257812 6.910156 -10.148438 6.859375 -10.046875 C 6.816406 -9.953125 6.753906 -9.863281 6.671875 -9.78125 C 6.628906 -9.726562 6.5625 -9.691406 6.46875 -9.671875 C 6.351562 -9.660156 6.234375 -9.644531 6.109375 -9.625 C 5.984375 -9.601562 5.859375 -9.582031 5.734375 -9.5625 C 5.648438 -9.550781 5.566406 -9.546875 5.484375 -9.546875 C 5.410156 -9.546875 5.332031 -9.539062 5.25 -9.53125 C 5.125 -9.53125 5.019531 -9.460938 4.9375 -9.328125 C 4.914062 -9.285156 4.894531 -9.222656 4.875 -9.140625 C 4.851562 -9.054688 4.835938 -8.972656 4.828125 -8.890625 C 4.816406 -8.816406 4.804688 -8.734375 4.796875 -8.640625 C 4.785156 -8.523438 4.773438 -8.410156 4.765625 -8.296875 C 4.753906 -8.191406 4.742188 -8.085938 4.734375 -7.984375 C 4.734375 -7.929688 4.726562 -7.894531 4.71875 -7.875 C 4.707031 -7.289062 4.695312 -6.703125 4.6875 -6.109375 C 4.675781 -5.523438 4.664062 -4.929688 4.65625 -4.328125 C 4.644531 -3.816406 4.640625 -3.300781 4.640625 -2.78125 C 4.640625 -2.257812 4.632812 -1.738281 4.625 -1.21875 C 4.625 -0.863281 4.546875 -0.515625 4.390625 -0.171875 C 4.273438 0.078125 4.066406 0.222656 3.765625 0.265625 C 3.679688 0.273438 3.59375 0.273438 3.5 0.265625 C 3.414062 0.265625 3.328125 0.265625 3.234375 0.265625 C 3.085938 0.265625 2.953125 0.179688 2.828125 0.015625 C 2.660156 -0.148438 2.5625 -0.375 2.53125 -0.65625 C 2.519531 -0.8125 2.507812 -0.972656 2.5 -1.140625 C 2.488281 -1.304688 2.484375 -1.476562 2.484375 -1.65625 C 2.484375 -2.164062 2.484375 -2.679688 2.484375 -3.203125 C 2.484375 -3.722656 2.488281 -4.25 2.5 -4.78125 C 2.5 -4.800781 2.5 -4.828125 2.5 -4.859375 C 2.5 -4.890625 2.5 -4.914062 2.5 -4.9375 C 2.507812 -4.9375 2.515625 -4.9375 2.515625 -4.9375 Z M 2.515625 -4.9375 "/></g></g></g><g fill="#ff9def" fill-opacity="1"><g transform="translate(72.355009, 119.644783)"><g/></g></g><g fill="#ff9def" fill-opacity="1"><g transform="translate(75.796791, 119.644783)"><g><path d="M 0.75 -6.203125 C 0.75 -6.847656 0.742188 -7.5 0.734375 -8.15625 C 0.734375 -8.8125 0.738281 -9.460938 0.75 -10.109375 C 0.75 -10.265625 0.75 -10.410156 0.75 -10.546875 C 0.75 -10.691406 0.757812 -10.832031 0.78125 -10.96875 C 0.8125 -11.257812 0.894531 -11.523438 1.03125 -11.765625 C 1.101562 -11.890625 1.191406 -11.992188 1.296875 -12.078125 C 1.453125 -12.234375 1.632812 -12.3125 1.84375 -12.3125 C 1.96875 -12.300781 2.09375 -12.289062 2.21875 -12.28125 C 2.34375 -12.28125 2.46875 -12.269531 2.59375 -12.25 C 2.863281 -12.238281 3.070312 -12.113281 3.21875 -11.875 C 3.3125 -11.757812 3.394531 -11.632812 3.46875 -11.5 C 3.539062 -11.375 3.597656 -11.242188 3.640625 -11.109375 C 3.722656 -10.929688 3.804688 -10.75 3.890625 -10.5625 C 3.984375 -10.382812 4.066406 -10.203125 4.140625 -10.015625 C 4.296875 -9.710938 4.441406 -9.410156 4.578125 -9.109375 C 4.722656 -8.804688 4.867188 -8.5 5.015625 -8.1875 C 5.046875 -8.144531 5.066406 -8.117188 5.078125 -8.109375 C 5.160156 -8.023438 5.234375 -8.015625 5.296875 -8.078125 C 5.316406 -8.109375 5.335938 -8.132812 5.359375 -8.15625 C 5.390625 -8.175781 5.410156 -8.195312 5.421875 -8.21875 C 5.515625 -8.382812 5.601562 -8.550781 5.6875 -8.71875 C 5.769531 -8.882812 5.851562 -9.050781 5.9375 -9.21875 C 5.957031 -9.28125 5.984375 -9.34375 6.015625 -9.40625 C 6.046875 -9.46875 6.070312 -9.523438 6.09375 -9.578125 C 6.207031 -9.847656 6.316406 -10.109375 6.421875 -10.359375 C 6.535156 -10.617188 6.648438 -10.875 6.765625 -11.125 C 6.828125 -11.289062 6.914062 -11.4375 7.03125 -11.5625 C 7.15625 -11.695312 7.296875 -11.816406 7.453125 -11.921875 C 7.597656 -12.035156 7.75 -12.113281 7.90625 -12.15625 C 8.070312 -12.195312 8.242188 -12.21875 8.421875 -12.21875 C 8.484375 -12.207031 8.539062 -12.203125 8.59375 -12.203125 C 8.644531 -12.210938 8.691406 -12.210938 8.734375 -12.203125 C 8.828125 -12.203125 8.890625 -12.195312 8.921875 -12.1875 C 9.066406 -12.144531 9.171875 -12.070312 9.234375 -11.96875 C 9.304688 -11.875 9.363281 -11.769531 9.40625 -11.65625 C 9.519531 -11.351562 9.570312 -11.039062 9.5625 -10.71875 C 9.5625 -10.382812 9.570312 -10.046875 9.59375 -9.703125 C 9.625 -9.367188 9.648438 -9.035156 9.671875 -8.703125 C 9.691406 -8.515625 9.703125 -8.332031 9.703125 -8.15625 C 9.703125 -7.976562 9.707031 -7.800781 9.71875 -7.625 C 9.71875 -7.3125 9.71875 -7 9.71875 -6.6875 C 9.726562 -6.382812 9.738281 -6.070312 9.75 -5.75 C 9.757812 -5.425781 9.773438 -5.097656 9.796875 -4.765625 C 9.816406 -4.429688 9.832031 -4.097656 9.84375 -3.765625 C 9.851562 -3.535156 9.863281 -3.300781 9.875 -3.0625 C 9.882812 -2.832031 9.878906 -2.601562 9.859375 -2.375 C 9.847656 -2.195312 9.84375 -2.019531 9.84375 -1.84375 C 9.851562 -1.675781 9.859375 -1.507812 9.859375 -1.34375 C 9.878906 -0.96875 9.835938 -0.617188 9.734375 -0.296875 C 9.703125 -0.171875 9.644531 -0.0664062 9.5625 0.015625 C 9.476562 0.109375 9.363281 0.160156 9.21875 0.171875 C 9.175781 0.179688 9.128906 0.1875 9.078125 0.1875 C 9.023438 0.195312 8.96875 0.203125 8.90625 0.203125 C 8.800781 0.210938 8.691406 0.21875 8.578125 0.21875 C 8.472656 0.226562 8.363281 0.226562 8.25 0.21875 C 8.207031 0.21875 8.160156 0.21875 8.109375 0.21875 C 8.066406 0.21875 8.019531 0.210938 7.96875 0.203125 C 7.789062 0.148438 7.671875 0.0390625 7.609375 -0.125 C 7.535156 -0.3125 7.472656 -0.503906 7.421875 -0.703125 C 7.378906 -0.898438 7.359375 -1.109375 7.359375 -1.328125 C 7.347656 -1.585938 7.34375 -1.851562 7.34375 -2.125 C 7.34375 -2.394531 7.335938 -2.664062 7.328125 -2.9375 C 7.316406 -3.113281 7.304688 -3.285156 7.296875 -3.453125 C 7.296875 -3.628906 7.289062 -3.800781 7.28125 -3.96875 C 7.269531 -4.164062 7.265625 -4.359375 7.265625 -4.546875 C 7.265625 -4.742188 7.257812 -4.941406 7.25 -5.140625 C 7.25 -5.160156 7.25 -5.1875 7.25 -5.21875 C 7.25 -5.257812 7.238281 -5.289062 7.21875 -5.3125 C 7.164062 -5.476562 7.082031 -5.503906 6.96875 -5.390625 C 6.9375 -5.347656 6.90625 -5.3125 6.875 -5.28125 C 6.84375 -5.25 6.816406 -5.210938 6.796875 -5.171875 C 6.722656 -5.054688 6.65625 -4.941406 6.59375 -4.828125 C 6.539062 -4.722656 6.488281 -4.625 6.4375 -4.53125 C 6.28125 -4.25 6.117188 -3.960938 5.953125 -3.671875 C 5.828125 -3.453125 5.644531 -3.320312 5.40625 -3.28125 C 5.3125 -3.269531 5.21875 -3.269531 5.125 -3.28125 C 5.039062 -3.300781 4.960938 -3.335938 4.890625 -3.390625 C 4.847656 -3.410156 4.804688 -3.429688 4.765625 -3.453125 C 4.648438 -3.546875 4.5625 -3.644531 4.5 -3.75 C 4.457031 -3.875 4.40625 -4 4.34375 -4.125 C 4.28125 -4.257812 4.21875 -4.398438 4.15625 -4.546875 C 4.09375 -4.703125 4.023438 -4.859375 3.953125 -5.015625 C 3.890625 -5.171875 3.828125 -5.320312 3.765625 -5.46875 C 3.734375 -5.539062 3.679688 -5.59375 3.609375 -5.625 C 3.535156 -5.632812 3.476562 -5.609375 3.4375 -5.546875 C 3.425781 -5.472656 3.414062 -5.40625 3.40625 -5.34375 C 3.394531 -5.28125 3.382812 -5.210938 3.375 -5.140625 C 3.375 -4.921875 3.367188 -4.707031 3.359375 -4.5 C 3.359375 -4.300781 3.359375 -4.097656 3.359375 -3.890625 C 3.359375 -3.429688 3.359375 -2.972656 3.359375 -2.515625 C 3.359375 -2.054688 3.351562 -1.597656 3.34375 -1.140625 C 3.34375 -1.066406 3.335938 -0.992188 3.328125 -0.921875 C 3.316406 -0.847656 3.3125 -0.773438 3.3125 -0.703125 C 3.300781 -0.472656 3.222656 -0.257812 3.078125 -0.0625 C 3.023438 0.0195312 2.945312 0.078125 2.84375 0.109375 C 2.75 0.148438 2.644531 0.171875 2.53125 0.171875 C 2.4375 0.179688 2.335938 0.1875 2.234375 0.1875 C 2.140625 0.195312 2.050781 0.195312 1.96875 0.1875 C 1.863281 0.1875 1.757812 0.179688 1.65625 0.171875 C 1.5625 0.160156 1.46875 0.132812 1.375 0.09375 C 1.257812 0.03125 1.171875 -0.046875 1.109375 -0.140625 C 1.046875 -0.234375 0.984375 -0.332031 0.921875 -0.4375 C 0.847656 -0.613281 0.789062 -0.796875 0.75 -0.984375 C 0.707031 -1.171875 0.6875 -1.363281 0.6875 -1.5625 C 0.695312 -1.988281 0.703125 -2.40625 0.703125 -2.8125 C 0.710938 -3.226562 0.722656 -3.644531 0.734375 -4.0625 C 0.742188 -4.425781 0.75 -4.785156 0.75 -5.140625 C 0.75 -5.492188 0.757812 -5.847656 0.78125 -6.203125 C 0.757812 -6.203125 0.75 -6.203125 0.75 -6.203125 Z M 0.75 -6.203125 "/></g></g></g><g fill="#ff9def" fill-opacity="1"><g transform="translate(86.621187, 119.644783)"><g><path d="M 5.265625 -2.15625 C 5.566406 -2.175781 5.863281 -2.1875 6.15625 -2.1875 C 6.457031 -2.195312 6.75 -2.207031 7.03125 -2.21875 C 7.34375 -2.238281 7.5625 -2.109375 7.6875 -1.828125 C 7.78125 -1.609375 7.832031 -1.390625 7.84375 -1.171875 C 7.863281 -0.960938 7.859375 -0.742188 7.828125 -0.515625 C 7.816406 -0.441406 7.796875 -0.367188 7.765625 -0.296875 C 7.734375 -0.234375 7.707031 -0.171875 7.6875 -0.109375 C 7.625 0.0234375 7.515625 0.101562 7.359375 0.125 C 7.242188 0.132812 7.128906 0.140625 7.015625 0.140625 C 6.898438 0.140625 6.78125 0.140625 6.65625 0.140625 C 6.582031 0.140625 6.507812 0.132812 6.4375 0.125 C 6.375 0.125 6.304688 0.125 6.234375 0.125 C 6.046875 0.132812 5.851562 0.140625 5.65625 0.140625 C 5.46875 0.148438 5.273438 0.15625 5.078125 0.15625 C 4.941406 0.164062 4.804688 0.164062 4.671875 0.15625 C 4.535156 0.144531 4.40625 0.144531 4.28125 0.15625 C 3.96875 0.164062 3.660156 0.171875 3.359375 0.171875 C 3.054688 0.179688 2.753906 0.191406 2.453125 0.203125 C 2.273438 0.203125 2.097656 0.195312 1.921875 0.1875 C 1.742188 0.1875 1.5625 0.179688 1.375 0.171875 C 1.363281 0.171875 1.351562 0.171875 1.34375 0.171875 C 1.332031 0.171875 1.320312 0.171875 1.3125 0.171875 C 1.238281 0.117188 1.164062 0.0664062 1.09375 0.015625 C 1.03125 -0.0234375 0.96875 -0.0703125 0.90625 -0.125 C 0.882812 -0.15625 0.863281 -0.191406 0.84375 -0.234375 C 0.800781 -0.390625 0.765625 -0.539062 0.734375 -0.6875 C 0.710938 -0.832031 0.707031 -0.988281 0.71875 -1.15625 C 0.738281 -1.414062 0.753906 -1.664062 0.765625 -1.90625 C 0.785156 -2.15625 0.800781 -2.410156 0.8125 -2.671875 C 0.832031 -3.003906 0.847656 -3.335938 0.859375 -3.671875 C 0.867188 -4.015625 0.878906 -4.347656 0.890625 -4.671875 C 0.898438 -4.804688 0.90625 -4.941406 0.90625 -5.078125 C 0.90625 -5.210938 0.910156 -5.34375 0.921875 -5.46875 C 0.953125 -5.75 0.957031 -6.023438 0.9375 -6.296875 C 0.925781 -6.566406 0.914062 -6.835938 0.90625 -7.109375 C 0.90625 -7.128906 0.90625 -7.148438 0.90625 -7.171875 C 0.90625 -7.203125 0.90625 -7.226562 0.90625 -7.25 C 0.894531 -7.707031 0.882812 -8.15625 0.875 -8.59375 C 0.863281 -9.039062 0.851562 -9.492188 0.84375 -9.953125 C 0.84375 -10.085938 0.847656 -10.21875 0.859375 -10.34375 C 0.878906 -10.476562 0.894531 -10.613281 0.90625 -10.75 C 0.90625 -10.8125 0.914062 -10.867188 0.9375 -10.921875 C 0.957031 -10.984375 0.972656 -11.039062 0.984375 -11.09375 C 1.023438 -11.21875 1.066406 -11.347656 1.109375 -11.484375 C 1.148438 -11.617188 1.203125 -11.742188 1.265625 -11.859375 C 1.335938 -11.984375 1.441406 -12.066406 1.578125 -12.109375 C 1.671875 -12.128906 1.765625 -12.148438 1.859375 -12.171875 C 1.960938 -12.191406 2.0625 -12.195312 2.15625 -12.1875 C 2.300781 -12.164062 2.441406 -12.15625 2.578125 -12.15625 C 2.722656 -12.15625 2.875 -12.148438 3.03125 -12.140625 C 3.21875 -12.128906 3.40625 -12.117188 3.59375 -12.109375 C 3.789062 -12.109375 3.976562 -12.097656 4.15625 -12.078125 C 4.425781 -12.066406 4.695312 -12.0625 4.96875 -12.0625 C 5.238281 -12.0625 5.503906 -12.066406 5.765625 -12.078125 C 5.921875 -12.097656 6.078125 -12.109375 6.234375 -12.109375 C 6.390625 -12.109375 6.539062 -12.109375 6.6875 -12.109375 C 6.757812 -12.109375 6.828125 -12.097656 6.890625 -12.078125 C 6.960938 -12.066406 7.035156 -12.050781 7.109375 -12.03125 C 7.179688 -12.007812 7.257812 -11.976562 7.34375 -11.9375 C 7.53125 -11.851562 7.640625 -11.703125 7.671875 -11.484375 C 7.773438 -11.023438 7.785156 -10.582031 7.703125 -10.15625 C 7.691406 -10.050781 7.640625 -9.953125 7.546875 -9.859375 C 7.472656 -9.785156 7.390625 -9.71875 7.296875 -9.65625 C 7.210938 -9.601562 7.117188 -9.5625 7.015625 -9.53125 C 6.941406 -9.507812 6.863281 -9.5 6.78125 -9.5 C 6.695312 -9.5 6.609375 -9.492188 6.515625 -9.484375 C 6.492188 -9.484375 6.472656 -9.484375 6.453125 -9.484375 C 6.429688 -9.484375 6.40625 -9.484375 6.375 -9.484375 C 6.21875 -9.429688 6.050781 -9.40625 5.875 -9.40625 C 5.707031 -9.414062 5.539062 -9.421875 5.375 -9.421875 C 5.257812 -9.421875 5.144531 -9.414062 5.03125 -9.40625 C 4.925781 -9.40625 4.816406 -9.394531 4.703125 -9.375 C 4.660156 -9.363281 4.617188 -9.359375 4.578125 -9.359375 C 4.546875 -9.359375 4.503906 -9.351562 4.453125 -9.34375 C 4.390625 -9.332031 4.316406 -9.320312 4.234375 -9.3125 C 4.160156 -9.300781 4.09375 -9.28125 4.03125 -9.25 C 3.832031 -9.21875 3.734375 -9.101562 3.734375 -8.90625 C 3.722656 -8.789062 3.71875 -8.675781 3.71875 -8.5625 C 3.71875 -8.457031 3.71875 -8.347656 3.71875 -8.234375 C 3.71875 -8.210938 3.71875 -8.1875 3.71875 -8.15625 C 3.71875 -8.132812 3.71875 -8.109375 3.71875 -8.078125 C 3.75 -7.898438 3.835938 -7.785156 3.984375 -7.734375 C 4.023438 -7.722656 4.082031 -7.71875 4.15625 -7.71875 C 4.25 -7.71875 4.347656 -7.71875 4.453125 -7.71875 C 4.554688 -7.726562 4.65625 -7.734375 4.75 -7.734375 C 4.78125 -7.734375 4.8125 -7.734375 4.84375 -7.734375 C 4.882812 -7.734375 4.921875 -7.734375 4.953125 -7.734375 C 5.140625 -7.722656 5.320312 -7.71875 5.5 -7.71875 C 5.675781 -7.726562 5.847656 -7.726562 6.015625 -7.71875 C 6.191406 -7.71875 6.335938 -7.664062 6.453125 -7.5625 C 6.578125 -7.46875 6.65625 -7.335938 6.6875 -7.171875 C 6.707031 -7.117188 6.722656 -7.0625 6.734375 -7 C 6.742188 -6.9375 6.753906 -6.875 6.765625 -6.8125 C 6.785156 -6.738281 6.796875 -6.671875 6.796875 -6.609375 C 6.796875 -6.546875 6.796875 -6.484375 6.796875 -6.421875 C 6.796875 -6.148438 6.691406 -5.9375 6.484375 -5.78125 C 6.328125 -5.65625 6.15625 -5.59375 5.96875 -5.59375 C 5.882812 -5.59375 5.804688 -5.585938 5.734375 -5.578125 C 5.660156 -5.566406 5.582031 -5.5625 5.5 -5.5625 C 5.476562 -5.550781 5.445312 -5.546875 5.40625 -5.546875 C 5.25 -5.523438 5.097656 -5.507812 4.953125 -5.5 C 4.816406 -5.488281 4.679688 -5.476562 4.546875 -5.46875 C 4.453125 -5.457031 4.359375 -5.445312 4.265625 -5.4375 C 4.171875 -5.425781 4.078125 -5.414062 3.984375 -5.40625 C 3.859375 -5.394531 3.78125 -5.3125 3.75 -5.15625 C 3.71875 -5.007812 3.703125 -4.863281 3.703125 -4.71875 C 3.703125 -4.570312 3.695312 -4.425781 3.6875 -4.28125 C 3.65625 -4.0625 3.632812 -3.847656 3.625 -3.640625 C 3.625 -3.441406 3.628906 -3.234375 3.640625 -3.015625 C 3.640625 -2.941406 3.644531 -2.867188 3.65625 -2.796875 C 3.675781 -2.722656 3.691406 -2.648438 3.703125 -2.578125 C 3.710938 -2.460938 3.753906 -2.375 3.828125 -2.3125 C 3.898438 -2.257812 3.988281 -2.222656 4.09375 -2.203125 C 4.1875 -2.191406 4.273438 -2.1875 4.359375 -2.1875 C 4.441406 -2.1875 4.523438 -2.179688 4.609375 -2.171875 C 4.722656 -2.171875 4.832031 -2.171875 4.9375 -2.171875 C 5.039062 -2.171875 5.148438 -2.171875 5.265625 -2.171875 C 5.265625 -2.171875 5.265625 -2.164062 5.265625 -2.15625 Z M 5.265625 -2.15625 "/></g></g></g></svg>