<svg xmlns="http://www.w3.org/2000/svg" xmlns:xlink="http://www.w3.org/1999/xlink" width="40" zoomAndPan="magnify" viewBox="0 0 30 30.000001" height="40" preserveAspectRatio="xMidYMid meet" version="1.0"><defs><clipPath id="56eedd4f65"><path d="M 3.386719 6.007812 L 26.613281 6.007812 L 26.613281 22.703125 L 3.386719 22.703125 Z M 3.386719 6.007812 " clip-rule="nonzero"/></clipPath></defs><g clip-path="url(#56eedd4f65)"><path fill="#5e6a81" d="M 24.277344 6.007812 L 5.722656 6.007812 C 5.414062 6.007812 5.117188 6.070312 4.832031 6.1875 C 4.550781 6.304688 4.296875 6.472656 4.082031 6.6875 C 3.863281 6.90625 3.695312 7.15625 3.578125 7.441406 C 3.460938 7.726562 3.402344 8.023438 3.402344 8.328125 L 3.402344 20.699219 C 3.402344 21.007812 3.460938 21.304688 3.578125 21.589844 C 3.695312 21.871094 3.863281 22.125 4.082031 22.339844 C 4.296875 22.558594 4.550781 22.726562 4.832031 22.84375 C 5.117188 22.960938 5.414062 23.019531 5.722656 23.019531 L 24.277344 23.019531 C 24.585938 23.019531 24.882812 22.960938 25.167969 22.84375 C 25.449219 22.726562 25.703125 22.558594 25.917969 22.339844 C 26.136719 22.125 26.304688 21.871094 26.421875 21.589844 C 26.539062 21.304688 26.597656 21.007812 26.597656 20.699219 L 26.597656 8.328125 C 26.597656 8.023438 26.539062 7.726562 26.421875 7.441406 C 26.304688 7.15625 26.136719 6.90625 25.917969 6.6875 C 25.703125 6.472656 25.449219 6.304688 25.167969 6.1875 C 24.882812 6.070312 24.585938 6.007812 24.277344 6.007812 Z M 4.949219 8.464844 L 11.367188 13.964844 L 4.949219 20.382812 Z M 15.503906 14.613281 C 15.359375 14.738281 15.191406 14.800781 15 14.800781 C 14.808594 14.800781 14.640625 14.738281 14.496094 14.613281 L 6.261719 7.554688 L 23.738281 7.554688 Z M 12.542969 14.972656 L 13.488281 15.785156 C 13.703125 15.960938 13.9375 16.09375 14.199219 16.1875 C 14.457031 16.277344 14.722656 16.324219 15 16.324219 C 15.273438 16.324219 15.542969 16.277344 15.800781 16.1875 C 16.058594 16.09375 16.296875 15.960938 16.507812 15.785156 L 17.457031 14.972656 L 23.957031 21.472656 L 6.042969 21.472656 Z M 18.636719 13.96875 L 25.050781 8.464844 L 25.050781 20.382812 Z M 18.636719 13.96875 " fill-opacity="1" fill-rule="nonzero"/></g></svg>