<svg xmlns="http://www.w3.org/2000/svg" xmlns:xlink="http://www.w3.org/1999/xlink" width="900" zoomAndPan="magnify" viewBox="0 0 675 149.999998" height="200" preserveAspectRatio="xMidYMid meet" version="1.0"><defs><g/></defs><path stroke-linecap="butt" transform="matrix(0.438172, 0, 0, 0.438172, 167.819792, 6.237659)" fill="none" stroke-linejoin="miter" d="M 61.175095 179.003296 C 64.651898 178.744765 68.119786 178.584297 71.569845 178.512978 C 75.055563 178.450574 78.452132 178.35251 81.777382 178.218787 C 85.387909 177.933511 87.92865 179.457955 89.39069 182.80995 C 90.46939 185.350691 91.102347 187.855772 91.298474 190.334109 C 91.494602 192.767871 91.396538 195.326441 91.004283 197.991991 C 90.87056 198.812159 90.629858 199.623414 90.273263 200.434668 C 89.943413 201.219177 89.649222 201.994772 89.39069 202.779281 C 88.579436 204.241321 87.304608 205.123895 85.584036 205.418086 C 84.246804 205.542894 82.909572 205.614213 81.581255 205.614213 C 80.244023 205.614213 78.844387 205.614213 77.382347 205.614213 C 76.597837 205.614213 75.804413 205.578553 74.993159 205.516149 C 74.17299 205.44483 73.308246 205.418086 72.398929 205.418086 C 70.250443 205.542894 68.039552 205.640958 65.757343 205.712277 C 63.519708 205.774681 61.255329 205.81034 58.973119 205.81034 C 57.377356 205.935149 55.817252 205.935149 54.292807 205.81034 C 52.759448 205.676617 51.261748 205.676617 49.799708 205.81034 C 46.180267 205.935149 42.6054 206.033212 39.057278 206.095616 C 35.544815 206.166935 32.059097 206.264999 28.609038 206.389807 C 26.460552 206.389807 24.347726 206.363063 22.261644 206.291744 C 20.211221 206.22934 18.125139 206.131276 16.012313 205.997553 C 15.87859 205.997553 15.735951 205.997553 15.575484 205.997553 C 15.44176 205.997553 15.316952 205.997553 15.183229 205.997553 C 14.398719 205.320022 13.605295 204.71381 12.794041 204.196747 C 12.009532 203.670769 11.278511 203.135876 10.592066 202.583154 C 10.333534 202.190899 10.075003 201.73624 9.816471 201.219177 C 9.263749 199.462946 8.853664 197.715629 8.595133 195.995057 C 8.327686 194.265571 8.265282 192.482595 8.399005 190.619385 C 8.657537 187.534836 8.853664 184.557266 8.987387 181.686675 C 9.112196 178.824999 9.263749 175.927663 9.424216 172.994667 C 9.682748 169.125609 9.878875 165.238721 10.012599 161.334004 C 10.137407 157.393627 10.27113 153.48891 10.395938 149.610937 C 10.529662 148.148896 10.592066 146.615537 10.592066 145.028688 C 10.592066 143.432925 10.663385 141.881736 10.788193 140.384036 C 11.046725 137.192509 11.118044 134.009897 10.98432 130.81837 C 10.850597 127.626843 10.725789 124.488805 10.592066 121.395342 C 10.592066 121.13681 10.592066 120.842619 10.592066 120.512768 C 10.592066 120.191833 10.592066 119.960046 10.592066 119.835238 C 10.467257 114.495224 10.333534 109.22653 10.199811 104.011326 C 10.075003 98.805036 9.941279 93.536342 9.816471 88.196328 C 9.816471 86.734288 9.914535 85.236588 10.101747 83.703229 C 10.297875 82.178784 10.467257 80.609766 10.592066 79.022917 C 10.592066 78.372131 10.690129 77.71243 10.886257 77.061643 C 11.082384 76.384112 11.242852 75.697667 11.376575 75.011221 C 11.929298 73.549181 12.437446 72.051481 12.892105 70.527036 C 13.373508 68.993677 14.01538 67.558381 14.790974 66.230064 C 15.602228 64.759109 16.814652 63.751728 18.401501 63.199005 C 19.480201 62.940473 20.567816 62.708687 21.673262 62.521474 C 22.814366 62.325347 23.919811 62.289687 24.998512 62.42341 C 26.719084 62.548219 28.412911 62.610623 30.071078 62.610623 C 31.764906 62.610623 33.476563 62.681942 35.197134 62.80675 C 37.479344 62.940473 39.708064 63.038537 41.892209 63.100941 C 44.1031 63.17226 46.269415 63.350558 48.382242 63.635834 C 51.440046 63.769557 54.533509 63.831961 57.653717 63.831961 C 60.8185 63.831961 63.920878 63.769557 66.978682 63.635834 C 68.868636 63.350558 70.705102 63.199005 72.496992 63.199005 C 74.288883 63.199005 76.045115 63.199005 77.774601 63.199005 C 78.585855 63.199005 79.37928 63.314898 80.163789 63.546685 C 80.975043 63.733898 81.795212 63.965685 82.606466 64.224216 C 83.515784 64.357939 84.442932 64.678875 85.387909 65.204853 C 87.536395 66.14983 88.802308 67.888232 89.194563 70.428973 C 90.398071 75.760071 90.531795 80.957446 89.586817 86.003268 C 89.453094 87.206777 88.855797 88.347881 87.777097 89.417667 C 86.832119 90.228921 85.860398 90.977771 84.853016 91.664217 C 83.872379 92.315003 82.784764 92.832066 81.581255 93.224321 C 80.636278 93.482852 79.691301 93.616576 78.746323 93.616576 C 77.837006 93.616576 76.847454 93.67898 75.768753 93.812703 C 75.510222 93.812703 75.25169 93.812703 74.993159 93.812703 C 74.725712 93.812703 74.467181 93.812703 74.208649 93.812703 C 72.318695 94.329766 70.366336 94.561553 68.351573 94.499149 C 66.363555 94.42783 64.375537 94.401085 62.396433 94.401085 C 61.059201 94.401085 59.757629 94.42783 58.491716 94.499149 C 57.216888 94.561553 55.915316 94.73985 54.578084 95.034041 C 54.194744 95.15885 53.749 95.230169 53.267596 95.230169 C 52.804022 95.230169 52.322619 95.292573 51.796641 95.426296 C 50.985387 95.551104 50.138473 95.684828 49.2559 95.809636 C 48.417902 95.943359 47.579903 96.139487 46.768649 96.398018 C 44.522099 96.825932 43.398824 98.154249 43.398824 100.400799 C 43.274016 101.738031 43.202697 103.039604 43.202697 104.305517 C 43.202697 105.580344 43.202697 106.881917 43.202697 108.210234 C 43.202697 108.47768 43.202697 108.780786 43.202697 109.137382 C 43.202697 109.467232 43.202697 109.761423 43.202697 110.019955 C 43.594951 112.132781 44.655822 113.470013 46.376394 114.022736 C 46.804308 114.156459 47.472924 114.218863 48.382242 114.218863 C 49.452028 114.218863 50.593132 114.183204 51.796641 114.1208 C 53.00015 114.058395 54.123425 114.022736 55.166466 114.022736 C 55.59438 114.022736 55.99555 114.022736 56.387804 114.022736 C 56.780059 114.022736 57.181229 114.022736 57.609143 114.022736 C 59.721969 114.156459 61.808051 114.183204 63.858474 114.1208 C 65.944556 114.058395 67.994978 114.08514 70.009741 114.218863 C 71.997759 114.218863 73.682671 114.825075 75.082308 116.028584 C 76.481944 117.232093 77.382347 118.756537 77.774601 120.610832 C 78.068792 121.261618 78.24709 121.965894 78.309494 122.714744 C 78.371898 123.463594 78.469962 124.158954 78.603685 124.809741 C 78.862217 125.62991 78.99594 126.405504 78.99594 127.154354 C 78.99594 127.876459 78.99594 128.616394 78.99594 129.400904 C 78.99594 132.458708 77.783516 134.937044 75.376499 136.826999 C 73.522204 138.289039 71.52527 139.020059 69.376784 139.020059 C 68.467467 139.020059 67.567064 139.082464 66.693406 139.216187 C 65.810832 139.340995 64.919344 139.412314 64.001112 139.412314 C 63.74258 139.537122 63.332496 139.608441 62.779773 139.608441 C 61.059201 139.73325 59.347544 139.866973 57.653717 139.991781 C 55.99555 140.125504 54.373041 140.259228 52.777278 140.384036 C 51.734237 140.553419 50.673366 140.696057 49.603581 140.82978 C 48.52488 140.954588 47.455094 141.088312 46.376394 141.21312 C 44.914354 141.346843 43.987206 142.273991 43.594951 144.003477 C 43.202697 145.724049 43.015484 147.435706 43.015484 149.129533 C 43.015484 150.787701 42.944165 152.481528 42.819357 154.2021 C 42.525166 156.742841 42.346868 159.212263 42.275549 161.61928 C 42.213145 163.999553 42.248805 166.46006 42.373613 168.991886 C 42.373613 169.812055 42.444932 170.658968 42.56974 171.532627 C 42.730208 172.37954 42.881761 173.208624 43.015484 174.019878 C 43.140293 175.35711 43.630611 176.364492 44.477525 177.050937 C 45.351183 177.701724 46.394224 178.156383 47.597733 178.414914 C 48.676433 178.548637 49.701644 178.611041 50.673366 178.611041 C 51.680748 178.611041 52.661384 178.68236 53.606362 178.807169 C 54.943594 178.807169 56.191677 178.807169 57.368441 178.807169 C 58.57195 178.807169 59.837863 178.807169 61.175095 178.807169 C 61.175095 178.807169 61.175095 178.842828 61.175095 178.905232 C 61.175095 178.967637 61.175095 179.003296 61.175095 179.003296 Z M 61.175095 179.003296 " stroke="#ffffff" stroke-width="52.493439" stroke-opacity="1" stroke-miterlimit="4"/><g fill="#fbd0f4" fill-opacity="1"><g transform="translate(167.819792, 95.624728)"><g><path d="M 26.8125 -10.953125 C 28.332031 -11.066406 29.847656 -11.140625 31.359375 -11.171875 C 32.878906 -11.203125 34.375 -11.242188 35.84375 -11.296875 C 37.414062 -11.421875 38.523438 -10.75 39.171875 -9.28125 C 39.640625 -8.175781 39.914062 -7.082031 40 -6 C 40.082031 -4.914062 40.039062 -3.789062 39.875 -2.625 C 39.8125 -2.28125 39.707031 -1.929688 39.5625 -1.578125 C 39.414062 -1.222656 39.285156 -0.875 39.171875 -0.53125 C 38.816406 0.113281 38.257812 0.492188 37.5 0.609375 C 36.914062 0.671875 36.332031 0.703125 35.75 0.703125 C 35.164062 0.703125 34.550781 0.703125 33.90625 0.703125 C 33.5625 0.703125 33.210938 0.6875 32.859375 0.65625 C 32.503906 0.625 32.125 0.609375 31.71875 0.609375 C 30.78125 0.671875 29.816406 0.710938 28.828125 0.734375 C 27.835938 0.765625 26.84375 0.78125 25.84375 0.78125 C 25.144531 0.84375 24.457031 0.84375 23.78125 0.78125 C 23.113281 0.726562 22.457031 0.726562 21.8125 0.78125 C 20.238281 0.84375 18.675781 0.890625 17.125 0.921875 C 15.582031 0.953125 14.050781 0.992188 12.53125 1.046875 C 11.59375 1.046875 10.671875 1.03125 9.765625 1 C 8.859375 0.976562 7.941406 0.9375 7.015625 0.875 C 6.953125 0.875 6.890625 0.875 6.828125 0.875 C 6.773438 0.875 6.71875 0.875 6.65625 0.875 C 6.3125 0.582031 5.960938 0.316406 5.609375 0.078125 C 5.253906 -0.148438 4.929688 -0.378906 4.640625 -0.609375 C 4.523438 -0.785156 4.410156 -0.992188 4.296875 -1.234375 C 4.054688 -1.984375 3.878906 -2.738281 3.765625 -3.5 C 3.648438 -4.257812 3.625 -5.050781 3.6875 -5.875 C 3.800781 -7.21875 3.882812 -8.515625 3.9375 -9.765625 C 4 -11.023438 4.0625 -12.296875 4.125 -13.578125 C 4.238281 -15.273438 4.320312 -16.984375 4.375 -18.703125 C 4.4375 -20.429688 4.5 -22.140625 4.5625 -23.828125 C 4.613281 -24.472656 4.640625 -25.144531 4.640625 -25.84375 C 4.640625 -26.550781 4.671875 -27.222656 4.734375 -27.859375 C 4.847656 -29.265625 4.875 -30.664062 4.8125 -32.0625 C 4.757812 -33.46875 4.703125 -34.84375 4.640625 -36.1875 C 4.640625 -36.300781 4.640625 -36.429688 4.640625 -36.578125 C 4.640625 -36.722656 4.640625 -36.828125 4.640625 -36.890625 C 4.585938 -39.222656 4.53125 -41.53125 4.46875 -43.8125 C 4.40625 -46.09375 4.347656 -48.398438 4.296875 -50.734375 C 4.296875 -51.378906 4.335938 -52.035156 4.421875 -52.703125 C 4.515625 -53.378906 4.585938 -54.066406 4.640625 -54.765625 C 4.640625 -55.054688 4.679688 -55.347656 4.765625 -55.640625 C 4.859375 -55.929688 4.9375 -56.222656 5 -56.515625 C 5.226562 -57.160156 5.441406 -57.816406 5.640625 -58.484375 C 5.847656 -59.160156 6.128906 -59.789062 6.484375 -60.375 C 6.835938 -61.019531 7.363281 -61.457031 8.0625 -61.6875 C 8.53125 -61.800781 9.007812 -61.898438 9.5 -61.984375 C 10 -62.078125 10.484375 -62.09375 10.953125 -62.03125 C 11.710938 -61.976562 12.457031 -61.953125 13.1875 -61.953125 C 13.914062 -61.953125 14.660156 -61.921875 15.421875 -61.859375 C 16.410156 -61.804688 17.382812 -61.765625 18.34375 -61.734375 C 19.3125 -61.703125 20.265625 -61.628906 21.203125 -61.515625 C 22.546875 -61.453125 23.90625 -61.421875 25.28125 -61.421875 C 26.65625 -61.421875 28.015625 -61.453125 29.359375 -61.515625 C 30.171875 -61.628906 30.972656 -61.6875 31.765625 -61.6875 C 32.554688 -61.6875 33.332031 -61.6875 34.09375 -61.6875 C 34.4375 -61.6875 34.78125 -61.640625 35.125 -61.546875 C 35.476562 -61.460938 35.832031 -61.363281 36.1875 -61.25 C 36.59375 -61.1875 37.003906 -61.039062 37.421875 -60.8125 C 38.347656 -60.40625 38.898438 -59.644531 39.078125 -58.53125 C 39.609375 -56.195312 39.664062 -53.921875 39.25 -51.703125 C 39.195312 -51.171875 38.9375 -50.671875 38.46875 -50.203125 C 38.0625 -49.859375 37.640625 -49.539062 37.203125 -49.25 C 36.765625 -48.957031 36.28125 -48.722656 35.75 -48.546875 C 35.34375 -48.429688 34.929688 -48.375 34.515625 -48.375 C 34.109375 -48.375 33.671875 -48.34375 33.203125 -48.28125 C 33.085938 -48.28125 32.972656 -48.28125 32.859375 -48.28125 C 32.742188 -48.28125 32.628906 -48.28125 32.515625 -48.28125 C 31.691406 -48.050781 30.84375 -47.945312 29.96875 -47.96875 C 29.09375 -48 28.21875 -48.015625 27.34375 -48.015625 C 26.757812 -48.015625 26.1875 -48 25.625 -47.96875 C 25.070312 -47.945312 24.503906 -47.875 23.921875 -47.75 C 23.742188 -47.695312 23.550781 -47.671875 23.34375 -47.671875 C 23.144531 -47.671875 22.925781 -47.640625 22.6875 -47.578125 C 22.34375 -47.523438 21.976562 -47.46875 21.59375 -47.40625 C 21.21875 -47.34375 20.851562 -47.253906 20.5 -47.140625 C 19.507812 -46.960938 19.015625 -46.378906 19.015625 -45.390625 C 18.953125 -44.804688 18.921875 -44.234375 18.921875 -43.671875 C 18.921875 -43.117188 18.921875 -42.550781 18.921875 -41.96875 C 18.921875 -41.851562 18.921875 -41.722656 18.921875 -41.578125 C 18.921875 -41.429688 18.921875 -41.300781 18.921875 -41.1875 C 19.097656 -40.25 19.566406 -39.664062 20.328125 -39.4375 C 20.503906 -39.375 20.796875 -39.34375 21.203125 -39.34375 C 21.671875 -39.34375 22.164062 -39.359375 22.6875 -39.390625 C 23.21875 -39.421875 23.71875 -39.4375 24.1875 -39.4375 C 24.363281 -39.4375 24.535156 -39.4375 24.703125 -39.4375 C 24.878906 -39.4375 25.054688 -39.4375 25.234375 -39.4375 C 26.171875 -39.375 27.09375 -39.359375 28 -39.390625 C 28.90625 -39.421875 29.796875 -39.40625 30.671875 -39.34375 C 31.546875 -39.34375 32.289062 -39.078125 32.90625 -38.546875 C 33.519531 -38.023438 33.914062 -37.359375 34.09375 -36.546875 C 34.207031 -36.242188 34.273438 -35.929688 34.296875 -35.609375 C 34.328125 -35.296875 34.375 -34.992188 34.4375 -34.703125 C 34.550781 -34.347656 34.609375 -34.007812 34.609375 -33.6875 C 34.609375 -33.363281 34.609375 -33.03125 34.609375 -32.6875 C 34.609375 -31.34375 34.082031 -30.257812 33.03125 -29.4375 C 32.21875 -28.800781 31.34375 -28.484375 30.40625 -28.484375 C 30 -28.484375 29.601562 -28.453125 29.21875 -28.390625 C 28.84375 -28.328125 28.453125 -28.296875 28.046875 -28.296875 C 27.921875 -28.242188 27.742188 -28.21875 27.515625 -28.21875 C 26.753906 -28.15625 26.007812 -28.09375 25.28125 -28.03125 C 24.550781 -27.976562 23.835938 -27.921875 23.140625 -27.859375 C 22.671875 -27.804688 22.203125 -27.75 21.734375 -27.6875 C 21.265625 -27.632812 20.796875 -27.578125 20.328125 -27.515625 C 19.679688 -27.453125 19.273438 -27.039062 19.109375 -26.28125 C 18.929688 -25.519531 18.84375 -24.773438 18.84375 -24.046875 C 18.84375 -23.316406 18.8125 -22.570312 18.75 -21.8125 C 18.632812 -20.707031 18.5625 -19.628906 18.53125 -18.578125 C 18.5 -17.523438 18.515625 -16.441406 18.578125 -15.328125 C 18.578125 -14.984375 18.601562 -14.617188 18.65625 -14.234375 C 18.71875 -13.859375 18.78125 -13.492188 18.84375 -13.140625 C 18.894531 -12.554688 19.109375 -12.117188 19.484375 -11.828125 C 19.867188 -11.535156 20.328125 -11.332031 20.859375 -11.21875 C 21.328125 -11.15625 21.78125 -11.125 22.21875 -11.125 C 22.65625 -11.125 23.078125 -11.097656 23.484375 -11.046875 C 24.066406 -11.046875 24.617188 -11.046875 25.140625 -11.046875 C 25.671875 -11.046875 26.226562 -11.046875 26.8125 -11.046875 C 26.8125 -11.046875 26.8125 -11.03125 26.8125 -11 C 26.8125 -10.96875 26.8125 -10.953125 26.8125 -10.953125 Z M 26.8125 -10.953125 "/></g></g></g><path stroke-linecap="butt" transform="matrix(0.438172, 0, 0, 0.438172, 237.746536, 21.512379)" fill="none" stroke-linejoin="miter" d="M 35.78332 170.219211 C 35.78332 174.3468 35.78332 178.447645 35.78332 182.521745 C 35.78332 186.586931 35.78332 190.687775 35.78332 194.82428 C 35.78332 197.07083 35.114704 199.397613 33.786386 201.804631 C 33.394132 202.749608 32.725516 203.284501 31.780538 203.418224 C 30.871221 203.543032 29.846009 203.73916 28.704905 203.997691 C 27.5638 204.256223 26.458355 204.523669 25.388569 204.782201 C 23.792806 205.076392 22.197042 205.103136 20.601279 204.880264 C 19.005515 204.684137 17.409752 204.523669 15.813988 204.389946 C 14.057757 204.131414 12.577887 203.302331 11.374378 201.902694 C 10.206529 200.503058 9.618147 198.942954 9.618147 197.213468 C 9.484424 193.34441 9.377445 189.546671 9.279381 185.838081 C 9.208062 182.093831 9.109999 178.349582 8.98519 174.614247 C 8.98519 173.143292 8.949531 171.681251 8.887127 170.219211 C 8.824722 168.748256 8.726659 167.286215 8.592936 165.824175 C 8.592936 165.137729 8.557276 164.442369 8.494872 163.720263 C 8.432468 162.971414 8.396808 162.338457 8.396808 161.821394 C 8.396808 156.089126 8.396808 150.392518 8.396808 144.731569 C 8.396808 139.034961 8.396808 133.320523 8.396808 127.59717 C 8.396808 121.740094 8.334404 115.874103 8.200681 110.017026 C 8.075873 104.15995 8.004553 98.365278 8.004553 92.641925 C 8.004553 91.144225 8.075873 89.744589 8.200681 88.443017 C 8.334404 87.105785 8.459212 85.768553 8.592936 84.440236 C 8.726659 83.103004 8.851467 81.765772 8.98519 80.437455 C 9.109999 79.100223 9.261552 77.762991 9.422019 76.434673 C 9.555743 74.963718 9.814274 73.599742 10.206529 72.333829 C 10.589869 71.059001 11.062357 69.819832 11.61508 68.616324 C 13.086035 65.692243 15.216691 64.034075 18.015964 63.641821 C 18.274495 63.508097 18.729154 63.445693 19.37994 63.445693 C 21.403618 63.579416 23.400551 63.837948 25.388569 64.230203 C 27.403332 64.613543 29.275457 65.344563 31.004944 66.423263 C 33.411961 67.626772 35.203852 69.498897 36.371702 72.039638 C 37.57521 74.286187 38.778719 76.514907 39.982228 78.725798 C 41.185737 80.909943 42.326841 83.138663 43.405542 85.411958 C 44.475328 87.266253 45.438135 89.209696 46.285048 91.224459 C 47.158706 93.212478 48.068024 95.147007 49.013001 97.036961 C 49.663788 98.365278 50.350233 99.73817 51.063424 101.137806 C 51.812274 102.537442 52.534379 103.963823 53.21191 105.434778 C 53.862696 106.638287 54.486738 107.841796 55.066205 109.045304 C 55.690247 110.213154 56.260799 111.336429 56.777862 112.415129 C 57.981371 114.946955 59.220539 117.425292 60.486452 119.832309 C 61.76128 122.212582 63.062852 124.664174 64.391169 127.204915 C 65.041956 128.408424 65.692742 129.611933 66.343528 130.815441 C 67.029974 132.01895 67.71642 133.222459 68.393951 134.425968 C 68.661397 134.951946 69.133886 135.3442 69.811417 135.602732 C 70.988181 135.994987 71.844009 135.602732 72.405647 134.425968 C 73.314964 133.097651 73.6359 131.698015 73.377369 130.235974 C 73.243645 126.750256 73.118837 123.246708 72.985114 119.734246 C 72.860305 116.186123 72.726582 112.673661 72.592859 109.187943 C 72.468051 107.208839 72.405647 105.220821 72.405647 103.232803 C 72.405647 101.21804 72.334328 99.149788 72.209519 97.036961 C 72.075796 94.362497 71.959903 91.661288 71.861839 88.933335 C 71.799435 86.196467 71.701371 83.432854 71.567648 80.633582 C 71.567648 79.554881 71.603307 78.56533 71.665712 77.656012 C 71.737031 76.711035 71.844009 75.766057 72.013392 74.82108 C 72.664178 71.629553 73.849857 68.767877 75.570429 66.227136 C 77.041384 64.07865 78.975913 63.071268 81.382931 63.204991 C 82.069377 63.204991 82.541865 63.133672 82.800397 63.008864 C 84.913223 62.875141 86.901241 63.017779 88.755537 63.445693 C 90.645491 63.837948 92.446297 64.631372 94.175784 65.834881 C 96.975056 67.822899 98.374692 70.622172 98.374692 74.232698 C 98.508415 79.572711 98.597564 84.939469 98.668883 90.341886 C 98.731287 95.717559 98.766947 101.137806 98.766947 106.602627 C 98.766947 107.289073 98.793691 108.037923 98.86501 108.849177 C 98.963074 109.633687 99.070053 110.346877 99.203776 110.997663 C 99.337499 114.741913 99.462307 118.450503 99.596031 122.123433 C 99.720839 125.769619 99.854562 129.397975 99.988285 133.017417 C 100.113094 136.467475 100.273561 139.899704 100.469689 143.314103 C 100.665816 146.701758 100.835199 150.133986 100.960007 153.619704 C 100.960007 154.529022 100.960007 155.45617 100.960007 156.401147 C 100.960007 157.346124 101.040241 158.353506 101.209624 159.423291 C 101.334432 163.559796 101.432496 167.758704 101.4949 172.020017 C 101.566219 176.290244 101.664283 180.551557 101.789091 184.81287 C 101.789091 186.150102 101.824751 187.416014 101.887155 188.619523 C 101.958474 189.796287 101.985218 190.981966 101.985218 192.185475 C 101.985218 193.781239 101.86041 195.359173 101.592964 196.919277 C 101.334432 198.452636 100.995667 199.950336 100.567753 201.412376 C 100.442944 201.929439 100.184413 202.375183 99.792158 202.731778 C 99.399903 203.052714 98.927415 203.346905 98.374692 203.605437 C 96.128142 204.684137 93.801359 205.174455 91.394341 205.076392 C 88.987323 205.005073 86.571391 204.648478 84.164373 203.997691 C 82.443801 203.346905 81.044165 202.419758 79.965465 201.216249 C 79.18987 200.271271 78.387531 199.406528 77.576277 198.630934 C 76.791768 197.819679 75.998343 196.937106 75.187089 195.992129 C 73.849857 194.396366 72.512625 192.836262 71.184308 191.302902 C 69.847076 189.778458 68.643567 188.147035 67.564867 186.426463 C 66.655549 184.79504 65.692742 183.190361 64.685361 181.594598 C 63.677979 179.998834 62.652768 178.403071 61.609727 176.807307 C 60.406218 174.525098 59.104646 172.332038 57.705009 170.219211 C 56.305373 168.070725 54.878993 165.940069 53.408037 163.818327 C 51.259551 160.341524 49.048661 156.873636 46.766452 153.423577 C 44.528817 149.937859 42.264437 146.54129 39.982228 143.216039 C 39.331442 142.146254 38.466698 141.611361 37.396913 141.611361 C 36.193404 141.736169 35.524788 142.342381 35.391065 143.412167 C 35.266257 143.938145 35.203852 144.669165 35.203852 145.614142 C 35.203852 149.741732 35.230597 153.842576 35.293001 157.916677 C 35.36432 161.981862 35.391065 166.082707 35.391065 170.219211 C 35.524788 170.219211 35.622852 170.219211 35.685256 170.219211 C 35.756575 170.219211 35.78332 170.219211 35.78332 170.219211 Z M 35.78332 170.219211 " stroke="#ffffff" stroke-width="52.493439" stroke-opacity="1" stroke-miterlimit="4"/><g fill="#fbd0f4" fill-opacity="1"><g transform="translate(237.746536, 110.899449)"><g><path d="M 15.6875 -14.8125 C 15.6875 -13 15.6875 -11.203125 15.6875 -9.421875 C 15.6875 -7.640625 15.6875 -5.84375 15.6875 -4.03125 C 15.6875 -3.039062 15.394531 -2.019531 14.8125 -0.96875 C 14.632812 -0.550781 14.34375 -0.316406 13.9375 -0.265625 C 13.519531 -0.203125 13.0625 -0.113281 12.5625 0 C 12.070312 0.113281 11.59375 0.226562 11.125 0.34375 C 10.425781 0.46875 9.722656 0.484375 9.015625 0.390625 C 8.316406 0.304688 7.617188 0.234375 6.921875 0.171875 C 6.160156 0.0546875 5.515625 -0.304688 4.984375 -0.921875 C 4.460938 -1.535156 4.203125 -2.222656 4.203125 -2.984375 C 4.148438 -4.671875 4.109375 -6.332031 4.078125 -7.96875 C 4.046875 -9.601562 4 -11.238281 3.9375 -12.875 C 3.9375 -13.519531 3.921875 -14.160156 3.890625 -14.796875 C 3.867188 -15.441406 3.828125 -16.085938 3.765625 -16.734375 C 3.765625 -17.023438 3.75 -17.332031 3.71875 -17.65625 C 3.695312 -17.976562 3.6875 -18.253906 3.6875 -18.484375 C 3.6875 -20.992188 3.6875 -23.488281 3.6875 -25.96875 C 3.6875 -28.457031 3.6875 -30.957031 3.6875 -33.46875 C 3.6875 -36.039062 3.65625 -38.613281 3.59375 -41.1875 C 3.53125 -43.757812 3.5 -46.300781 3.5 -48.8125 C 3.5 -49.445312 3.53125 -50.054688 3.59375 -50.640625 C 3.65625 -51.234375 3.710938 -51.820312 3.765625 -52.40625 C 3.828125 -52.988281 3.882812 -53.570312 3.9375 -54.15625 C 4 -54.738281 4.0625 -55.320312 4.125 -55.90625 C 4.175781 -56.550781 4.289062 -57.148438 4.46875 -57.703125 C 4.644531 -58.253906 4.847656 -58.796875 5.078125 -59.328125 C 5.722656 -60.609375 6.660156 -61.335938 7.890625 -61.515625 C 8.003906 -61.566406 8.207031 -61.59375 8.5 -61.59375 C 9.375 -61.539062 10.25 -61.425781 11.125 -61.25 C 12 -61.070312 12.816406 -60.75 13.578125 -60.28125 C 14.628906 -59.757812 15.421875 -58.941406 15.953125 -57.828125 C 16.472656 -56.835938 16.992188 -55.859375 17.515625 -54.890625 C 18.046875 -53.929688 18.546875 -52.957031 19.015625 -51.96875 C 19.484375 -51.144531 19.90625 -50.296875 20.28125 -49.421875 C 20.664062 -48.546875 21.0625 -47.695312 21.46875 -46.875 C 21.757812 -46.289062 22.066406 -45.691406 22.390625 -45.078125 C 22.710938 -44.460938 23.019531 -43.835938 23.3125 -43.203125 C 23.601562 -42.671875 23.878906 -42.140625 24.140625 -41.609375 C 24.398438 -41.085938 24.648438 -40.59375 24.890625 -40.125 C 25.410156 -39.019531 25.945312 -37.941406 26.5 -36.890625 C 27.0625 -35.835938 27.632812 -34.753906 28.21875 -33.640625 C 28.507812 -33.117188 28.800781 -32.59375 29.09375 -32.0625 C 29.382812 -31.539062 29.675781 -31.019531 29.96875 -30.5 C 30.082031 -30.257812 30.285156 -30.082031 30.578125 -29.96875 C 31.109375 -29.789062 31.488281 -29.96875 31.71875 -30.5 C 32.125 -31.082031 32.269531 -31.691406 32.15625 -32.328125 C 32.101562 -33.847656 32.046875 -35.378906 31.984375 -36.921875 C 31.921875 -38.472656 31.863281 -40.007812 31.8125 -41.53125 C 31.75 -42.40625 31.71875 -43.28125 31.71875 -44.15625 C 31.71875 -45.039062 31.6875 -45.945312 31.625 -46.875 C 31.570312 -48.039062 31.53125 -49.222656 31.5 -50.421875 C 31.46875 -51.617188 31.425781 -52.832031 31.375 -54.0625 C 31.375 -54.53125 31.382812 -54.96875 31.40625 -55.375 C 31.4375 -55.789062 31.484375 -56.203125 31.546875 -56.609375 C 31.835938 -58.003906 32.363281 -59.257812 33.125 -60.375 C 33.769531 -61.3125 34.613281 -61.75 35.65625 -61.6875 C 35.945312 -61.6875 36.15625 -61.71875 36.28125 -61.78125 C 37.207031 -61.832031 38.078125 -61.769531 38.890625 -61.59375 C 39.710938 -61.425781 40.503906 -61.078125 41.265625 -60.546875 C 42.492188 -59.671875 43.109375 -58.445312 43.109375 -56.875 C 43.171875 -54.53125 43.210938 -52.175781 43.234375 -49.8125 C 43.265625 -47.445312 43.28125 -45.066406 43.28125 -42.671875 C 43.28125 -42.378906 43.296875 -42.054688 43.328125 -41.703125 C 43.359375 -41.359375 43.40625 -41.039062 43.46875 -40.75 C 43.519531 -39.113281 43.570312 -37.488281 43.625 -35.875 C 43.6875 -34.269531 43.75 -32.679688 43.8125 -31.109375 C 43.875 -29.585938 43.945312 -28.082031 44.03125 -26.59375 C 44.113281 -25.101562 44.1875 -23.597656 44.25 -22.078125 C 44.25 -21.671875 44.25 -21.257812 44.25 -20.84375 C 44.25 -20.4375 44.28125 -20.003906 44.34375 -19.546875 C 44.394531 -17.734375 44.4375 -15.890625 44.46875 -14.015625 C 44.5 -12.148438 44.539062 -10.28125 44.59375 -8.40625 C 44.59375 -7.820312 44.609375 -7.265625 44.640625 -6.734375 C 44.671875 -6.210938 44.6875 -5.691406 44.6875 -5.171875 C 44.6875 -4.472656 44.628906 -3.785156 44.515625 -3.109375 C 44.398438 -2.441406 44.253906 -1.785156 44.078125 -1.140625 C 44.015625 -0.898438 43.894531 -0.707031 43.71875 -0.5625 C 43.550781 -0.414062 43.347656 -0.285156 43.109375 -0.171875 C 42.117188 0.296875 41.097656 0.515625 40.046875 0.484375 C 38.992188 0.453125 37.941406 0.289062 36.890625 0 C 36.128906 -0.289062 35.515625 -0.703125 35.046875 -1.234375 C 34.703125 -1.640625 34.351562 -2.015625 34 -2.359375 C 33.644531 -2.710938 33.296875 -3.09375 32.953125 -3.5 C 32.367188 -4.207031 31.78125 -4.894531 31.1875 -5.5625 C 30.601562 -6.238281 30.082031 -6.957031 29.625 -7.71875 C 29.207031 -8.414062 28.78125 -9.113281 28.34375 -9.8125 C 27.90625 -10.507812 27.453125 -11.210938 26.984375 -11.921875 C 26.460938 -12.910156 25.894531 -13.867188 25.28125 -14.796875 C 24.664062 -15.734375 24.035156 -16.671875 23.390625 -17.609375 C 22.460938 -19.128906 21.5 -20.648438 20.5 -22.171875 C 19.507812 -23.691406 18.519531 -25.179688 17.53125 -26.640625 C 17.238281 -27.109375 16.859375 -27.34375 16.390625 -27.34375 C 15.859375 -27.28125 15.566406 -27.015625 15.515625 -26.546875 C 15.453125 -26.316406 15.421875 -26 15.421875 -25.59375 C 15.421875 -23.78125 15.4375 -21.984375 15.46875 -20.203125 C 15.5 -18.421875 15.515625 -16.625 15.515625 -14.8125 C 15.566406 -14.8125 15.609375 -14.8125 15.640625 -14.8125 C 15.671875 -14.8125 15.6875 -14.8125 15.6875 -14.8125 Z M 15.6875 -14.8125 "/></g></g></g><path stroke-linecap="butt" transform="matrix(0.438172, 0, 0, 0.438172, 312.142663, 6.237659)" fill="none" stroke-linejoin="miter" d="M 93.396547 113.434354 C 93.396547 117.963113 93.396547 122.456212 93.396547 126.913652 C 93.396547 131.371092 93.325228 135.864192 93.20042 140.384036 C 93.20042 145.857772 92.986463 151.384998 92.567464 156.983543 C 92.300017 161.120047 91.863188 165.336785 91.248061 169.633757 C 90.659679 173.89507 89.696872 178.093978 88.368555 182.221568 C 87.584046 184.860372 86.621239 187.481347 85.489049 190.084492 C 84.347944 192.687637 82.78784 195.130314 80.799822 197.412523 C 80.371908 197.795863 79.935079 198.205948 79.48042 198.633862 C 79.025761 199.017202 78.597847 199.409456 78.214507 199.801711 C 77.920316 200.060243 77.643955 200.29203 77.385423 200.488157 C 77.117977 200.684284 76.859445 200.924986 76.600914 201.219177 C 75.263682 202.547494 73.801641 203.608365 72.205878 204.392874 C 70.610114 205.204128 68.871713 205.935149 66.981758 206.585935 C 66.197249 206.719658 65.368165 206.915785 64.494507 207.174317 C 63.611933 207.468508 62.720445 207.744869 61.811128 208.003401 C 60.215364 208.395655 58.601771 208.654187 56.970348 208.78791 C 55.383499 208.912719 53.716417 209.046442 51.995845 209.17125 C 50.400081 209.17125 48.804318 209.046442 47.208554 208.78791 C 45.612791 208.520464 44.070516 208.137124 42.572817 207.611146 C 41.396052 207.058423 40.147969 206.585935 38.810737 206.19368 C 37.48242 205.81034 36.207592 205.400256 35.004083 204.972342 C 33.114129 204.321555 31.313323 203.465727 29.583836 202.387026 C 27.863265 201.317241 26.267501 200.193966 24.796546 199.017202 C 23.593037 197.947416 22.558911 196.770652 21.676338 195.504739 C 20.829424 194.238826 20.062745 192.937254 19.385214 191.600022 C 18.992959 190.655044 18.582875 189.727897 18.163875 188.818579 C 17.77162 187.873602 17.316962 186.928624 16.790984 185.983647 C 15.97973 184.521607 15.311114 182.961503 14.794051 181.29442 C 14.268073 179.636253 13.73318 178.013744 13.180457 176.417981 C 12.663394 174.394303 12.155246 172.39737 11.664928 170.409352 C 11.210269 168.394589 10.853674 166.326337 10.595142 164.21351 C 10.461419 163.13481 10.336611 161.993705 10.202887 160.790196 C 10.069164 159.586688 9.944356 158.463413 9.810633 157.429287 C 9.685824 156.216863 9.587761 155.013354 9.516442 153.809845 C 9.454037 152.606336 9.338144 151.402828 9.177676 150.199319 C 8.785421 146.882984 8.49123 143.530989 8.295103 140.143334 C 8.107891 136.728935 8.072231 133.341281 8.205954 129.989286 C 8.464486 124.13221 8.660613 118.301878 8.785421 112.507206 C 8.919145 106.712534 9.043953 100.891118 9.177676 95.034041 C 9.177676 93.696809 9.213336 92.395237 9.27574 91.129324 C 9.373803 89.854496 9.418378 88.552924 9.418378 87.224607 C 9.418378 86.538161 9.552101 85.807141 9.810633 85.022631 C 10.202887 83.168336 10.595142 81.349701 10.987397 79.55781 C 11.406396 77.730259 11.878885 75.956198 12.404863 74.235626 C 12.921926 70.883632 14.856455 68.342891 18.20845 66.622319 C 20.062745 65.543618 22.193401 65.187023 24.609333 65.543618 C 27.016351 65.873469 28.870646 66.764957 30.172219 68.226997 C 30.858664 68.752975 31.357898 69.385932 31.687748 70.134782 C 32.008684 70.847972 32.320705 71.552248 32.614896 72.229778 C 33.265682 73.825542 33.684681 75.48371 33.880809 77.213196 C 34.076936 78.933768 34.175 80.743489 34.175 82.633443 C 34.469191 86.20831 34.469191 89.809922 34.175 93.420448 C 33.916468 97.030975 33.720341 100.632586 33.586618 104.207453 C 33.586618 104.733431 33.586618 105.268324 33.586618 105.821046 C 33.586618 106.338109 33.586618 106.944321 33.586618 107.630767 C 33.586618 108.664893 33.559873 109.761423 33.488554 110.902528 C 33.42615 112.034718 33.328086 113.140163 33.194363 114.218863 C 33.194363 115.003373 33.167618 115.796797 33.096299 116.608051 C 33.033895 117.42822 33.00715 118.221644 33.00715 119.006154 C 33.00715 122.61668 32.971491 126.227207 32.909087 129.837733 C 32.837768 133.421515 32.873427 137.014211 33.00715 140.633653 C 33.00715 146.490729 33.194363 152.347805 33.586618 158.204881 C 33.845149 162.599917 34.709892 166.736421 36.171933 170.605479 C 36.992102 172.593497 38.035143 174.465622 39.301056 176.221854 C 40.566969 177.942425 42.064668 179.538189 43.794155 181.009144 C 44.052687 181.133952 44.346878 181.267676 44.667813 181.392484 C 45.033323 181.526207 45.336429 181.65993 45.594961 181.784739 C 48.527956 182.595993 51.327229 182.533589 53.992778 181.588611 C 55.722265 180.937825 57.059497 179.885869 57.995559 178.414914 C 59.849854 175.883088 61.320809 172.736135 62.390595 168.991886 C 63.594104 165.417019 64.494507 161.788663 65.073974 158.106817 C 65.698015 154.433887 66.07244 150.734212 66.197249 147.025622 C 66.464695 141.008078 66.687567 135.035108 66.883694 129.106713 C 67.079822 123.187232 67.311609 117.214263 67.57014 111.187804 C 67.864331 107.737745 68.167437 104.287687 68.497288 100.837628 C 68.818223 97.360825 69.112414 93.875107 69.370946 90.398304 C 69.504669 88.668817 69.638392 86.97499 69.763201 85.316822 C 69.923668 83.658655 70.075221 81.964827 70.20003 80.235341 C 70.592284 75.679837 72.250452 71.400695 75.183448 67.397913 C 75.700511 66.88085 76.110595 66.622319 76.404786 66.622319 C 77.447827 66.354872 78.473038 66.060681 79.48042 65.739746 C 80.487801 65.383151 81.530842 65.133534 82.600628 65.008726 C 83.385137 64.875002 84.196391 64.910662 85.043305 65.106789 C 85.925878 65.302917 86.835196 65.543618 87.780173 65.837809 C 88.591427 65.971533 89.295703 66.310298 89.87517 66.863021 C 90.499211 67.380084 91.069764 67.968466 91.586827 68.619252 C 92.237613 69.956484 92.790336 71.258056 93.244995 72.523969 C 93.735313 73.798797 93.913611 75.162774 93.788802 76.624814 C 93.655079 78.220578 93.592675 79.780682 93.592675 81.314041 C 93.592675 82.8474 93.592675 84.407504 93.592675 86.003268 C 93.592675 90.558772 93.592675 95.096446 93.592675 99.625205 C 93.592675 104.145049 93.592675 108.754042 93.592675 113.434354 C 93.592675 113.434354 93.521356 113.434354 93.396547 113.434354 Z M 93.396547 113.434354 " stroke="#ffffff" stroke-width="52.493439" stroke-opacity="1" stroke-miterlimit="4"/><g fill="#fbd0f4" fill-opacity="1"><g transform="translate(312.142663, 95.624728)"><g><path d="M 40.921875 -39.6875 C 40.921875 -37.707031 40.921875 -35.738281 40.921875 -33.78125 C 40.921875 -31.820312 40.890625 -29.847656 40.828125 -27.859375 C 40.828125 -25.460938 40.742188 -23.039062 40.578125 -20.59375 C 40.453125 -18.78125 40.257812 -16.9375 40 -15.0625 C 39.738281 -13.195312 39.316406 -11.359375 38.734375 -9.546875 C 38.378906 -8.378906 37.953125 -7.222656 37.453125 -6.078125 C 36.960938 -4.941406 36.28125 -3.878906 35.40625 -2.890625 C 35.226562 -2.710938 35.035156 -2.535156 34.828125 -2.359375 C 34.628906 -2.191406 34.441406 -2.019531 34.265625 -1.84375 C 34.148438 -1.726562 34.03125 -1.625 33.90625 -1.53125 C 33.789062 -1.445312 33.675781 -1.347656 33.5625 -1.234375 C 32.976562 -0.640625 32.332031 -0.171875 31.625 0.171875 C 30.925781 0.523438 30.171875 0.847656 29.359375 1.140625 C 29.003906 1.203125 28.632812 1.289062 28.25 1.40625 C 27.875 1.519531 27.484375 1.632812 27.078125 1.75 C 26.378906 1.925781 25.675781 2.039062 24.96875 2.09375 C 24.269531 2.15625 23.539062 2.21875 22.78125 2.28125 C 22.082031 2.28125 21.378906 2.21875 20.671875 2.09375 C 19.972656 1.976562 19.304688 1.804688 18.671875 1.578125 C 18.140625 1.347656 17.582031 1.144531 17 0.96875 C 16.414062 0.789062 15.859375 0.613281 15.328125 0.4375 C 14.515625 0.144531 13.726562 -0.234375 12.96875 -0.703125 C 12.207031 -1.171875 11.503906 -1.664062 10.859375 -2.1875 C 10.335938 -2.65625 9.882812 -3.164062 9.5 -3.71875 C 9.125 -4.28125 8.789062 -4.851562 8.5 -5.4375 C 8.320312 -5.84375 8.144531 -6.25 7.96875 -6.65625 C 7.800781 -7.0625 7.597656 -7.472656 7.359375 -7.890625 C 7.003906 -8.523438 6.710938 -9.207031 6.484375 -9.9375 C 6.253906 -10.675781 6.019531 -11.394531 5.78125 -12.09375 C 5.550781 -12.96875 5.332031 -13.84375 5.125 -14.71875 C 4.914062 -15.59375 4.753906 -16.5 4.640625 -17.4375 C 4.585938 -17.90625 4.53125 -18.398438 4.46875 -18.921875 C 4.40625 -19.453125 4.347656 -19.953125 4.296875 -20.421875 C 4.234375 -20.941406 4.1875 -21.460938 4.15625 -21.984375 C 4.132812 -22.515625 4.09375 -23.046875 4.03125 -23.578125 C 3.851562 -25.035156 3.71875 -26.507812 3.625 -28 C 3.539062 -29.488281 3.53125 -30.960938 3.59375 -32.421875 C 3.707031 -34.992188 3.789062 -37.550781 3.84375 -40.09375 C 3.90625 -42.632812 3.96875 -45.1875 4.03125 -47.75 C 4.03125 -48.332031 4.046875 -48.898438 4.078125 -49.453125 C 4.109375 -50.015625 4.125 -50.585938 4.125 -51.171875 C 4.125 -51.460938 4.179688 -51.785156 4.296875 -52.140625 C 4.472656 -52.953125 4.644531 -53.753906 4.8125 -54.546875 C 4.988281 -55.335938 5.195312 -56.113281 5.4375 -56.875 C 5.664062 -58.332031 6.507812 -59.441406 7.96875 -60.203125 C 8.789062 -60.671875 9.726562 -60.832031 10.78125 -60.6875 C 11.832031 -60.539062 12.648438 -60.144531 13.234375 -59.5 C 13.523438 -59.257812 13.742188 -58.976562 13.890625 -58.65625 C 14.035156 -58.34375 14.164062 -58.039062 14.28125 -57.75 C 14.570312 -57.039062 14.757812 -56.304688 14.84375 -55.546875 C 14.9375 -54.796875 14.984375 -54.007812 14.984375 -53.1875 C 15.097656 -51.613281 15.097656 -50.035156 14.984375 -48.453125 C 14.867188 -46.878906 14.78125 -45.300781 14.71875 -43.71875 C 14.71875 -43.488281 14.71875 -43.253906 14.71875 -43.015625 C 14.71875 -42.785156 14.71875 -42.523438 14.71875 -42.234375 C 14.71875 -41.765625 14.703125 -41.28125 14.671875 -40.78125 C 14.648438 -40.289062 14.609375 -39.8125 14.546875 -39.34375 C 14.546875 -38.988281 14.53125 -38.632812 14.5 -38.28125 C 14.46875 -37.9375 14.453125 -37.585938 14.453125 -37.234375 C 14.453125 -35.660156 14.4375 -34.082031 14.40625 -32.5 C 14.382812 -30.925781 14.398438 -29.351562 14.453125 -27.78125 C 14.453125 -25.207031 14.539062 -22.632812 14.71875 -20.0625 C 14.832031 -18.132812 15.210938 -16.328125 15.859375 -14.640625 C 16.210938 -13.753906 16.664062 -12.929688 17.21875 -12.171875 C 17.769531 -11.421875 18.425781 -10.722656 19.1875 -10.078125 C 19.300781 -10.015625 19.429688 -9.953125 19.578125 -9.890625 C 19.722656 -9.835938 19.859375 -9.78125 19.984375 -9.71875 C 21.265625 -9.375 22.488281 -9.40625 23.65625 -9.8125 C 24.414062 -10.101562 25 -10.570312 25.40625 -11.21875 C 26.226562 -12.320312 26.875 -13.691406 27.34375 -15.328125 C 27.863281 -16.910156 28.253906 -18.503906 28.515625 -20.109375 C 28.785156 -21.710938 28.945312 -23.332031 29 -24.96875 C 29.113281 -27.601562 29.210938 -30.21875 29.296875 -32.8125 C 29.390625 -35.414062 29.5 -38.03125 29.625 -40.65625 C 29.738281 -42.175781 29.867188 -43.695312 30.015625 -45.21875 C 30.160156 -46.738281 30.289062 -48.253906 30.40625 -49.765625 C 30.46875 -50.523438 30.523438 -51.269531 30.578125 -52 C 30.640625 -52.726562 30.695312 -53.472656 30.75 -54.234375 C 30.925781 -56.222656 31.660156 -58.09375 32.953125 -59.84375 C 33.179688 -60.082031 33.351562 -60.203125 33.46875 -60.203125 C 33.9375 -60.316406 34.390625 -60.445312 34.828125 -60.59375 C 35.265625 -60.738281 35.71875 -60.84375 36.1875 -60.90625 C 36.539062 -60.957031 36.90625 -60.9375 37.28125 -60.84375 C 37.664062 -60.757812 38.0625 -60.660156 38.46875 -60.546875 C 38.820312 -60.492188 39.128906 -60.347656 39.390625 -60.109375 C 39.648438 -59.878906 39.894531 -59.617188 40.125 -59.328125 C 40.425781 -58.742188 40.675781 -58.171875 40.875 -57.609375 C 41.082031 -57.054688 41.15625 -56.457031 41.09375 -55.8125 C 41.039062 -55.113281 41.015625 -54.425781 41.015625 -53.75 C 41.015625 -53.082031 41.015625 -52.398438 41.015625 -51.703125 C 41.015625 -49.710938 41.015625 -47.722656 41.015625 -45.734375 C 41.015625 -43.753906 41.015625 -41.738281 41.015625 -39.6875 C 41.015625 -39.6875 40.984375 -39.6875 40.921875 -39.6875 Z M 40.921875 -39.6875 "/></g></g></g><path stroke-linecap="butt" transform="matrix(0.438172, 0, 0, 0.438172, 388.662345, 6.237659)" fill="none" stroke-linejoin="miter" d="M 34.415356 97.227102 C 34.682802 100.552352 34.870015 103.752794 35.003738 106.846257 C 35.137461 109.904061 35.262269 112.961865 35.395992 116.028584 C 35.395992 116.153392 35.431652 116.287115 35.494056 116.411924 C 35.55646 116.545647 35.59212 116.741774 35.59212 117.000306 C 35.850651 123.285296 36.109183 129.597031 36.367714 135.944426 C 36.661905 142.256161 36.813458 148.603555 36.813458 154.986609 C 36.679735 157.518435 36.644076 160.130495 36.715395 162.796044 C 36.777799 165.461593 36.813458 168.136057 36.813458 170.801607 C 36.813458 171.060138 36.813458 171.372159 36.813458 171.728754 C 36.813458 172.058605 36.813458 172.343881 36.813458 172.611327 C 37.07199 173.939644 37.660372 175.045089 38.56969 175.927663 C 39.514667 176.774576 40.655772 177.131171 41.984089 177.006363 C 44.132575 176.87264 46.200827 176.908299 48.188845 177.095512 C 50.203608 177.291639 52.27186 177.461022 54.384687 177.58583 C 55.721919 177.719553 57.023491 177.835447 58.289404 177.933511 C 59.564232 177.995915 60.865805 178.031574 62.194122 178.031574 C 62.7201 178.031574 63.237163 178.031574 63.763141 178.031574 C 64.315863 178.031574 64.850756 178.093978 65.367819 178.218787 C 68.595006 178.486233 70.663258 180.081997 71.572576 183.006077 C 72.909808 187.008858 73.186169 191.270171 72.401659 195.79893 C 71.590405 198.856734 69.71828 201.335071 66.785285 203.21611 C 65.974031 203.608365 64.984479 203.804492 63.807715 203.804492 C 62.185207 203.804492 60.571614 203.804492 58.97585 203.804492 C 57.380087 203.804492 55.784323 203.866896 54.18856 204.00062 C 51.130756 204.134343 48.055122 204.223492 44.961659 204.294811 C 41.903855 204.357215 38.846051 204.455279 35.788247 204.589002 C 33.247506 204.71381 30.644361 204.811874 27.969897 204.883193 C 25.340008 204.945597 22.683374 205.06149 20.017824 205.221958 C 19.465102 205.221958 18.912379 205.221958 18.359657 205.221958 C 17.833679 205.221958 17.316616 205.141724 16.790638 204.972342 C 15.462321 204.71381 14.535173 204.321555 14.009195 203.804492 C 10.951392 201.00522 9.418032 197.608651 9.418032 193.596955 C 9.257564 188.524388 9.114926 183.532055 8.981203 178.611041 C 8.856395 173.663283 8.722672 168.733354 8.588948 163.821256 C 8.46414 158.739774 8.392821 153.685037 8.392821 148.639215 C 8.392821 143.557733 8.330417 138.485167 8.205608 133.403685 C 8.071885 125.950845 8.009481 118.435601 8.009481 110.849039 C 8.009481 103.235731 8.009481 95.613509 8.009481 88.000201 C 8.009481 87.483138 8.009481 86.95716 8.009481 86.440097 C 8.009481 85.887375 8.071885 85.352482 8.205608 84.826504 C 8.588948 82.936549 8.918799 81.03768 9.17733 79.112066 C 9.471521 77.195367 9.94401 75.358901 10.594796 73.60267 C 11.281242 71.480928 12.288624 69.760357 13.616941 68.423125 C 14.793705 67.353339 16.077448 66.586659 17.477084 66.132 C 18.87672 65.641682 20.240696 65.267257 21.577928 65.008726 C 21.87212 65.008726 22.18414 65.008726 22.505076 65.008726 C 22.834927 65.008726 23.129118 65.008726 23.387649 65.008726 C 24.457435 64.750194 25.455901 64.794768 26.365219 65.151364 C 27.310196 65.481214 28.255174 65.971533 29.191236 66.622319 C 29.842022 67.139382 30.314511 67.807998 30.608702 68.619252 C 30.867233 69.564229 31.161424 70.473547 31.491275 71.35612 C 31.812211 72.203034 32.043998 73.156926 32.168806 74.235626 C 32.59672 75.697667 32.935486 77.231026 33.194017 78.82679 C 33.461464 80.422553 33.719995 82.009402 33.978527 83.605165 C 34.11225 84.03308 34.174654 84.469909 34.174654 84.924568 C 34.174654 85.379226 34.174654 85.887375 34.174654 86.440097 C 34.335122 88.294392 34.415356 90.202176 34.415356 92.154535 C 34.415356 94.071234 34.415356 95.765062 34.415356 97.227102 Z M 34.415356 97.227102 " stroke="#ffffff" stroke-width="52.493439" stroke-opacity="1" stroke-miterlimit="4"/><g fill="#fbd0f4" fill-opacity="1"><g transform="translate(388.662345, 95.624728)"><g><path d="M 15.078125 -46.796875 C 15.191406 -45.328125 15.273438 -43.921875 15.328125 -42.578125 C 15.390625 -41.242188 15.453125 -39.90625 15.515625 -38.5625 C 15.515625 -38.5 15.523438 -38.4375 15.546875 -38.375 C 15.578125 -38.320312 15.59375 -38.234375 15.59375 -38.109375 C 15.707031 -35.367188 15.820312 -32.609375 15.9375 -29.828125 C 16.0625 -27.054688 16.125 -24.269531 16.125 -21.46875 C 16.0625 -20.351562 16.046875 -19.210938 16.078125 -18.046875 C 16.109375 -16.878906 16.125 -15.710938 16.125 -14.546875 C 16.125 -14.429688 16.125 -14.300781 16.125 -14.15625 C 16.125 -14.007812 16.125 -13.875 16.125 -13.75 C 16.238281 -13.164062 16.5 -12.679688 16.90625 -12.296875 C 17.320312 -11.921875 17.820312 -11.765625 18.40625 -11.828125 C 19.332031 -11.890625 20.234375 -11.875 21.109375 -11.78125 C 21.992188 -11.695312 22.898438 -11.625 23.828125 -11.5625 C 24.410156 -11.507812 24.976562 -11.46875 25.53125 -11.4375 C 26.09375 -11.40625 26.664062 -11.390625 27.25 -11.390625 C 27.488281 -11.390625 27.722656 -11.390625 27.953125 -11.390625 C 28.179688 -11.390625 28.414062 -11.359375 28.65625 -11.296875 C 30.050781 -11.179688 30.957031 -10.484375 31.375 -9.203125 C 31.957031 -7.453125 32.070312 -5.582031 31.71875 -3.59375 C 31.363281 -2.25 30.546875 -1.164062 29.265625 -0.34375 C 28.910156 -0.175781 28.472656 -0.09375 27.953125 -0.09375 C 27.253906 -0.09375 26.550781 -0.09375 25.84375 -0.09375 C 25.144531 -0.09375 24.445312 -0.0625 23.75 0 C 22.40625 0.0625 21.0625 0.101562 19.71875 0.125 C 18.375 0.15625 17.03125 0.203125 15.6875 0.265625 C 14.570312 0.316406 13.429688 0.359375 12.265625 0.390625 C 11.097656 0.421875 9.929688 0.46875 8.765625 0.53125 C 8.523438 0.53125 8.289062 0.53125 8.0625 0.53125 C 7.832031 0.53125 7.597656 0.5 7.359375 0.4375 C 6.773438 0.320312 6.367188 0.144531 6.140625 -0.09375 C 4.796875 -1.3125 4.125 -2.800781 4.125 -4.5625 C 4.0625 -6.78125 4 -8.96875 3.9375 -11.125 C 3.882812 -13.289062 3.828125 -15.453125 3.765625 -17.609375 C 3.710938 -19.828125 3.6875 -22.046875 3.6875 -24.265625 C 3.6875 -26.492188 3.65625 -28.71875 3.59375 -30.9375 C 3.53125 -34.207031 3.5 -37.503906 3.5 -40.828125 C 3.5 -44.160156 3.5 -47.492188 3.5 -50.828125 C 3.5 -51.054688 3.5 -51.285156 3.5 -51.515625 C 3.5 -51.753906 3.53125 -51.988281 3.59375 -52.21875 C 3.769531 -53.039062 3.914062 -53.875 4.03125 -54.71875 C 4.144531 -55.570312 4.347656 -56.375 4.640625 -57.125 C 4.929688 -58.0625 5.367188 -58.820312 5.953125 -59.40625 C 6.484375 -59.875 7.054688 -60.207031 7.671875 -60.40625 C 8.285156 -60.613281 8.882812 -60.78125 9.46875 -60.90625 C 9.582031 -60.90625 9.710938 -60.90625 9.859375 -60.90625 C 10.003906 -60.90625 10.132812 -60.90625 10.25 -60.90625 C 10.71875 -61.019531 11.15625 -61.003906 11.5625 -60.859375 C 11.976562 -60.710938 12.390625 -60.492188 12.796875 -60.203125 C 13.085938 -59.960938 13.289062 -59.671875 13.40625 -59.328125 C 13.519531 -58.910156 13.648438 -58.507812 13.796875 -58.125 C 13.941406 -57.75 14.046875 -57.332031 14.109375 -56.875 C 14.285156 -56.226562 14.429688 -55.550781 14.546875 -54.84375 C 14.660156 -54.144531 14.773438 -53.445312 14.890625 -52.75 C 14.953125 -52.570312 14.984375 -52.378906 14.984375 -52.171875 C 14.984375 -51.972656 14.984375 -51.757812 14.984375 -51.53125 C 15.046875 -50.707031 15.078125 -49.867188 15.078125 -49.015625 C 15.078125 -48.171875 15.078125 -47.429688 15.078125 -46.796875 Z M 15.078125 -46.796875 "/></g></g></g><path stroke-linecap="butt" transform="matrix(0.438172, 0, 0, 0.438172, 436.02658, 6.237659)" fill="none" stroke-linejoin="miter" d="M 16.208994 88.633158 C 16.075271 88.633158 15.870229 88.633158 15.576038 88.633158 C 15.317506 88.633158 15.05006 88.633158 14.791529 88.633158 C 14.015934 88.766881 13.374063 88.704477 12.892659 88.43703 C 12.429085 88.151754 11.929852 87.74167 11.377129 87.224607 C 8.738325 83.899356 7.677454 80.30666 8.203432 76.428687 C 8.854218 72.684437 9.84377 69.154145 11.181002 65.837809 C 11.600001 64.759109 12.10815 63.805217 12.696532 62.958303 C 13.311658 62.07573 14.140742 61.496263 15.183783 61.202072 C 15.736506 60.934625 16.244654 60.809817 16.699313 60.809817 C 17.153972 60.809817 17.653205 60.809817 18.205928 60.809817 C 20.880392 60.809817 23.144771 61.683475 24.999066 63.448622 C 26.068852 64.482748 26.603745 65.739746 26.603745 67.201786 C 26.478936 69.350272 26.327383 71.472014 26.166915 73.549181 C 26.042107 75.599603 25.84598 77.685685 25.578533 79.798512 C 25.195193 82.891975 23.920366 85.49512 21.77188 87.607946 C 21.379625 88.000201 20.862562 88.196328 20.211776 88.196328 C 19.52533 88.356796 18.847799 88.47269 18.161353 88.535094 C 17.510567 88.606413 16.859781 88.633158 16.208994 88.633158 Z M 16.208994 88.633158 " stroke="#ffffff" stroke-width="31.996" stroke-opacity="1" stroke-miterlimit="4"/><g fill="#fbd0f4" fill-opacity="1"><g transform="translate(436.02658, 95.624728)"><g><path d="M 7.09375 -50.5625 C 7.039062 -50.5625 6.953125 -50.5625 6.828125 -50.5625 C 6.710938 -50.5625 6.597656 -50.5625 6.484375 -50.5625 C 6.128906 -50.5 5.847656 -50.523438 5.640625 -50.640625 C 5.441406 -50.765625 5.226562 -50.941406 5 -51.171875 C 3.820312 -52.628906 3.351562 -54.207031 3.59375 -55.90625 C 3.882812 -57.539062 4.320312 -59.085938 4.90625 -60.546875 C 5.082031 -61.015625 5.300781 -61.4375 5.5625 -61.8125 C 5.820312 -62.195312 6.1875 -62.445312 6.65625 -62.5625 C 6.894531 -62.675781 7.113281 -62.734375 7.3125 -62.734375 C 7.519531 -62.734375 7.738281 -62.734375 7.96875 -62.734375 C 9.132812 -62.734375 10.128906 -62.351562 10.953125 -61.59375 C 11.421875 -61.132812 11.65625 -60.582031 11.65625 -59.9375 C 11.59375 -59 11.53125 -58.078125 11.46875 -57.171875 C 11.414062 -56.265625 11.332031 -55.347656 11.21875 -54.421875 C 11.039062 -53.078125 10.484375 -51.9375 9.546875 -51 C 9.367188 -50.820312 9.132812 -50.734375 8.84375 -50.734375 C 8.550781 -50.671875 8.257812 -50.625 7.96875 -50.59375 C 7.675781 -50.570312 7.382812 -50.5625 7.09375 -50.5625 Z M 7.09375 -50.5625 "/></g></g></g><path stroke-linecap="butt" transform="matrix(0.438172, 0, 0, 0.438172, 462.141603, 21.512379)" fill="none" stroke-linejoin="miter" d="M 9.420797 181.006216 C 9.420797 180.872493 9.420797 180.712025 9.420797 180.515897 C 9.420797 180.31977 9.420797 180.141472 9.420797 179.981005 C 9.260329 178.679432 9.376223 177.458094 9.768477 176.316989 C 10.187477 175.175884 10.722369 174.141758 11.373156 173.196781 C 12.193325 172.11808 13.049153 171.128529 13.958471 170.219211 C 14.903448 169.274234 15.919744 168.471894 16.98953 167.821108 C 17.542253 167.526917 18.014741 167.321875 18.406996 167.188152 C 19.057782 167.188152 19.770973 167.188152 20.555482 167.188152 C 21.366736 167.188152 22.17799 167.250556 22.998159 167.384279 C 23.809413 167.384279 24.602838 167.598236 25.387347 168.017236 C 26.198601 168.40949 26.867217 168.864149 27.38428 169.390127 C 28.721512 170.459913 30.085489 171.502954 31.485125 172.510335 C 32.884761 173.517717 34.257653 174.480524 35.58597 175.389841 C 35.719693 175.523565 36.058458 175.728607 36.611181 176.022798 C 37.654222 176.290244 38.750752 176.548776 39.882942 176.807307 C 41.024047 177.065839 42.129492 177.32437 43.208192 177.591817 C 43.725255 177.716625 44.251233 177.779029 44.768296 177.779029 C 45.321019 177.779029 45.855911 177.868178 46.381889 178.028646 C 48.92263 178.545709 51.588179 177.948412 54.387452 176.218925 C 54.645983 176.094117 54.984749 175.684032 55.412663 174.997587 C 56.749895 173.401823 57.641383 171.716911 58.096042 169.92502 C 58.550701 168.09747 58.782487 166.127281 58.782487 164.014454 C 58.782487 161.999692 57.980148 160.065163 56.384385 158.201953 C 55.733599 157.551166 55.038238 156.90038 54.289388 156.249594 C 53.576198 155.572063 52.675795 155.019341 51.606009 154.591426 C 49.3238 153.682109 47.11291 152.621238 44.964423 151.417729 C 42.851597 150.21422 40.649622 148.948307 38.376327 147.611075 C 36.254586 146.407566 34.195248 145.168398 32.171571 143.902485 C 30.183552 142.636572 28.124215 141.326085 25.975729 139.997768 C 23.336925 138.402004 21.010141 136.806241 18.995378 135.210477 C 17.658146 134.006968 16.383318 132.705396 15.179809 131.30576 C 13.976301 129.906124 12.924345 128.34602 12.006112 126.616533 C 10.802603 124.343239 9.893286 122.043199 9.278159 119.734246 C 8.689777 117.389632 8.270777 114.946955 8.003331 112.415129 C 7.878523 110.685642 7.807204 108.991815 7.807204 107.333647 C 7.807204 105.63982 7.807204 103.937078 7.807204 102.207591 C 7.807204 102.082783 7.807204 101.984719 7.807204 101.9134 C 7.807204 101.850996 7.807204 101.752933 7.807204 101.619209 C 8.333182 99.604447 8.8235 97.634258 9.278159 95.717559 C 9.768477 93.791945 10.463838 91.955479 11.373156 90.199248 C 12.059601 89.031399 12.754962 87.908124 13.477067 86.829423 C 14.225917 85.759638 14.858874 84.618533 15.375937 83.415024 C 16.196106 82.077792 17.203487 80.892113 18.406996 79.849072 C 19.610505 78.770372 20.73378 77.638182 21.776821 76.434673 C 23.105138 74.963718 24.540433 73.599742 26.073793 72.333829 C 27.633897 71.059001 29.274235 69.953556 31.003721 69.008578 C 31.654508 68.616324 32.269634 68.295388 32.858016 68.036856 C 33.473143 67.76941 34.123929 67.564368 34.810375 67.394985 C 35.853416 67.136454 36.941031 66.842263 38.082136 66.521327 C 39.223241 66.191476 40.328686 65.968604 41.398471 65.834881 C 47.255548 64.765095 53.05022 64.765095 58.782487 65.834881 C 60.244528 66.093413 61.706568 66.539157 63.177523 67.154283 C 64.639564 67.742665 66.0392 68.357792 67.376432 69.008578 C 68.99894 69.819832 70.550129 70.76481 72.012169 71.84351 C 73.47421 72.886551 74.93625 73.938507 76.407205 75.017207 C 77.057991 75.409462 77.673118 75.881951 78.2615 76.434673 C 78.876627 76.951736 79.447179 77.557948 79.964242 78.235479 C 80.097966 78.369202 80.196029 78.494011 80.258433 78.627734 C 80.356497 78.761457 80.472391 78.886265 80.606114 79.019989 C 80.730922 79.27852 80.828986 79.554881 80.900305 79.849072 C 80.962709 80.107604 81.060773 80.366135 81.185581 80.633582 C 81.836367 82.354154 82.201877 83.557663 82.264281 84.244108 C 82.362345 84.894895 82.264281 86.142978 81.97009 88.006188 C 81.97009 88.55891 81.773963 89.156207 81.381708 89.806993 C 81.123177 90.493439 80.811156 91.17097 80.454561 91.857416 C 80.133625 92.508202 79.77703 93.158988 79.384775 93.809775 C 78.733989 95.013283 77.904905 96.020665 76.888609 96.840834 C 75.881227 97.616428 74.838186 98.347448 73.768401 99.033894 C 73.634678 99.033894 73.536614 99.069554 73.47421 99.131958 C 73.411806 99.194362 73.313742 99.230022 73.180019 99.230022 C 71.717978 100.139339 70.184619 100.567254 68.588855 100.495935 C 67.002007 100.43353 65.406243 100.139339 63.81048 99.622276 C 62.999226 99.363745 62.179057 99.069554 61.367803 98.739703 C 60.583293 98.383108 59.789869 98.071087 58.978615 97.812556 C 58.060382 97.420301 57.070831 97.063706 56.001045 96.74277 C 54.922344 96.386175 53.852559 96.207877 52.773858 96.207877 C 51.436626 96.207877 50.07265 96.172218 48.673014 96.109814 C 47.273377 96.038495 45.909401 96.136558 44.572169 96.39509 C 42.459342 96.823004 40.729855 97.964109 39.401538 99.818404 C 37.805775 102.359144 37.074755 104.962289 37.199563 107.627839 C 37.199563 108.144902 37.270882 108.537156 37.39569 108.795688 C 38.046477 110.13292 38.732922 111.470152 39.446113 112.798469 C 40.194963 114.135701 41.318238 115.214401 42.815937 116.025655 C 43.725255 116.41791 44.652403 116.854739 45.59738 117.345058 C 46.542357 117.799717 47.469505 118.218716 48.378823 118.610971 C 50.661032 119.555948 52.925411 120.563329 55.163046 121.64203 C 57.445255 122.685071 59.656146 123.737027 61.804632 124.815727 C 64.051182 126.144044 66.262072 127.57934 68.446217 129.112699 C 70.657108 130.637144 72.778849 132.268567 74.793612 133.989139 C 75.997121 134.800393 77.138225 135.74537 78.208011 136.82407 C 83.253833 141.219106 86.186829 146.746332 86.998083 153.423577 C 87.256614 155.536404 87.452742 157.66706 87.586465 159.815546 C 87.711273 161.928373 87.844996 164.130348 87.978719 166.403642 C 88.103528 169.470361 87.800422 172.465761 87.051572 175.389841 C 86.329467 178.322837 85.304255 181.184513 83.975938 183.983786 C 82.932897 186.132272 81.533261 188.405566 79.77703 190.821499 C 78.733989 192.417262 77.610714 193.977366 76.407205 195.501811 C 75.203696 197.03517 73.80406 198.399147 72.208297 199.602655 C 70.452065 200.939887 68.606685 202.24146 66.689986 203.507373 C 64.773287 204.782201 62.669375 205.869816 60.387166 206.779134 C 57.85534 207.724111 55.252195 208.52645 52.577731 209.177237 C 50.206373 209.729959 47.879589 209.970661 45.59738 209.908257 C 43.324086 209.845853 41.059706 209.400109 38.813156 208.588854 C 37.181733 208.071791 35.541395 207.527984 33.883228 206.975261 C 32.22506 206.458198 30.656041 205.789582 29.194001 204.978328 C 27.990492 204.327542 26.786983 203.837223 25.583474 203.507373 C 24.379966 203.186437 23.194287 202.749608 22.017522 202.196886 C 21.598523 202.063162 20.992311 201.742227 20.207802 201.216249 C 20.082993 201.09144 19.904696 200.957717 19.672909 200.823994 C 19.476782 200.663526 19.25391 200.520888 18.995378 200.387165 C 17.658146 199.736379 16.454637 198.809231 15.375937 197.605722 C 14.332896 196.402214 13.477067 195.127386 12.790622 193.799069 C 12.790622 193.665345 12.754962 193.567282 12.692558 193.504878 C 12.630154 193.442473 12.594494 193.34441 12.594494 193.210686 C 11.257262 191.320732 10.347944 189.350543 9.857626 187.300121 C 9.402967 185.222954 9.260329 183.119042 9.420797 181.006216 Z M 9.420797 181.006216 " stroke="#ffffff" stroke-width="52.493439" stroke-opacity="1" stroke-miterlimit="4"/><g fill="#fbd0f4" fill-opacity="1"><g transform="translate(462.141603, 110.899449)"><g><path d="M 4.125 -10.078125 C 4.125 -10.140625 4.125 -10.210938 4.125 -10.296875 C 4.125 -10.378906 4.125 -10.453125 4.125 -10.515625 C 4.0625 -11.097656 4.117188 -11.632812 4.296875 -12.125 C 4.472656 -12.625 4.707031 -13.082031 5 -13.5 C 5.34375 -13.957031 5.71875 -14.390625 6.125 -14.796875 C 6.539062 -15.210938 6.984375 -15.566406 7.453125 -15.859375 C 7.679688 -15.972656 7.882812 -16.0625 8.0625 -16.125 C 8.351562 -16.125 8.671875 -16.125 9.015625 -16.125 C 9.367188 -16.125 9.722656 -16.09375 10.078125 -16.03125 C 10.429688 -16.03125 10.78125 -15.941406 11.125 -15.765625 C 11.476562 -15.597656 11.769531 -15.394531 12 -15.15625 C 12.582031 -14.6875 13.179688 -14.234375 13.796875 -13.796875 C 14.410156 -13.359375 15.007812 -12.9375 15.59375 -12.53125 C 15.65625 -12.46875 15.800781 -12.378906 16.03125 -12.265625 C 16.5 -12.148438 16.976562 -12.03125 17.46875 -11.90625 C 17.96875 -11.789062 18.453125 -11.675781 18.921875 -11.5625 C 19.160156 -11.507812 19.394531 -11.484375 19.625 -11.484375 C 19.863281 -11.484375 20.097656 -11.453125 20.328125 -11.390625 C 21.441406 -11.160156 22.609375 -11.425781 23.828125 -12.1875 C 23.953125 -12.238281 24.097656 -12.410156 24.265625 -12.703125 C 24.847656 -13.398438 25.242188 -14.144531 25.453125 -14.9375 C 25.660156 -15.726562 25.765625 -16.59375 25.765625 -17.53125 C 25.765625 -18.40625 25.410156 -19.25 24.703125 -20.0625 C 24.410156 -20.351562 24.101562 -20.644531 23.78125 -20.9375 C 23.46875 -21.226562 23.078125 -21.460938 22.609375 -21.640625 C 21.617188 -22.046875 20.65625 -22.507812 19.71875 -23.03125 C 18.78125 -23.5625 17.816406 -24.117188 16.828125 -24.703125 C 15.890625 -25.234375 14.984375 -25.773438 14.109375 -26.328125 C 13.234375 -26.878906 12.328125 -27.453125 11.390625 -28.046875 C 10.222656 -28.742188 9.203125 -29.441406 8.328125 -30.140625 C 7.742188 -30.671875 7.1875 -31.238281 6.65625 -31.84375 C 6.132812 -32.457031 5.664062 -33.144531 5.25 -33.90625 C 4.726562 -34.90625 4.335938 -35.914062 4.078125 -36.9375 C 3.816406 -37.957031 3.625 -39.019531 3.5 -40.125 C 3.445312 -40.882812 3.421875 -41.628906 3.421875 -42.359375 C 3.421875 -43.097656 3.421875 -43.84375 3.421875 -44.59375 C 3.421875 -44.65625 3.421875 -44.703125 3.421875 -44.734375 C 3.421875 -44.765625 3.421875 -44.804688 3.421875 -44.859375 C 3.648438 -45.734375 3.863281 -46.59375 4.0625 -47.4375 C 4.269531 -48.289062 4.582031 -49.097656 5 -49.859375 C 5.289062 -50.378906 5.59375 -50.875 5.90625 -51.34375 C 6.226562 -51.8125 6.507812 -52.3125 6.75 -52.84375 C 7.09375 -53.425781 7.523438 -53.945312 8.046875 -54.40625 C 8.578125 -54.875 9.078125 -55.375 9.546875 -55.90625 C 10.128906 -56.550781 10.753906 -57.148438 11.421875 -57.703125 C 12.097656 -58.253906 12.816406 -58.734375 13.578125 -59.140625 C 13.867188 -59.316406 14.144531 -59.460938 14.40625 -59.578125 C 14.675781 -59.703125 14.957031 -59.789062 15.25 -59.84375 C 15.71875 -59.957031 16.195312 -60.085938 16.6875 -60.234375 C 17.1875 -60.390625 17.671875 -60.492188 18.140625 -60.546875 C 20.710938 -61.015625 23.253906 -61.015625 25.765625 -60.546875 C 26.398438 -60.429688 27.039062 -60.238281 27.6875 -59.96875 C 28.332031 -59.707031 28.945312 -59.429688 29.53125 -59.140625 C 30.226562 -58.796875 30.898438 -58.390625 31.546875 -57.921875 C 32.191406 -57.453125 32.832031 -56.984375 33.46875 -56.515625 C 33.757812 -56.335938 34.035156 -56.128906 34.296875 -55.890625 C 34.566406 -55.660156 34.816406 -55.398438 35.046875 -55.109375 C 35.109375 -55.054688 35.148438 -55 35.171875 -54.9375 C 35.203125 -54.882812 35.25 -54.828125 35.3125 -54.765625 C 35.375 -54.648438 35.414062 -54.53125 35.4375 -54.40625 C 35.46875 -54.289062 35.515625 -54.175781 35.578125 -54.0625 C 35.867188 -53.300781 36.023438 -52.773438 36.046875 -52.484375 C 36.078125 -52.191406 36.035156 -51.640625 35.921875 -50.828125 C 35.921875 -50.585938 35.832031 -50.320312 35.65625 -50.03125 C 35.539062 -49.738281 35.410156 -49.445312 35.265625 -49.15625 C 35.117188 -48.863281 34.957031 -48.570312 34.78125 -48.28125 C 34.488281 -47.757812 34.125 -47.320312 33.6875 -46.96875 C 33.25 -46.613281 32.796875 -46.289062 32.328125 -46 C 32.273438 -46 32.234375 -45.984375 32.203125 -45.953125 C 32.171875 -45.929688 32.128906 -45.921875 32.078125 -45.921875 C 31.429688 -45.503906 30.753906 -45.3125 30.046875 -45.34375 C 29.347656 -45.375 28.648438 -45.503906 27.953125 -45.734375 C 27.597656 -45.859375 27.242188 -45.992188 26.890625 -46.140625 C 26.546875 -46.285156 26.195312 -46.414062 25.84375 -46.53125 C 25.4375 -46.707031 25 -46.867188 24.53125 -47.015625 C 24.0625 -47.160156 23.597656 -47.234375 23.140625 -47.234375 C 22.546875 -47.234375 21.941406 -47.242188 21.328125 -47.265625 C 20.722656 -47.296875 20.128906 -47.253906 19.546875 -47.140625 C 18.609375 -46.960938 17.847656 -46.46875 17.265625 -45.65625 C 16.554688 -44.539062 16.234375 -43.398438 16.296875 -42.234375 C 16.296875 -42.003906 16.328125 -41.828125 16.390625 -41.703125 C 16.679688 -41.117188 16.984375 -40.535156 17.296875 -39.953125 C 17.617188 -39.367188 18.101562 -38.90625 18.75 -38.5625 C 19.15625 -38.382812 19.5625 -38.191406 19.96875 -37.984375 C 20.382812 -37.773438 20.796875 -37.585938 21.203125 -37.421875 C 22.191406 -37.003906 23.179688 -36.5625 24.171875 -36.09375 C 25.171875 -35.632812 26.140625 -35.171875 27.078125 -34.703125 C 28.066406 -34.117188 29.039062 -33.488281 30 -32.8125 C 30.96875 -32.144531 31.890625 -31.429688 32.765625 -30.671875 C 33.296875 -30.316406 33.796875 -29.90625 34.265625 -29.4375 C 36.484375 -27.507812 37.765625 -25.085938 38.109375 -22.171875 C 38.234375 -21.234375 38.320312 -20.296875 38.375 -19.359375 C 38.4375 -18.429688 38.5 -17.46875 38.5625 -16.46875 C 38.613281 -15.125 38.476562 -13.8125 38.15625 -12.53125 C 37.832031 -11.25 37.378906 -9.992188 36.796875 -8.765625 C 36.328125 -7.828125 35.71875 -6.832031 34.96875 -5.78125 C 34.5 -5.082031 34 -4.394531 33.46875 -3.71875 C 32.945312 -3.050781 32.332031 -2.453125 31.625 -1.921875 C 30.875 -1.335938 30.070312 -0.769531 29.21875 -0.21875 C 28.375 0.332031 27.457031 0.816406 26.46875 1.234375 C 25.351562 1.640625 24.210938 1.988281 23.046875 2.28125 C 21.992188 2.507812 20.96875 2.609375 19.96875 2.578125 C 18.976562 2.554688 17.988281 2.367188 17 2.015625 C 16.300781 1.785156 15.582031 1.550781 14.84375 1.3125 C 14.113281 1.082031 13.429688 0.789062 12.796875 0.4375 C 12.265625 0.144531 11.734375 -0.0703125 11.203125 -0.21875 C 10.679688 -0.363281 10.160156 -0.550781 9.640625 -0.78125 C 9.460938 -0.84375 9.195312 -0.992188 8.84375 -1.234375 C 8.789062 -1.285156 8.71875 -1.335938 8.625 -1.390625 C 8.539062 -1.453125 8.441406 -1.515625 8.328125 -1.578125 C 7.742188 -1.867188 7.21875 -2.273438 6.75 -2.796875 C 6.28125 -3.328125 5.898438 -3.882812 5.609375 -4.46875 C 5.609375 -4.53125 5.59375 -4.570312 5.5625 -4.59375 C 5.53125 -4.625 5.515625 -4.671875 5.515625 -4.734375 C 4.929688 -5.546875 4.535156 -6.40625 4.328125 -7.3125 C 4.128906 -8.21875 4.0625 -9.140625 4.125 -10.078125 Z M 4.125 -10.078125 "/></g></g></g></svg>