<svg xmlns="http://www.w3.org/2000/svg" xmlns:xlink="http://www.w3.org/1999/xlink" width="40" zoomAndPan="magnify" viewBox="0 0 30 30.000001" height="40" preserveAspectRatio="xMidYMid meet" version="1.0"><defs><clipPath id="4a913bd2ec"><path d="M 3.386719 2.902344 L 26.613281 2.902344 L 26.613281 26.128906 L 3.386719 26.128906 Z M 3.386719 2.902344 " clip-rule="nonzero"/></clipPath></defs><path fill="#5e6a81" d="M 8.800781 11.328125 L 10.519531 11.328125 C 10.609375 11.328125 10.6875 11.359375 10.753906 11.421875 C 10.816406 11.488281 10.847656 11.566406 10.847656 11.65625 L 10.847656 21.105469 C 10.847656 21.195312 10.816406 21.273438 10.753906 21.339844 C 10.6875 21.402344 10.609375 21.433594 10.519531 21.433594 L 8.800781 21.433594 C 8.710938 21.433594 8.632812 21.402344 8.570312 21.339844 C 8.503906 21.273438 8.472656 21.195312 8.472656 21.105469 L 8.472656 11.65625 C 8.472656 11.566406 8.503906 11.488281 8.570312 11.421875 C 8.632812 11.359375 8.710938 11.328125 8.800781 11.328125 Z M 8.800781 11.328125 " fill-opacity="1" fill-rule="nonzero"/><path fill="#5e6a81" d="M 11.042969 8.996094 C 11.042969 8.183594 10.460938 7.597656 9.660156 7.597656 C 8.859375 7.597656 8.257812 8.199219 8.257812 9 C 8.257812 9.375 8.394531 9.71875 8.640625 9.976562 C 8.894531 10.238281 9.242188 10.382812 9.621094 10.382812 C 10.042969 10.382812 10.417969 10.238281 10.679688 9.964844 C 10.925781 9.710938 11.054688 9.371094 11.042969 9 C 11.042969 9 11.042969 8.996094 11.042969 8.996094 Z M 11.042969 8.996094 " fill-opacity="1" fill-rule="nonzero"/><path fill="#5e6a81" d="M 20.453125 11.992188 C 19.597656 11.226562 18.597656 11.113281 18.074219 11.113281 C 17.296875 11.113281 16.554688 11.320312 15.925781 11.714844 C 15.652344 11.886719 15.40625 12.089844 15.1875 12.328125 L 15.144531 11.636719 C 15.136719 11.546875 15.101562 11.476562 15.039062 11.414062 C 14.976562 11.355469 14.902344 11.324219 14.8125 11.324219 L 13.292969 11.324219 C 13.195312 11.324219 13.117188 11.359375 13.050781 11.429688 C 12.984375 11.5 12.957031 11.585938 12.964844 11.679688 C 13.015625 12.402344 13.039062 13.160156 13.039062 14.210938 L 13.039062 21.105469 C 13.039062 21.195312 13.074219 21.273438 13.136719 21.339844 C 13.199219 21.402344 13.277344 21.433594 13.371094 21.433594 L 15.085938 21.433594 C 15.179688 21.433594 15.257812 21.402344 15.320312 21.339844 C 15.386719 21.273438 15.417969 21.195312 15.417969 21.105469 L 15.417969 15.425781 C 15.417969 15.15625 15.453125 14.90625 15.515625 14.734375 C 15.515625 14.730469 15.519531 14.726562 15.519531 14.71875 C 15.753906 13.960938 16.457031 13.195312 17.507812 13.195312 C 18.160156 13.195312 18.625 13.417969 18.9375 13.875 C 19.21875 14.289062 19.363281 14.90625 19.363281 15.65625 L 19.363281 21.105469 C 19.363281 21.195312 19.398438 21.273438 19.460938 21.339844 C 19.527344 21.402344 19.605469 21.433594 19.695312 21.433594 L 21.414062 21.433594 C 21.503906 21.433594 21.582031 21.402344 21.644531 21.339844 C 21.710938 21.273438 21.742188 21.195312 21.742188 21.105469 L 21.742188 15.464844 C 21.742188 14.660156 21.621094 13.945312 21.382812 13.34375 C 21.164062 12.804688 20.855469 12.347656 20.453125 11.992188 Z M 20.453125 11.992188 " fill-opacity="1" fill-rule="nonzero"/><g clip-path="url(#4a913bd2ec)"><path fill="#5e6a81" d="M 23.589844 2.902344 L 6.410156 2.902344 C 4.742188 2.902344 3.386719 4.257812 3.386719 5.925781 L 3.386719 23.105469 C 3.386719 24.773438 4.742188 26.128906 6.410156 26.128906 L 23.589844 26.128906 C 25.257812 26.128906 26.613281 24.773438 26.613281 23.105469 L 26.613281 5.925781 C 26.613281 4.257812 25.257812 2.902344 23.589844 2.902344 Z M 24.488281 6.074219 L 24.488281 22.957031 C 24.488281 23.097656 24.464844 23.230469 24.410156 23.359375 C 24.355469 23.488281 24.28125 23.601562 24.183594 23.699219 C 24.085938 23.796875 23.972656 23.871094 23.84375 23.925781 C 23.714844 23.980469 23.582031 24.003906 23.441406 24.007812 L 6.558594 24.007812 C 6.417969 24.003906 6.285156 23.980469 6.15625 23.925781 C 6.027344 23.871094 5.914062 23.796875 5.816406 23.699219 C 5.71875 23.601562 5.644531 23.488281 5.589844 23.359375 C 5.535156 23.230469 5.511719 23.097656 5.511719 22.957031 L 5.511719 6.074219 C 5.511719 5.933594 5.535156 5.800781 5.589844 5.671875 C 5.644531 5.542969 5.71875 5.429688 5.816406 5.332031 C 5.914062 5.234375 6.027344 5.160156 6.15625 5.105469 C 6.285156 5.054688 6.417969 5.027344 6.558594 5.027344 L 23.441406 5.027344 C 23.582031 5.027344 23.714844 5.054688 23.84375 5.105469 C 23.972656 5.160156 24.085938 5.234375 24.183594 5.332031 C 24.28125 5.429688 24.355469 5.542969 24.410156 5.671875 C 24.464844 5.800781 24.488281 5.933594 24.488281 6.074219 Z M 24.488281 6.074219 " fill-opacity="1" fill-rule="nonzero"/></g></svg>